<?xml version="1.0" encoding="UTF-8" standalone="no"?>
<!-- Created with Inkscape (http://www.inkscape.org/) -->

<svg
   xmlns:dc="http://purl.org/dc/elements/1.1/"
   xmlns:cc="http://creativecommons.org/ns#"
   xmlns:rdf="http://www.w3.org/1999/02/22-rdf-syntax-ns#"
   xmlns:svg="http://www.w3.org/2000/svg"
   xmlns="http://www.w3.org/2000/svg"
   xmlns:sodipodi="http://sodipodi.sourceforge.net/DTD/sodipodi-0.dtd"
   xmlns:inkscape="http://www.inkscape.org/namespaces/inkscape"
   viewBox="0 0 43 43"
   id="svg3029"
   version="1.1"
   inkscape:version="0.91 r13725"
   sodipodi:docname="crop.svg"
   inkscape:export-filename="D:\workspaces\web\Germinate3\instance-stuff\breeders\crop.png"
   inkscape:export-xdpi="13.711249"
   inkscape:export-ydpi="13.711249">
  <defs
     id="defs3031" />
  <sodipodi:namedview
     id="base"
     pagecolor="#ffffff"
     bordercolor="#666666"
     borderopacity="1.0"
     inkscape:pageopacity="0.0"
     inkscape:pageshadow="2"
     inkscape:zoom="11.313708"
     inkscape:cx="7.7454948"
     inkscape:cy="20.491801"
     inkscape:document-units="px"
     inkscape:current-layer="layer1"
     showgrid="false"
     inkscape:window-width="1920"
     inkscape:window-height="1018"
     inkscape:window-x="-8"
     inkscape:window-y="-8"
     inkscape:window-maximized="1"
     fit-margin-top="0"
     fit-margin-left="0"
     fit-margin-right="0"
     fit-margin-bottom="0">
    <inkscape:grid
       type="xygrid"
       id="grid3066"
       empspacing="5"
       visible="true"
       enabled="true"
       snapvisiblegridlinesonly="true"
       originx="-1600px"
       originy="-999.97436px" />
  </sodipodi:namedview>
  <metadata
     id="metadata3034">
    <rdf:RDF>
      <cc:Work
         rdf:about="">
        <dc:format>image/svg+xml</dc:format>
        <dc:type
           rdf:resource="http://purl.org/dc/dcmitype/StillImage" />
        <dc:title></dc:title>
      </cc:Work>
    </rdf:RDF>
  </metadata>
  <g
     inkscape:label="Layer 1"
     inkscape:groupmode="layer"
     id="layer1"
     transform="translate(-800,-509.375)">
    <path
       style="fill:#ffffff;fill-opacity:1;fill-rule:nonzero;stroke:none"
       d="m 829.69453,512.20312 -3.50584,4.17889 c -0.42547,0.49127 -2.27624,2.62575 -2.57162,3.04376 -0.32998,0.46697 -0.40792,0.68291 -0.43697,1.18033 -0.0291,0.49742 0.63285,7.59934 0.63285,7.59934 0,0 2.4026,-2.76927 2.91818,-3.50584 0.41332,-0.55006 0.46785,-0.93033 0.45204,-1.49676 -0.0658,-0.62509 -0.50518,-4.96217 -0.63286,-6.22313 1.07577,-1.56464 2.01749,-3.28071 3.14421,-4.77658 z m -5.68569,5.6857 -3.61634,4.30444 c -0.54722,0.63238 -2.17511,2.52055 -2.4561,2.91819 -0.32998,0.46697 -0.40792,0.68291 -0.43697,1.18033 -0.0291,0.49744 0.63285,7.59433 0.63285,7.59433 0,0 2.40261,-2.76927 2.91819,-3.50585 0.41331,-0.55006 0.46784,-0.92529 0.45204,-1.49174 -0.0658,-0.62565 -0.50576,-4.97775 -0.63287,-6.23317 1.07398,-1.56296 2.01397,-3.27266 3.13919,-4.76653 z m 16.17811,4.80672 c -1.49112,1.12314 -3.20088,2.0627 -4.76152,3.13417 -1.2355,-0.12509 -5.62562,-0.57187 -6.25326,-0.63789 -0.56644,-0.0158 -0.94168,0.0387 -1.49174,0.45205 -0.73658,0.51558 -3.50585,2.91818 -3.50585,2.91818 0,0 7.0969,0.66192 7.59433,0.63286 0.49743,-0.029 0.71335,-0.10197 1.18033,-0.43195 0.28031,-0.1981 1.28063,-1.05266 2.15975,-1.80817 l 5.07796,-4.25925 z m -21.85878,0.87395 -3.33507,3.97296 c -0.1794,0.20691 -2.42512,2.8007 -2.74239,3.24968 -0.32999,0.46696 -0.40291,0.68291 -0.43196,1.18033 -0.0291,0.49743 0.62784,7.59934 0.62784,7.59934 0,0 2.40763,-2.76927 2.92321,-3.50584 0.41331,-0.55007 0.46784,-0.93033 0.45204,-1.49676 -0.0657,-0.62511 -0.50521,-4.96737 -0.63286,-6.22816 1.07411,-1.56308 2.01385,-3.27752 3.13919,-4.77156 z m 16.17308,4.81175 c -1.4902,1.12246 -3.19663,2.05848 -4.75649,3.12914 -1.23555,-0.1251 -5.62562,-0.56685 -6.25326,-0.63286 -0.56644,-0.0158 -0.9467,0.0387 -1.49676,0.45204 -0.73657,0.51558 -3.50584,2.91818 -3.50584,2.91818 0,0 7.10191,0.66192 7.59934,0.63287 0.49742,-0.0291 0.71336,-0.107 1.18033,-0.43698 0.27995,-0.19783 1.28106,-1.04805 2.15976,-1.80315 l 5.07292,-4.25924 z m -21.87887,0.84883 -3.25972,3.88757 c -0.005,0.006 -2.51319,2.89366 -2.84285,3.36018 -0.32998,0.46697 -0.40792,0.68291 -0.43697,1.18034 -0.0267,0.45625 0.48563,6.00958 0.57761,7.00164 l -3.84739,3.84738 1.0397,1.0397 3.83734,-3.83734 c 0.94985,0.0876 6.56841,0.6094 7.02675,0.58263 0.49742,-0.029 0.71839,-0.10699 1.18536,-0.43697 0.38453,-0.27173 2.12204,-1.77567 2.82778,-2.38578 l 4.41997,-3.71178 c -1.50485,1.13349 -3.22953,2.08039 -4.8017,3.1643 -0.0679,-0.007 -0.13809,-0.0158 -0.18082,-0.0201 3.3e-4,-1.4e-4 0.0201,-0.0151 0.0201,-0.0151 0,0 -6.42038,-0.64786 -7.13725,-0.72327 -0.35969,-0.01 -0.64336,0.006 -0.94426,0.12557 0.0887,-0.267 0.1044,-0.53218 0.0954,-0.85386 -0.0117,-0.11103 -0.0808,-0.76525 -0.11553,-1.10499 -4.9e-4,-0.0261 6.4e-4,-0.0484 0,-0.0753 -0.0655,-0.6231 -0.49846,-4.92818 -0.62783,-6.20805 1.08705,-1.57506 2.02819,-3.30845 3.1643,-4.81677 z m 16.19819,4.83184 c -1.48925,1.12175 -3.19741,2.05931 -4.75649,3.12914 -1.23116,-0.12465 -5.62518,-0.5668 -6.25325,-0.63287 -0.56645,-0.0158 -0.9467,0.0387 -1.49676,0.45204 -0.73658,0.51558 -3.50585,2.91819 -3.50585,2.91819 0,0 7.10191,0.66191 7.59934,0.63287 0.49742,-0.0291 0.71336,-0.107 1.18033,-0.43698 0.24473,-0.17294 1.11108,-0.91117 1.92369,-1.60726 l 5.30899,-4.45513 z"
       id="rect2984"
       inkscape:connector-curvature="0" />
  </g>
</svg>
