<?xml version="1.0" encoding="UTF-8" standalone="no"?>
<svg
   width="512"
   height="512"
   viewBox="0 0 135.46666 135.46667"
   version="1.1"
   id="svg8"
   inkscape:version="1.4 (86a8ad7, 2024-10-11)"
   sodipodi:docname="crop (1).svg"
   xmlns:inkscape="http://www.inkscape.org/namespaces/inkscape"
   xmlns:sodipodi="http://sodipodi.sourceforge.net/DTD/sodipodi-0.dtd"
   xmlns="http://www.w3.org/2000/svg"
   xmlns:svg="http://www.w3.org/2000/svg"
   xmlns:rdf="http://www.w3.org/1999/02/22-rdf-syntax-ns#"
   xmlns:cc="http://creativecommons.org/ns#"
   xmlns:dc="http://purl.org/dc/elements/1.1/">
  <defs
     id="defs2" />
  <sodipodi:namedview
     id="base"
     pagecolor="#ffffff"
     bordercolor="#666666"
     borderopacity="1.0"
     inkscape:pageopacity="0.0"
     inkscape:pageshadow="2"
     inkscape:zoom="1.4"
     inkscape:cx="198.57143"
     inkscape:cy="193.92857"
     inkscape:document-units="mm"
     inkscape:current-layer="layer1"
     inkscape:document-rotation="0"
     showgrid="false"
     units="px"
     inkscape:snap-object-midpoints="false"
     inkscape:window-width="2880"
     inkscape:window-height="1514"
     inkscape:window-x="4309"
     inkscape:window-y="-11"
     inkscape:window-maximized="1"
     inkscape:showpageshadow="2"
     inkscape:pagecheckerboard="0"
     inkscape:deskcolor="#d1d1d1">
    <inkscape:grid
       type="xygrid"
       id="grid833"
       empspacing="2"
       originx="0"
       originy="0"
       spacingy="1"
       spacingx="1"
       units="px" />
  </sodipodi:namedview>
  <metadata
     id="metadata5">
    <rdf:RDF>
      <cc:Work
         rdf:about="">
        <dc:format>image/svg+xml</dc:format>
        <dc:type
           rdf:resource="http://purl.org/dc/dcmitype/StillImage" />
        <dc:title />
      </cc:Work>
    </rdf:RDF>
  </metadata>
  <g
     inkscape:label="Layer 1"
     inkscape:groupmode="layer"
     id="layer1">
    <path
       style="fill:none;stroke:#ffffff;stroke-width:3.05528;stroke-linecap:butt;stroke-linejoin:round;stroke-miterlimit:4;stroke-dasharray:none;stroke-opacity:1"
       d="M 62.844889,89.429155 V 53.987988 40.544783 28.323688"
       id="path839-1"
       sodipodi:nodetypes="cccc" />
    <path
       style="fill:none;stroke:#ffffff;stroke-width:3.05528;stroke-linecap:butt;stroke-linejoin:miter;stroke-miterlimit:4;stroke-dasharray:none;stroke-opacity:1"
       d="M 92.175519,89.429155 V 53.987988"
       id="path863-4" />
    <path
       style="fill:none;stroke:#ffffff;stroke-width:3.05528;stroke-linecap:butt;stroke-linejoin:miter;stroke-miterlimit:4;stroke-dasharray:none;stroke-opacity:1"
       d="M 43.291139,89.429155 V 69.875405"
       id="path871-7" />
    <path
       style="fill:none;stroke:#ffffff;stroke-width:3.05528;stroke-linecap:butt;stroke-linejoin:round;stroke-miterlimit:4;stroke-dasharray:none;stroke-opacity:1"
       d="M 53.068018,89.429155 V 41.766889 l -9.776879,-9.776873 v 19.553752 l 9.776879,9.776872"
       id="path885-7"
       sodipodi:nodetypes="ccccc" />
    <path
       style="fill:none;stroke:#ffffff;stroke-width:3.05528;stroke-linecap:butt;stroke-linejoin:round;stroke-miterlimit:4;stroke-dasharray:none;stroke-opacity:1"
       d="M 72.621768,89.429155 V 36.87845 l 9.776872,-9.776872 v 29.33063 l -9.776872,9.776871"
       id="path895-5"
       sodipodi:nodetypes="ccccc" />
    <ellipse
       style="fill:none;stroke:#ffffff;stroke-width:3.05528;stroke-linecap:butt;stroke-linejoin:round;stroke-miterlimit:4;stroke-dasharray:none;stroke-opacity:1;paint-order:stroke markers fill"
       id="path897-6"
       cx="43.291145"
       cy="66.209076"
       rx="3.360801"
       ry="3.3608" />
    <ellipse
       style="fill:none;stroke:#ffffff;stroke-width:3.05528;stroke-linecap:butt;stroke-linejoin:round;stroke-miterlimit:4;stroke-dasharray:none;stroke-opacity:1;paint-order:stroke markers fill"
       id="ellipse899-0"
       cx="62.844898"
       cy="24.65736"
       rx="3.360801"
       ry="3.3608" />
    <ellipse
       style="fill:none;stroke:#ffffff;stroke-width:3.05528;stroke-linecap:butt;stroke-linejoin:round;stroke-miterlimit:4;stroke-dasharray:none;stroke-opacity:1;paint-order:stroke markers fill"
       id="ellipse901-3"
       cx="92.175522"
       cy="50.321651"
       rx="3.360801"
       ry="3.3608" />
    <path
       style="fill:none;stroke:#ffffff;stroke-width:3.05528;stroke-linecap:round;stroke-linejoin:miter;stroke-miterlimit:4;stroke-dasharray:none;stroke-opacity:1"
       d="M 72.621768,56.432208 82.39864,46.655329"
       id="path905-1"
       sodipodi:nodetypes="cc" />
    <path
       style="fill:none;stroke:#ffffff;stroke-width:3.05528;stroke-linecap:round;stroke-linejoin:miter;stroke-miterlimit:4;stroke-dasharray:none;stroke-opacity:1"
       d="M 72.621768,46.655329 82.39864,36.878457"
       id="path907-6"
       sodipodi:nodetypes="cc" />
    <path
       style="fill:none;stroke:#ffffff;stroke-width:3.05528;stroke-linecap:round;stroke-linejoin:miter;stroke-miterlimit:4;stroke-dasharray:none;stroke-opacity:1"
       d="m 43.291139,41.766889 9.776879,9.776879"
       id="path909-9"
       sodipodi:nodetypes="cc" />
    <path
       style="fill:none;stroke:#ffffff;stroke-width:3.05528;stroke-linecap:butt;stroke-linejoin:miter;stroke-miterlimit:4;stroke-dasharray:none;stroke-opacity:1"
       d="M 82.39864,89.429163 V 79.652291"
       id="path911-8"
       sodipodi:nodetypes="cc" />
    <ellipse
       style="fill:none;stroke:#ffffff;stroke-width:3.05528;stroke-linecap:butt;stroke-linejoin:round;stroke-miterlimit:4;stroke-dasharray:none;stroke-opacity:1;paint-order:stroke markers fill"
       id="ellipse913-3"
       cx="82.398651"
       cy="75.985947"
       rx="3.360801"
       ry="3.3608" />
    <g
       aria-label="BARN"
       id="text868-2"
       style="font-style:normal;font-weight:normal;font-size:31.8447px;line-height:1.25;font-family:sans-serif;fill:#625139;fill-opacity:1;stroke:none;stroke-width:0.199029">
      <path
         d="m 37.799366,104.67879 q 1.910682,0.60505 2.993402,2.03806 1.08272,1.40117 1.08272,3.47108 0,2.92971 -2.292819,4.52194 -2.260973,1.56039 -6.623697,1.56039 H 21.43119 V 93.978974 h 10.890888 q 4.076121,0 6.241561,1.56039 2.197284,1.56039 2.197284,4.235345 0,1.624081 -0.796117,2.897871 -0.764273,1.27378 -2.16544,2.00621 z M 26.558187,97.864027 v 5.254373 h 5.126997 q 1.910682,0 2.897867,-0.66874 0.987186,-0.66873 0.987186,-1.97437 0,-1.30563 -0.987186,-1.942524 -0.987185,-0.668739 -2.897867,-0.668739 z m 6.018648,14.521183 q 2.038061,0 3.057091,-0.66874 1.050876,-0.66874 1.050876,-2.0699 0,-2.77049 -4.107967,-2.77049 h -6.018648 v 5.50913 z"
         style="font-style:normal;font-variant:normal;font-weight:bold;font-stretch:normal;font-size:31.8447px;font-family:Montserrat;-inkscape-font-specification:'Montserrat Bold';fill:#ffffff;fill-opacity:1;stroke-width:0.199029"
         id="path848" />
      <path
         d="M 60.472772,111.49356 H 50.123245 l -1.974371,4.7767 H 42.862653 L 52.7982,93.978974 h 5.095152 l 9.967391,22.291286 h -5.413599 z m -1.624079,-3.9169 -3.534762,-8.534379 -3.534762,8.534379 z"
         style="font-style:normal;font-variant:normal;font-weight:bold;font-stretch:normal;font-size:31.8447px;font-family:Montserrat;-inkscape-font-specification:'Montserrat Bold';fill:#ffffff;fill-opacity:1;stroke-width:0.199029"
         id="path850" />
      <path
         d="m 84.388107,116.27026 -4.299034,-6.20971 h -0.254758 -4.490102 v 6.20971 H 70.185371 V 93.978974 h 9.648944 q 2.961557,0 5.126997,0.987185 2.197284,0.987186 3.375538,2.802334 1.178254,1.815148 1.178254,4.299037 0,2.48388 -1.210099,4.29903 -1.178253,1.78331 -3.375538,2.73865 l 4.999618,7.16505 z m -0.09553,-14.20273 q 0,-1.87884 -1.210098,-2.866025 -1.210099,-1.019031 -3.534762,-1.019031 h -4.2035 v 7.770106 h 4.2035 q 2.324663,0 3.534762,-1.01903 1.210098,-1.01903 1.210098,-2.86602 z"
         style="font-style:normal;font-variant:normal;font-weight:bold;font-stretch:normal;font-size:31.8447px;font-family:Montserrat;-inkscape-font-specification:'Montserrat Bold';fill:#ffffff;fill-opacity:1;stroke-width:0.199029"
         id="path852" />
      <path
         d="m 114.03548,93.978974 v 22.291286 h -4.23535 L 98.686331,102.73627 v 13.53399 H 93.591179 V 93.978974 h 4.267189 L 108.94032,107.51297 V 93.978974 Z"
         style="font-style:normal;font-variant:normal;font-weight:bold;font-stretch:normal;font-size:31.8447px;font-family:Montserrat;-inkscape-font-specification:'Montserrat Bold';fill:#ffffff;fill-opacity:1;stroke-width:0.199029"
         id="path854" />
    </g>
    <path
       style="fill:none;stroke:#ffffff;stroke-width:5.29167;stroke-linecap:round;stroke-linejoin:round;stroke-miterlimit:4;stroke-dasharray:none;stroke-opacity:1"
       d="M 8.4666667,46.566662 25.4,21.166662 67.733333,8.4666625 110.06667,21.166662 127,46.566662"
       id="path1055"
       sodipodi:nodetypes="ccccc" />
    <path
       style="fill:none;stroke:#ffffff;stroke-width:5.29167;stroke-linecap:round;stroke-linejoin:round;stroke-miterlimit:4;stroke-dasharray:none;stroke-opacity:1"
       d="M 12.7,59.266663 V 126.99999 H 122.76667 V 59.266663"
       id="path1074"
       sodipodi:nodetypes="cccc" />
  </g>
</svg>
