<?xml version="1.0" encoding="UTF-8" standalone="no"?>
<!-- Created with Inkscape (http://www.inkscape.org/) -->

<svg
   xmlns:dc="http://purl.org/dc/elements/1.1/"
   xmlns:cc="http://creativecommons.org/ns#"
   xmlns:rdf="http://www.w3.org/1999/02/22-rdf-syntax-ns#"
   xmlns:svg="http://www.w3.org/2000/svg"
   xmlns="http://www.w3.org/2000/svg"
   xmlns:sodipodi="http://sodipodi.sourceforge.net/DTD/sodipodi-0.dtd"
   xmlns:inkscape="http://www.inkscape.org/namespaces/inkscape"
   viewBox="0 0 43 43"
   id="svg2994"
   version="1.1"
   inkscape:version="0.91 r13725"
   sodipodi:docname="crop.svg"
   inkscape:export-xdpi="25.799999"
   inkscape:export-ydpi="25.799999">
  <defs
     id="defs2996" />
  <sodipodi:namedview
     id="base"
     pagecolor="#ffffff"
     bordercolor="#666666"
     borderopacity="1.0"
     inkscape:pageopacity="0.0"
     inkscape:pageshadow="2"
     inkscape:zoom="4"
     inkscape:cx="34.96182"
     inkscape:cy="46.353305"
     inkscape:document-units="px"
     inkscape:current-layer="layer1"
     showgrid="true"
     fit-margin-top="0"
     fit-margin-left="0"
     fit-margin-right="0"
     fit-margin-bottom="0"
     inkscape:window-width="1920"
     inkscape:window-height="1018"
     inkscape:window-x="1912"
     inkscape:window-y="-8"
     inkscape:window-maximized="1">
    <inkscape:grid
       type="xygrid"
       id="grid3148"
       empspacing="5"
       visible="true"
       enabled="true"
       snapvisiblegridlinesonly="true"
       originx="-200px"
       originy="-799.98718px" />
  </sodipodi:namedview>
  <metadata
     id="metadata2999">
    <rdf:RDF>
      <cc:Work
         rdf:about="">
        <dc:format>image/svg+xml</dc:format>
        <dc:type
           rdf:resource="http://purl.org/dc/dcmitype/StillImage" />
        <dc:title />
      </cc:Work>
    </rdf:RDF>
  </metadata>
  <g
     inkscape:label="Layer 1"
     inkscape:groupmode="layer"
     id="layer1"
     transform="translate(-200,-209.375)">
    <g
       id="g13404"
       transform="matrix(0.43140798,0.51820857,0.51820857,-0.43140798,-60.754642,159.33948)"
       style="fill:#ffffff">
      <path
         inkscape:connector-curvature="0"
         id="path528"
         style="fill:#ffffff;fill-opacity:1;fill-rule:nonzero;stroke:none"
         d="m 351.276,262.873 c 0,5.328 -3.07,8.731 -7.027,11.894 -1.507,1.204 -4.571,3.364 -6.277,1.404 -1.913,-2.194 0.83,-4.074 2.465,-5.077 2.66,-1.634 4.441,-3.113 5.583,-5.997 0.48,-1.215 0.643,-2.651 2.145,-3.219 0.906,-0.345 3.181,-0.138 3.254,1.136" />
      <path
         inkscape:connector-curvature="0"
         id="path530"
         style="fill:#ffffff;fill-opacity:1;fill-rule:nonzero;stroke:none"
         d="m 354.736,258.355 c 0,-3.234 -2.622,-5.856 -5.859,-5.856 -3.235,0 -5.857,2.622 -5.857,5.856 0,3.236 2.622,5.858 5.857,5.858 3.237,0 5.859,-2.622 5.859,-5.858" />
      <path
         inkscape:connector-curvature="0"
         id="path532"
         style="fill:#ffffff;fill-opacity:1;fill-rule:nonzero;stroke:none"
         d="m 364.121,250.699 c 0,-2.632 -2.133,-4.764 -4.761,-4.764 -2.633,0 -4.768,2.132 -4.768,4.764 0,2.631 2.135,4.763 4.768,4.763 2.628,0 4.761,-2.132 4.761,-4.763" />
      <path
         inkscape:connector-curvature="0"
         id="path534"
         style="fill:#ffffff;fill-opacity:1;fill-rule:nonzero;stroke:none"
         d="m 351.843,247.277 c 0,-2.533 -2.054,-4.587 -4.588,-4.587 -2.533,0 -4.588,2.054 -4.588,4.587 0,2.534 2.055,4.586 4.588,4.586 2.534,0 4.588,-2.052 4.588,-4.586" />
      <path
         inkscape:connector-curvature="0"
         id="path536"
         style="fill:#ffffff;fill-opacity:1;fill-rule:nonzero;stroke:none"
         d="m 352.971,236.266 c 0,-2.609 -2.116,-4.727 -4.728,-4.727 -2.611,0 -4.728,2.118 -4.728,4.727 0,2.612 2.117,4.73 4.728,4.73 2.612,0 4.728,-2.118 4.728,-4.73" />
      <path
         inkscape:connector-curvature="0"
         id="path538"
         style="fill:#ffffff;fill-opacity:1;fill-rule:nonzero;stroke:none"
         d="m 341.609,250.91 c 0,-2.668 -2.165,-4.833 -4.834,-4.833 -2.67,0 -4.833,2.165 -4.833,4.833 0,2.67 2.163,4.835 4.833,4.835 2.669,0 4.834,-2.165 4.834,-4.835" />
      <path
         inkscape:connector-curvature="0"
         id="path540"
         style="fill:#ffffff;fill-opacity:1;fill-rule:nonzero;stroke:none"
         d="m 362.568,261.179 c 0,-2.105 -1.706,-3.81 -3.81,-3.81 -2.105,0 -3.811,1.705 -3.811,3.81 0,2.105 1.706,3.811 3.811,3.811 2.104,0 3.81,-1.706 3.81,-3.811" />
      <path
         inkscape:connector-curvature="0"
         id="path542"
         style="fill:#ffffff;fill-opacity:1;fill-rule:nonzero;stroke:none"
         d="m 359.604,241.701 c 0,-2.105 -1.705,-3.811 -3.811,-3.811 -2.101,0 -3.81,1.706 -3.81,3.811 0,2.105 1.709,3.811 3.81,3.811 2.106,0 3.811,-1.706 3.811,-3.811" />
      <path
         inkscape:connector-curvature="0"
         id="path544"
         style="fill:#ffffff;fill-opacity:1;fill-rule:nonzero;stroke:none"
         d="m 361.159,233.938 c 0,-2.105 -1.706,-3.812 -3.812,-3.812 -2.105,0 -3.811,1.707 -3.811,3.812 0,2.104 1.706,3.81 3.811,3.81 2.106,0 3.812,-1.706 3.812,-3.81" />
      <path
         inkscape:connector-curvature="0"
         id="path546"
         style="fill:#ffffff;fill-opacity:1;fill-rule:nonzero;stroke:none"
         d="m 343.486,232.301 c 0,-1.902 -1.543,-3.445 -3.444,-3.445 -1.902,0 -3.444,1.543 -3.444,3.445 0,1.901 1.542,3.441 3.444,3.441 1.901,0 3.444,-1.54 3.444,-3.441" />
      <path
         inkscape:connector-curvature="0"
         id="path548"
         style="fill:#ffffff;fill-opacity:1;fill-rule:nonzero;stroke:none"
         d="m 367.196,240.487 c 0,-1.903 -1.541,-3.444 -3.442,-3.444 -1.901,0 -3.444,1.541 -3.444,3.444 0,1.901 1.543,3.444 3.444,3.444 1.901,0 3.442,-1.543 3.442,-3.444" />
      <path
         inkscape:connector-curvature="0"
         id="path550"
         style="fill:#ffffff;fill-opacity:1;fill-rule:nonzero;stroke:none"
         d="m 352.095,227.502 c 0,-1.903 -1.544,-3.445 -3.444,-3.445 -1.901,0 -3.443,1.542 -3.443,3.445 0,1.9 1.542,3.443 3.443,3.443 1.9,0 3.444,-1.543 3.444,-3.443" />
      <path
         inkscape:connector-curvature="0"
         id="path552"
         style="fill:#ffffff;fill-opacity:1;fill-rule:nonzero;stroke:none"
         d="m 341.68,240.431 c 0,-2.105 -1.706,-3.811 -3.81,-3.811 -2.107,0 -3.812,1.706 -3.812,3.811 0,2.105 1.705,3.81 3.812,3.81 2.104,0 3.81,-1.705 3.81,-3.81" />
      <path
         inkscape:connector-curvature="0"
         id="path554"
         style="fill:#ffffff;fill-opacity:1;fill-rule:nonzero;stroke:none"
         d="m 342.951,259.909 c 0,-2.105 -1.708,-3.811 -3.813,-3.811 -2.102,0 -3.809,1.706 -3.809,3.811 0,2.104 1.707,3.811 3.809,3.811 2.105,0 3.813,-1.707 3.813,-3.811" />
      <path
         inkscape:connector-curvature="0"
         id="path556"
         style="fill:#ffffff;fill-opacity:1;fill-rule:nonzero;stroke:none"
         d="m 346.76,274.021 c 7.34,-7.196 15.808,-3.526 19.192,-0.741 -2.784,0.776 -3.183,2.988 -5.045,4.695 -1.819,1.664 -4.177,2.607 -6.636,2.54 -3.329,-0.088 -7.52,-2.891 -7.511,-6.494" />
    </g>
  </g>
</svg>
