<?xml version="1.0" encoding="UTF-8" standalone="no"?>
<!-- Created with Inkscape (http://www.inkscape.org/) -->

<svg
   xmlns:dc="http://purl.org/dc/elements/1.1/"
   xmlns:cc="http://creativecommons.org/ns#"
   xmlns:rdf="http://www.w3.org/1999/02/22-rdf-syntax-ns#"
   xmlns:svg="http://www.w3.org/2000/svg"
   xmlns="http://www.w3.org/2000/svg"
   xmlns:sodipodi="http://sodipodi.sourceforge.net/DTD/sodipodi-0.dtd"
   xmlns:inkscape="http://www.inkscape.org/namespaces/inkscape"
   viewBox="0 0 43 43"
   id="svg2994"
   version="1.1"
   inkscape:version="0.91 r13725"
   sodipodi:docname="crop.svg"
   inkscape:export-xdpi="25.799999"
   inkscape:export-ydpi="25.799999">
  <defs
     id="defs2996" />
  <sodipodi:namedview
     id="base"
     pagecolor="#ffffff"
     bordercolor="#666666"
     borderopacity="1.0"
     inkscape:pageopacity="0.0"
     inkscape:pageshadow="2"
     inkscape:zoom="4"
     inkscape:cx="72.33682"
     inkscape:cy="46.353305"
     inkscape:document-units="px"
     inkscape:current-layer="layer1"
     showgrid="true"
     fit-margin-top="0"
     fit-margin-left="0"
     fit-margin-right="0"
     fit-margin-bottom="0"
     inkscape:window-width="1920"
     inkscape:window-height="1018"
     inkscape:window-x="-8"
     inkscape:window-y="-8"
     inkscape:window-maximized="1">
    <inkscape:grid
       type="xygrid"
       id="grid3148"
       empspacing="5"
       visible="true"
       enabled="true"
       snapvisiblegridlinesonly="true"
       originx="-200px"
       originy="-799.98718px" />
  </sodipodi:namedview>
  <metadata
     id="metadata2999">
    <rdf:RDF>
      <cc:Work
         rdf:about="">
        <dc:format>image/svg+xml</dc:format>
        <dc:type
           rdf:resource="http://purl.org/dc/dcmitype/StillImage" />
        <dc:title></dc:title>
      </cc:Work>
    </rdf:RDF>
  </metadata>
  <g
     inkscape:label="Layer 1"
     inkscape:groupmode="layer"
     id="layer1"
     transform="translate(-200,-209.375)">
    <path
       style="fill:#ffffff;fill-opacity:1;fill-rule:nonzero;stroke:none"
       d="m 226.08973,215.73972 -0.6159,0.34811 0.72301,1.27644 c -0.0173,0.0168 -0.0275,0.0275 -0.0446,0.0446 l -5.03432,5.03432 -0.9551,-1.66025 -0.60697,0.35704 1.03543,1.812 0.0357,-0.0179 -6.44465,6.44465 -1.11576,-2.1869 3.68648,-3.68648 c 1.18224,-1.18226 1.19118,-3.08442 0.009,-4.26668 -0.1879,-0.1879 -0.39715,-0.3541 -0.61591,-0.48201 l 1.05328,-1.04435 -0.50878,-0.49987 -1.24966,1.24966 c -1.0147,-0.28021 -2.15489,-0.0231 -2.95454,0.77657 l -2.74032,2.74924 -0.81227,-1.41032 -0.62483,0.35704 0.91046,1.57992 -1.97267,1.96375 c -0.0634,0.0634 -0.11301,0.13801 -0.16959,0.2053 -0.0575,0.0683 -0.11021,0.13334 -0.16067,0.2053 -0.007,0.01 -0.0202,0.0169 -0.0268,0.0268 -0.009,0.0127 -0.0183,0.0229 -0.0268,0.0357 -0.0986,0.149 -0.18057,0.30376 -0.24993,0.46416 -0.0246,0.057 -0.0505,0.12046 -0.0714,0.17852 -0.0196,0.0538 -0.0281,0.10586 -0.0446,0.16067 -0.0284,0.0942 -0.0523,0.18894 -0.0714,0.28563 -0.0174,0.088 -0.0262,0.16937 -0.0357,0.25886 -0.004,0.0379 -0.0153,0.078 -0.0179,0.11604 -0.003,0.0433 -0.008,0.0904 -0.009,0.13389 -5.7e-4,0.0209 0,0.0416 0,0.0625 -2.9e-4,0.0978 0.009,0.19641 0.0178,0.29456 0.009,0.0908 0.01,0.17725 0.0268,0.26778 0.005,0.0261 0.0212,0.0543 0.0268,0.0803 0.0157,0.0734 0.041,0.14136 0.0625,0.21422 0.0239,0.0813 0.0403,0.16084 0.0714,0.24101 0.0176,0.0449 0.0337,0.0897 0.0536,0.13389 0.0228,0.0515 0.0455,0.10988 0.0714,0.16067 l 0.0179,0.009 0.0178,0.0357 -1.33892,0.43738 0.17852,0.54449 1.41926,-0.46416 2.69568,5.30211 -0.83013,0.83906 -0.8212,-1.6067 -0.63375,0.33026 0.92831,1.80308 -2.98132,2.98132 c -1.78808,1.78809 -1.79702,4.66548 -0.009,6.45357 1.78809,1.78809 4.67441,1.78809 6.4625,0 l 0.30349,-0.29456 0.84798,1.16932 0.68731,-0.49986 -0.92832,-1.28536 4.32916,-4.32916 2.0173,1.36569 0.43738,-0.6516 -1.89233,-1.27644 3.55259,-3.55259 1.41925,0.85691 -0.49093,0.49093 0.53556,0.53557 0.62483,-0.62483 2.77602,1.66026 -1.78522,2.55287 0.50879,0.36597 1.82092,-2.58858 1.26751,0.75872 c 0.0493,0.0296 0.0927,0.0537 0.14282,0.0803 0.0144,0.008 0.0302,0.0194 0.0446,0.0268 0.0833,0.0426 0.16471,0.0726 0.24993,0.10712 0.003,0.001 0.006,0.008 0.009,0.009 0.003,0.001 0.006,0.008 0.009,0.009 0.0776,0.031 0.15328,0.047 0.23208,0.0714 0.029,0.009 0.0601,0.0187 0.0893,0.0268 0.0317,0.009 0.0663,0.0279 0.0982,0.0357 0.0522,0.0128 0.10819,0.0167 0.16067,0.0268 0.0989,0.0189 0.19516,0.0353 0.29456,0.0446 0.05,0.005 0.10155,0.007 0.15174,0.009 0.0507,0.002 0.10113,2.1e-4 0.15175,0 0.10028,-2.8e-4 0.19517,-0.008 0.29456,-0.0179 0.0497,-0.005 0.10223,-0.002 0.15174,-0.009 0.0678,-0.0101 0.1384,-0.0212 0.2053,-0.0357 0.0317,-0.007 0.0577,-0.0101 0.0893,-0.0179 0.0488,-0.0122 0.0946,-0.0301 0.14282,-0.0446 0.0479,-0.0144 0.10442,-0.0279 0.15175,-0.0446 0.0697,-0.0247 0.12842,-0.0597 0.19637,-0.0893 0.0245,-0.0106 0.0561,-0.0155 0.0803,-0.0268 0.0142,-0.007 0.0305,-0.011 0.0446,-0.0179 0.0696,-0.0337 0.12881,-0.077 0.19637,-0.11603 0.008,-0.005 0.0188,-0.004 0.0268,-0.009 0.0554,-0.0327 0.10717,-0.0709 0.16067,-0.10711 0.0791,-0.0536 0.15757,-0.10848 0.23208,-0.1696 0.0819,-0.0671 0.16544,-0.14706 0.24101,-0.22315 0.0294,-0.0296 0.0609,-0.0495 0.0893,-0.0803 l 1.21395,-1.21395 1.12469,1.50851 0.55342,-0.41953 -1.18717,-1.57992 3.34729,-3.35622 0.99079,0.7498 0.42846,-0.5802 -0.90154,-0.67839 0.73196,-0.74082 c 1.2336,-1.2336 1.24396,-3.21016 0.0179,-4.43628 -1.22612,-1.22611 -3.20268,-1.21575 -4.43628,0.0179 l -4.65943,4.6505 -3.2491,-1.94589 4.04353,-4.04353 1.95482,0.64268 0.2053,-0.64268 -1.63348,-0.52664 2.29401,-2.29401 c 0.39678,-0.39678 0.69918,-0.84948 0.91939,-1.32999 l 2.41005,-0.0803 -0.0268,-0.66945 -2.13334,0.0714 c 0.42725,-1.53438 0.0326,-3.24325 -1.17824,-4.45413 -1.59529,-1.59529 -4.05593,-1.76003 -5.83768,-0.50879 l -0.66947,-1.16039 z"
       id="rect2984"
       inkscape:connector-curvature="0" />
  </g>
</svg>
