<?xml version="1.0" encoding="UTF-8" standalone="no"?>
<!--
  ~ Germinate 3 is written and developed by Sebastian Raubach and Paul Shaw from the Information and Computational Sciences Group at JHI Dundee. For
  ~ further information contact us at germinate@hutton.ac.uk or visit our webpages at https://ics.hutton.ac.uk/germinate
  ~
  ~ Copyright © 2005-2017, Information & Computational Sciences, The James Hutton Institute. All rights reserved. Use is subject to the accompanying
  ~ licence terms.
  -->

<!-- Created with Inkscape (http://www.inkscape.org/) -->

<svg
   viewBox="0 0 43 43"
   id="svg2994"
   version="1.1"
   inkscape:version="1.1.1 (3bf5ae0d25, 2021-09-20)"
   sodipodi:docname="carrot.svg"
   inkscape:export-xdpi="25.799999"
   inkscape:export-ydpi="25.799999"
   xmlns:inkscape="http://www.inkscape.org/namespaces/inkscape"
   xmlns:sodipodi="http://sodipodi.sourceforge.net/DTD/sodipodi-0.dtd"
   xmlns="http://www.w3.org/2000/svg"
   xmlns:svg="http://www.w3.org/2000/svg"
   xmlns:rdf="http://www.w3.org/1999/02/22-rdf-syntax-ns#"
   xmlns:cc="http://creativecommons.org/ns#"
   xmlns:dc="http://purl.org/dc/elements/1.1/">
  <defs
     id="defs2996" />
  <sodipodi:namedview
     id="base"
     pagecolor="#ffffff"
     bordercolor="#666666"
     borderopacity="1.0"
     inkscape:pageopacity="0.0"
     inkscape:pageshadow="2"
     inkscape:zoom="4"
     inkscape:cx="-30.875"
     inkscape:cy="56.25"
     inkscape:document-units="px"
     inkscape:current-layer="layer1"
     showgrid="true"
     fit-margin-top="0"
     fit-margin-left="0"
     fit-margin-right="0"
     fit-margin-bottom="0"
     inkscape:window-width="1718"
     inkscape:window-height="1368"
     inkscape:window-x="-7"
     inkscape:window-y="0"
     inkscape:window-maximized="0"
     inkscape:pagecheckerboard="0">
    <inkscape:grid
       type="xygrid"
       id="grid3148"
       empspacing="5"
       visible="true"
       enabled="true"
       snapvisiblegridlinesonly="true"
       originx="-200"
       originy="-799.98718"
       spacingx="1"
       spacingy="1" />
  </sodipodi:namedview>
  <metadata
     id="metadata2999">
    <rdf:RDF>
      <cc:Work
         rdf:about="">
        <dc:format>image/svg+xml</dc:format>
        <dc:type
           rdf:resource="http://purl.org/dc/dcmitype/StillImage" />
      </cc:Work>
    </rdf:RDF>
  </metadata>
  <g
     inkscape:label="Layer 1"
     inkscape:groupmode="layer"
     id="layer1"
     transform="translate(-200,-209.375)">
    <g
       transform="translate(615,-148.925)"
       id="apple"
       style="fill:#ffffff" />
    <g
       transform="translate(615,-148.925)"
       id="barley"
       style="fill:#ffffff" />
    <g
       transform="translate(615,-148.925)"
       id="carrot"
       style="fill:#ffffff" />
    <g
       transform="translate(615,-148.925)"
       id="eggplant-2"
       style="fill:#ffffff" />
    <g
       transform="translate(615,-148.925)"
       id="pea"
       style="fill:#ffffff" />
    <g
       transform="translate(615,-148.925)"
       id="sunflower"
       style="fill:#ffffff" />
    <g
       transform="translate(615,-148.925)"
       id="patato"
       style="fill:#ffffff" />
    <g
       transform="translate(615,-148.925)"
       id="chickpea"
       style="fill:#ffffff" />
    <g
       transform="translate(615,-148.925)"
       id="faba_bean"
       style="fill:#ffffff" />
    <g
       transform="translate(615,-148.925)"
       id="lentil"
       style="fill:#ffffff" />
    <g
       transform="translate(615,-148.925)"
       id="bean"
       style="fill:#ffffff" />
    <g
       transform="translate(615,-148.925)"
       id="rice"
       style="fill:#ffffff" />
    <g
       transform="translate(615,-148.925)"
       id="pearl_millet"
       style="fill:#ffffff" />
    <g
       transform="translate(615,-148.925)"
       id="pigeon_pea"
       style="fill:#ffffff" />
    <g
       transform="translate(615,-148.925)"
       id="grasspea"
       style="fill:#ffffff" />
    <g
       transform="translate(615,-148.925)"
       id="cowpea"
       style="fill:#ffffff" />
    <g
       transform="translate(615,-148.925)"
       id="bambara"
       style="fill:#ffffff" />
    <g
       transform="translate(615,-148.925)"
       id="vetch"
       style="fill:#ffffff" />
    <g
       transform="translate(615,-148.925)"
       id="wheat"
       style="fill:#ffffff" />
    <g
       transform="translate(615,-148.925)"
       id="banana"
       style="fill:#ffffff" />
    <g
       transform="translate(615,-148.925)"
       id="rye"
       style="fill:#ffffff" />
    <g
       transform="translate(615,-148.925)"
       id="alfalfa"
       style="fill:#ffffff" />
    <g
       transform="translate(615,-148.925)"
       id="finger_millet"
       style="fill:#ffffff" />
    <g
       transform="translate(615,-148.925)"
       id="sweet_patato"
       style="fill:#ffffff" />
    <g
       transform="translate(615,-148.925)"
       id="oat"
       style="fill:#ffffff" />
    <g
       id="g943"
       transform="matrix(0.52556926,0,0,0.52556926,380.79509,75.457451)"
       style="fill:#ffffff;fill-opacity:1">
      <g
         id="apple-9"
         style="fill:#ffffff;fill-opacity:1" />
      <g
         id="barley-4"
         style="fill:#ffffff;fill-opacity:1" />
      <g
         id="carrot-2"
         style="fill:#ffffff;fill-opacity:1">
        <path
           fill="#3c3936"
           d="m -270.7,278.4 c -1.1,0 -2.1,0.1 -3.2,0.1 l 1.1,-1.4 c 0.3,-0.4 0.3,-1.1 -0.2,-1.4 -0.4,-0.3 -1.1,-0.3 -1.4,0.2 l -2.3,2.9 c -1,0.1 -2,0.3 -3,0.5 l 1.3,-2.2 c 0.3,-0.5 0.1,-1.1 -0.3,-1.4 -0.5,-0.3 -1.1,-0.1 -1.4,0.3 l -2.3,3.9 c -1,0.3 -1.9,0.6 -2.8,0.9 l 1.2,-1.8 c 0.3,-0.5 0.2,-1.1 -0.3,-1.4 -0.5,-0.3 -1.1,-0.2 -1.4,0.3 l -2.6,4.1 v 0.1 c -4.5,2 -8.1,4.4 -10.6,6.4 1.1,-1.9 2.5,-4.1 4.2,-6.5 l 3.8,-0.4 c 0.5,-0.1 0.9,-0.6 0.9,-1.1 -0.1,-0.6 -0.6,-0.9 -1.1,-0.9 l -1.9,0.2 c 0.7,-0.9 1.5,-1.8 2.3,-2.7 l 2.7,1.1 c 0.1,0 0.2,0.1 0.4,0.1 0.4,0 0.8,-0.2 0.9,-0.6 0.2,-0.5 0,-1.1 -0.6,-1.3 l -1.9,-0.8 c 1,-1 2,-1.9 3.1,-2.8 l 2.8,0.6 c 0.1,0 0.1,0 0.2,0 0.5,0 0.9,-0.3 1,-0.8 0.1,-0.5 -0.2,-1.1 -0.8,-1.2 l -1.1,-0.2 c 1,-0.7 2,-1.3 3.1,-1.9 0.5,-0.2 0.7,-0.8 0.4,-1.3 -0.2,-0.5 -0.9,-0.7 -1.3,-0.4 -1.3,0.6 -2.5,1.4 -3.7,2.3 l 0.2,-1.3 c 0.1,-0.5 -0.3,-1 -0.9,-1.1 -0.6,-0.1 -1,0.3 -1.1,0.9 l -0.4,3.2 c -0.9,0.8 -1.8,1.6 -2.7,2.4 l -0.3,-1.9 c -0.1,-0.5 -0.6,-0.9 -1.2,-0.8 -0.5,0.1 -0.9,0.6 -0.8,1.2 l 0.6,3.4 c -0.7,0.8 -1.4,1.6 -2,2.3 v -1.8 c 0,-0.6 -0.4,-1 -1,-1 v 0 c -0.5,0 -1,0.4 -1,1 l -0.1,4.5 c -1.3,1.8 -2.4,3.5 -3.4,5 0,-0.6 0,-1.1 0,-1.7 -0.1,-1.1 -0.4,-2.3 -0.7,-3.4 l 1.8,-3.8 c 0.2,-0.5 0,-1.1 -0.5,-1.3 -0.5,-0.2 -1.1,0 -1.3,0.5 l -1,2.2 c -0.7,-1.4 -1.5,-2.7 -2.5,-3.9 l 0.8,-3.1 c 0.1,-0.5 -0.2,-1.1 -0.7,-1.2 -0.5,-0.1 -1.1,0.2 -1.2,0.7 l -0.4,1.6 c -1,-1.1 -1.9,-2.1 -2.9,-3 l -0.2,-2.9 c 0,-0.5 -0.4,-1 -1.1,-0.9 -0.6,0 -1,0.5 -0.9,1.1 v 0.8 c -1.5,-1.3 -2.6,-2.1 -2.7,-2.2 -0.4,-0.3 -1.1,-0.2 -1.4,0.2 -0.3,0.4 -0.2,1.1 0.2,1.4 0,0 1.1,0.8 2.5,2 h -1.1 c -0.6,0 -1,0.5 -1,1 0,0.5 0.5,1 1,1 v 0 h 3.2 c 0.8,0.8 1.7,1.7 2.6,2.7 l -1.6,0.1 c -0.6,0 -1,0.5 -0.9,1.1 0,0.5 0.5,0.9 1,0.9 h 0.1 l 3,-0.2 c 0.4,0.6 0.9,1.2 1.3,1.8 l -0.8,-0.3 c -0.5,-0.3 -1.1,-0.2 -1.4,0.3 -0.3,0.5 -0.2,1.1 0.3,1.4 l 3.5,2.2 c 0.4,1.1 0.7,2.3 0.8,3.4 0.2,2.8 -0.7,5.4 -2.9,7.6 -2.5,-1.4 -5.8,-1 -7.9,1 -2.2,2.2 -22.7,30.4 -23.6,31.6 -0.3,0.4 -0.2,0.9 0.1,1.3 0.2,0.2 0.4,0.3 0.7,0.3 0.2,0 0.4,-0.1 0.6,-0.2 1.2,-0.9 29.3,-21.4 31.6,-23.6 1.3,-1.3 1.9,-2.9 1.9,-4.7 0,-1.3 -0.4,-2.5 -1.1,-3.6 h 0.1 c 4.2,-1.3 7.4,-1 9.5,0.9 0.6,0.5 1,1.1 1.4,1.7 l -1.8,1.9 c -0.4,0.4 -0.4,1 0,1.4 0.2,0.2 0.4,0.3 0.7,0.3 0.3,0 0.5,-0.1 0.7,-0.3 l 1.2,-1.3 c 0.4,1.1 0.6,2.3 0.7,3.5 0,0 0,0 -0.1,0 v 0 0 l -2.3,2.7 c -0.3,0.4 -0.3,1.1 0.1,1.4 0.2,0.2 0.4,0.2 0.6,0.2 0.3,0 0.6,-0.1 0.8,-0.4 l 0.9,-1.1 c 0.2,2.3 -0.1,3.7 -0.1,3.8 -0.1,0.5 0.3,1.1 0.8,1.2 0.1,0 0.1,0 0.2,0 0.5,0 0.9,-0.3 1,-0.8 0,-0.2 0.3,-1.5 0.3,-3.4 l 0.4,0.4 c 0.3,0.1 0.5,0.1 0.7,0.1 0.3,0 0.5,-0.1 0.7,-0.3 0.4,-0.4 0.3,-1 -0.1,-1.4 l -1.8,-1.6 c -0.1,-1.4 -0.3,-2.9 -0.7,-4.4 l 1.3,0.6 c 0.5,0.2 1.1,0 1.3,-0.5 0.2,-0.5 0,-1.1 -0.5,-1.3 l -3.2,-1.5 h -0.1 c -0.5,-0.8 -1.1,-1.6 -1.8,-2.3 -2,-1.8 -4.7,-2.4 -8,-2 2.5,-2.1 6.7,-5.2 12.2,-7.6 l 3.1,1.5 c 0.1,0.1 0.3,0.1 0.4,0.1 0.4,0 0.7,-0.2 0.9,-0.6 0.2,-0.5 0,-1.1 -0.5,-1.3 l -1.4,-0.7 c 0.9,-0.3 1.9,-0.7 2.9,-0.9 l 2.9,2.9 c 0.2,0.2 0.5,0.3 0.7,0.3 0.3,0 0.5,-0.1 0.7,-0.3 0.4,-0.4 0.4,-1 0,-1.4 l -2.1,-2.1 c 1,-0.2 2,-0.4 3.1,-0.6 l 2.6,2.4 c 0.2,0.2 0.5,0.3 0.7,0.3 0.2,0 0.5,-0.1 0.7,-0.3 0.4,-0.4 0.4,-1 0,-1.4 l -1.4,-1.4 c 1,-0.1 2.1,-0.1 3.2,-0.1 0.6,0 1,-0.4 1,-1 0,-0.6 -0.4,-1 -0.9,-1 z m -33.8,22.7 c -0.7,0.7 -4.2,3.4 -8.8,6.8 l -1,-1 c -0.4,-0.4 -1,-0.4 -1.4,0 -0.4,0.4 -0.4,1 0,1.4 l 0.8,0.8 c -4.9,3.7 -10.7,7.9 -15.7,11.6 1.9,-2.5 3.9,-5.3 5.9,-8 l 0.8,0.8 c 0.2,0.2 0.5,0.3 0.7,0.3 0.2,0 0.5,-0.1 0.7,-0.3 0.4,-0.4 0.4,-1 0,-1.4 l -1,-1 c 2.9,-3.9 5.7,-7.7 7.9,-10.7 l 0.4,0.4 c 0.2,0.2 0.5,0.3 0.7,0.3 0.2,0 0.5,-0.1 0.7,-0.3 0.4,-0.4 0.4,-1 0,-1.4 l -0.6,-0.6 c 0.2,-0.3 0.4,-0.5 0.6,-0.8 l 2,2 c 0.2,0.2 0.5,0.3 0.7,0.3 0.2,0 0.5,-0.1 0.7,-0.3 0.4,-0.4 0.4,-1 0,-1.4 l -2.2,-2.2 c 0.7,-0.9 1.3,-1.6 1.5,-1.8 0.9,-0.9 2,-1.4 3.3,-1.4 1.3,0 2.4,0.5 3.3,1.4 0.9,0.9 1.4,2 1.4,3.3 0,1.3 -0.6,2.3 -1.4,3.2 z"
           id="path885"
           style="fill:#ffffff;fill-opacity:1" />
      </g>
      <g
         id="eggplant"
         style="fill:#ffffff;fill-opacity:1" />
      <g
         id="pea-5"
         style="fill:#ffffff;fill-opacity:1" />
      <g
         id="sunflower-5"
         style="fill:#ffffff;fill-opacity:1" />
      <g
         id="patato-1"
         style="fill:#ffffff;fill-opacity:1" />
      <g
         id="chickpea-0"
         style="fill:#ffffff;fill-opacity:1" />
      <g
         id="faba_bean-0"
         style="fill:#ffffff;fill-opacity:1" />
      <g
         id="lentil-6"
         style="fill:#ffffff;fill-opacity:1" />
      <g
         id="bean-6"
         style="fill:#ffffff;fill-opacity:1" />
      <g
         id="rice-3"
         style="fill:#ffffff;fill-opacity:1" />
      <g
         id="sorghum"
         style="fill:#ffffff;fill-opacity:1" />
      <g
         id="pearl_millet-7"
         style="fill:#ffffff;fill-opacity:1" />
      <g
         id="pigeon_pea-7"
         style="fill:#ffffff;fill-opacity:1" />
      <g
         id="grasspea-4"
         style="fill:#ffffff;fill-opacity:1" />
      <g
         id="cowpea-4"
         style="fill:#ffffff;fill-opacity:1" />
      <g
         id="bambara-5"
         style="fill:#ffffff;fill-opacity:1" />
      <g
         id="vetch-3"
         style="fill:#ffffff;fill-opacity:1" />
      <g
         id="wheat-9"
         style="fill:#ffffff;fill-opacity:1" />
      <g
         id="banana-6"
         style="fill:#ffffff;fill-opacity:1" />
      <g
         id="rye-3"
         style="fill:#ffffff;fill-opacity:1" />
      <g
         id="alfalfa-1"
         style="fill:#ffffff;fill-opacity:1" />
      <g
         id="finger_millet-0"
         style="fill:#ffffff;fill-opacity:1" />
      <g
         id="sweet_patato-5"
         style="fill:#ffffff;fill-opacity:1" />
      <g
         id="oat-7"
         style="fill:#ffffff;fill-opacity:1" />
    </g>
  </g>
</svg>
