<?xml version="1.0" encoding="UTF-8" standalone="no"?>
<!--
  ~ Germinate 3 is written and developed by Sebastian Raubach and Paul Shaw from the Information and Computational Sciences Group at JHI Dundee. For
  ~ further information contact us at germinate@hutton.ac.uk or visit our webpages at https://ics.hutton.ac.uk/germinate
  ~
  ~ Copyright © 2005-2017, Information & Computational Sciences, The James Hutton Institute. All rights reserved. Use is subject to the accompanying
  ~ licence terms.
  -->

<!-- Created with Inkscape (http://www.inkscape.org/) -->

<svg
   xmlns:dc="http://purl.org/dc/elements/1.1/"
   xmlns:cc="http://creativecommons.org/ns#"
   xmlns:rdf="http://www.w3.org/1999/02/22-rdf-syntax-ns#"
   xmlns:svg="http://www.w3.org/2000/svg"
   xmlns="http://www.w3.org/2000/svg"
   xmlns:sodipodi="http://sodipodi.sourceforge.net/DTD/sodipodi-0.dtd"
   xmlns:inkscape="http://www.inkscape.org/namespaces/inkscape"
   viewBox="0 0 43 43"
   id="svg2994"
   version="1.1"
   inkscape:version="0.92.1 r15371"
   sodipodi:docname="chickpea.svg"
   inkscape:export-xdpi="25.799999"
   inkscape:export-ydpi="25.799999">
  <defs
     id="defs2996" />
  <sodipodi:namedview
     id="base"
     pagecolor="#ffffff"
     bordercolor="#666666"
     borderopacity="1.0"
     inkscape:pageopacity="0.0"
     inkscape:pageshadow="2"
     inkscape:zoom="4"
     inkscape:cx="-30.78818"
     inkscape:cy="56.353305"
     inkscape:document-units="px"
     inkscape:current-layer="layer1"
     showgrid="true"
     fit-margin-top="0"
     fit-margin-left="0"
     fit-margin-right="0"
     fit-margin-bottom="0"
     inkscape:window-width="1920"
     inkscape:window-height="1017"
     inkscape:window-x="-8"
     inkscape:window-y="-8"
     inkscape:window-maximized="1">
    <inkscape:grid
       type="xygrid"
       id="grid3148"
       empspacing="5"
       visible="true"
       enabled="true"
       snapvisiblegridlinesonly="true"
       originx="-200"
       originy="-799.98718"
       spacingx="1"
       spacingy="1" />
  </sodipodi:namedview>
  <metadata
     id="metadata2999">
    <rdf:RDF>
      <cc:Work
         rdf:about="">
        <dc:format>image/svg+xml</dc:format>
        <dc:type
           rdf:resource="http://purl.org/dc/dcmitype/StillImage" />
        <dc:title />
      </cc:Work>
    </rdf:RDF>
  </metadata>
  <g
     inkscape:label="Layer 1"
     inkscape:groupmode="layer"
     id="layer1"
     transform="translate(-200,-209.375)">
    <g
       id="g4715"
       transform="matrix(0.60795204,0,0,0.60795204,90.638299,138.69427)">
      <path
         d="m 205.60131,138.04102 c 0,0 27.72462,9.63796 33.54332,41.35745"
         style="fill:none;stroke:#ffffff;stroke-width:1.99543846;stroke-linecap:round;stroke-linejoin:round;stroke-miterlimit:10;stroke-dasharray:none;stroke-opacity:1"
         id="path10106"
         inkscape:connector-curvature="0" />
      <path
         d="m 209.17235,139.43722 2.624,-11.39994"
         style="fill:none;stroke:#ffffff;stroke-width:1.99543846;stroke-linecap:round;stroke-linejoin:miter;stroke-miterlimit:10;stroke-dasharray:none;stroke-opacity:1"
         id="path10110"
         inkscape:connector-curvature="0" />
      <path
         d="m 214.23198,129.80784 c 0,0 0.002,0.0199 0.002,0.0199 l -0.002,-0.0259 c 0.008,-0.33922 0.004,-0.67645 -0.016,-1.01169 0.0359,-0.20752 0.0958,-0.44099 0.19156,-0.69241 l -0.24943,0.1297 c -0.024,-0.21152 -0.0479,-0.42503 -0.0838,-0.63455 -0.002,-0.22748 0.016,-0.63655 0.11574,-1.29105 l -0.32726,0.27338 0.008,0.0519 c -0.10776,-0.42304 -0.24544,-0.83809 -0.40109,-1.24316 0.0259,-0.20553 0.0659,-0.49886 0.0978,-0.64054 l -0.32725,0.0519 v 0 c -0.14367,-0.32525 -0.30131,-0.64452 -0.47492,-0.95781 -0.28934,0.20354 -0.5687,0.41905 -0.83808,0.64653 l -0.2634,-0.18558 c -0.0259,0.11174 -0.0579,0.31927 -0.0838,0.50285 -0.34521,0.31728 -0.67845,0.65051 -0.98574,1.00969 l -0.17161,-0.38113 c -0.19356,0.62258 -0.40707,1.0536 -0.55074,1.30502 -0.0878,0.12771 -0.16762,0.2634 -0.25143,0.3951 l -0.12771,-0.16961 c -0.016,0.18956 -0.0479,0.35718 -0.0858,0.51482 -0.58466,0.99173 -1.03763,2.08124 -1.30901,3.26254 -0.67046,2.91534 -0.16961,5.82069 1.17931,8.24515 2.2728,-1.59036 3.99486,-3.98289 4.66533,-6.89823 0.1756,-0.76226 0.26739,-1.52451 0.28934,-2.2748 z"
         style="fill:none;stroke:#ffffff;stroke-width:1.99543846;stroke-linecap:round;stroke-linejoin:round;stroke-miterlimit:10;stroke-dasharray:none;stroke-opacity:1"
         id="path10114"
         inkscape:connector-curvature="0" />
      <path
         d="m 209.32141,139.76567 -8.69014,7.8301"
         style="fill:none;stroke:#ffffff;stroke-width:1.99543846;stroke-linecap:round;stroke-linejoin:miter;stroke-miterlimit:10;stroke-dasharray:none;stroke-opacity:1"
         id="path10118"
         inkscape:connector-curvature="0" />
      <path
         d="m 199.65211,144.74928 0.004,-0.0199 -0.012,0.0239 c -0.20154,0.27338 -0.3931,0.55074 -0.5687,0.83609 -0.14766,0.14966 -0.32925,0.3073 -0.55274,0.45895 l 0.27936,0.0359 c -0.10376,0.18757 -0.20553,0.37514 -0.29732,0.5687 -0.12771,0.18557 -0.37714,0.51283 -0.83409,0.98974 l 0.42503,-0.0359 0.0219,-0.0479 c -0.15365,0.41106 -0.27936,0.8281 -0.38512,1.25114 -0.13769,0.15165 -0.33923,0.36915 -0.44898,0.46493 l 0.30132,0.14767 h 0.002 c -0.0678,0.3492 -0.12372,0.70239 -0.15963,1.05758 0.35319,0 0.70439,-0.0199 1.05758,-0.0479 l 0.10775,0.30131 c 0.0858,-0.0758 0.23147,-0.22748 0.35719,-0.36317 0.46693,-0.0599 0.92987,-0.14367 1.38683,-0.2614 l -0.0778,0.41305 c 0.51483,-0.40108 0.93786,-0.63055 1.19926,-0.75627 0.14766,-0.0539 0.28934,-0.11773 0.43501,-0.17759 l 0.004,0.21152 c 0.12372,-0.14767 0.24743,-0.2654 0.36915,-0.37116 1.04561,-0.47691 2.04134,-1.10946 2.94128,-1.9216 2.22292,-2.00342 3.48005,-4.67133 3.76539,-7.42902 -2.77366,0 -5.55729,0.96978 -7.78021,2.97121 -0.58067,0.5248 -1.09151,1.09549 -1.54048,1.69811 z"
         style="fill:none;stroke:#ffffff;stroke-width:1.99543846;stroke-linecap:round;stroke-linejoin:round;stroke-miterlimit:10;stroke-dasharray:none;stroke-opacity:1"
         id="path10122"
         inkscape:connector-curvature="0" />
      <path
         d="m 217.60028,145.14597 3.4122,-11.18842"
         style="fill:none;stroke:#ffffff;stroke-width:1.99543846;stroke-linecap:round;stroke-linejoin:miter;stroke-miterlimit:10;stroke-dasharray:none;stroke-opacity:1"
         id="path10126"
         inkscape:connector-curvature="0" />
      <path
         d="m 223.31761,135.89073 c 0,0 0.002,0.02 0.002,0.02 l -0.002,-0.0239 c 0.0339,-0.33922 0.0519,-0.67645 0.0559,-1.01169 0.0499,-0.20553 0.12372,-0.43301 0.23746,-0.67845 l -0.25542,0.11374 c -0.01,-0.21351 -0.02,-0.42702 -0.0399,-0.63854 0.014,-0.22548 0.0599,-0.63654 0.20553,-1.27907 l -0.34721,0.24943 0.006,0.0519 c -0.0798,-0.43102 -0.18758,-0.85205 -0.31528,-1.2691 0.0399,-0.20154 0.10176,-0.49287 0.14367,-0.63255 l -0.33124,0.0299 v 0 c -0.11973,-0.33324 -0.25542,-0.66448 -0.40707,-0.98775 -0.30331,0.18159 -0.59664,0.37714 -0.88199,0.58467 l -0.24943,-0.20154 c -0.0339,0.10975 -0.0798,0.31328 -0.11773,0.49487 -0.36716,0.29133 -0.72235,0.60262 -1.05359,0.93985 l -0.14367,-0.3951 c -0.23746,0.60861 -0.4809,1.02566 -0.64054,1.26711 -0.0978,0.12172 -0.18757,0.24943 -0.27936,0.37514 l -0.11573,-0.1776 c -0.0279,0.18758 -0.0738,0.3532 -0.12372,0.50685 -0.65051,0.94783 -1.17531,2.00342 -1.5305,3.16277 -0.87201,2.86345 -0.57469,5.79674 0.60262,8.309 2.37856,-1.42873 4.26226,-3.69555 5.13426,-6.559 0.22948,-0.74829 0.37315,-1.50057 0.44698,-2.24886 z"
         style="fill:none;stroke:#ffffff;stroke-width:1.99543846;stroke-linecap:round;stroke-linejoin:round;stroke-miterlimit:10;stroke-dasharray:none;stroke-opacity:1"
         id="path10130"
         inkscape:connector-curvature="0" />
      <path
         d="m 217.72599,145.484 -9.21493,7.20553"
         style="fill:none;stroke:#ffffff;stroke-width:1.99543846;stroke-linecap:round;stroke-linejoin:miter;stroke-miterlimit:10;stroke-dasharray:none;stroke-opacity:1"
         id="path10134"
         inkscape:connector-curvature="0" />
      <path
         d="m 207.73324,149.78277 c 0.002,0 0.006,-0.0199 0.006,-0.0199 l -0.014,0.022 c -0.22149,0.25941 -0.43101,0.5228 -0.62457,0.79618 -0.15764,0.13968 -0.35119,0.28335 -0.58466,0.41904 l 0.27537,0.0559 c -0.11574,0.17959 -0.22948,0.35918 -0.33523,0.54476 -0.13968,0.17759 -0.41306,0.48689 -0.89995,0.92987 h 0.42703 l 0.0239,-0.0459 c -0.18358,0.39909 -0.33523,0.80615 -0.47092,1.21921 -0.14766,0.14367 -0.36517,0.34721 -0.47891,0.437 l 0.28735,0.16562 h 0.004 c -0.0938,0.34521 -0.17161,0.69242 -0.23347,1.04362 0.3512,0.0239 0.70439,0.0339 1.05758,0.0259 l 0.0878,0.30929 c 0.0918,-0.0718 0.24744,-0.21152 0.38113,-0.33723 0.46893,-0.0299 0.93786,-0.0798 1.4028,-0.16362 l -0.10776,0.40307 c 0.54276,-0.36117 0.97976,-0.56271 1.25114,-0.66847 0.14966,-0.0439 0.29533,-0.0998 0.44299,-0.14766 l -0.008,0.21152 c 0.1317,-0.13769 0.26339,-0.24744 0.3931,-0.34521 1.07554,-0.40308 2.11317,-0.9658 3.06898,-1.71209 2.35662,-1.84379 3.79533,-4.4179 4.27224,-7.14966 -2.76568,-0.19355 -5.61118,0.58068 -7.96779,2.42446 -0.61659,0.4809 -1.16534,1.01568 -1.65621,1.58637 z"
         style="fill:none;stroke:#ffffff;stroke-width:1.99543846;stroke-linecap:round;stroke-linejoin:round;stroke-miterlimit:10;stroke-dasharray:none;stroke-opacity:1"
         id="path10138"
         inkscape:connector-curvature="0" />
      <path
         d="m 225.57326,151.81034 3.75341,-11.07868"
         style="fill:none;stroke:#ffffff;stroke-width:1.99543846;stroke-linecap:round;stroke-linejoin:miter;stroke-miterlimit:10;stroke-dasharray:none;stroke-opacity:1"
         id="path10142"
         inkscape:connector-curvature="0" />
      <path
         d="m 231.57214,142.73628 c 0,0.002 0.002,0.02 0.002,0.02 l -0.002,-0.0259 c 0.0439,-0.33723 0.0738,-0.67247 0.0878,-1.0077 0.0559,-0.20354 0.13769,-0.42902 0.25941,-0.67047 l -0.2614,0.10576 c -0.002,-0.21551 -0.006,-0.42902 -0.02,-0.64054 0.02,-0.22548 0.0798,-0.63255 0.24344,-1.27309 l -0.35119,0.23946 0.002,0.0519 c -0.0659,-0.43301 -0.16163,-0.85804 -0.27337,-1.27908 0.0459,-0.19954 0.11374,-0.48688 0.16163,-0.62657 l -0.33324,0.02 h 0.002 c -0.11175,-0.34122 -0.23746,-0.67446 -0.37914,-1.00171 -0.3073,0.17161 -0.60661,0.35718 -0.89794,0.55872 l -0.24345,-0.21151 c -0.0359,0.10974 -0.0898,0.31328 -0.13369,0.49287 -0.37714,0.27936 -0.73832,0.58067 -1.08153,0.90593 l -0.1317,-0.39709 c -0.25542,0.59863 -0.51283,1.00769 -0.68044,1.24515 -0.0998,0.11773 -0.19356,0.24344 -0.28934,0.36716 l -0.10776,-0.18358 c -0.0359,0.18957 -0.0858,0.35319 -0.13968,0.50485 -0.68044,0.92787 -1.23916,1.9675 -1.62827,3.11487 -0.95981,2.83353 -0.75029,5.7748 0.3472,8.32098 2.42047,-1.3549 4.374,-3.56185 5.33381,-6.39538 0.25142,-0.7403 0.41904,-1.48859 0.51482,-2.23489 z"
         style="fill:none;stroke:#ffffff;stroke-width:1.99543846;stroke-linecap:round;stroke-linejoin:round;stroke-miterlimit:10;stroke-dasharray:none;stroke-opacity:1"
         id="path10146"
         inkscape:connector-curvature="0" />
      <path
         d="m 225.53235,151.80056 -9.43244,6.92018"
         style="fill:none;stroke:#ffffff;stroke-width:1.99543846;stroke-linecap:round;stroke-linejoin:miter;stroke-miterlimit:10;stroke-dasharray:none;stroke-opacity:1"
         id="path10150"
         inkscape:connector-curvature="0" />
      <path
         d="m 215.41288,155.79144 c 0,0 0.004,-0.02 0.004,-0.02 l -0.012,0.02 c -0.22948,0.25142 -0.44698,0.50884 -0.65051,0.77822 -0.16163,0.13369 -0.35719,0.27138 -0.59664,0.39909 l 0.27338,0.0619 c -0.11973,0.17759 -0.23946,0.35518 -0.34921,0.53677 -0.14766,0.17161 -0.42902,0.47292 -0.93187,0.90194 h 0.42703 l 0.0259,-0.0439 c -0.19356,0.3911 -0.35918,0.79618 -0.50684,1.20524 -0.15365,0.13769 -0.37515,0.33324 -0.49288,0.42104 l 0.28336,0.1736 h 0.004 c -0.10377,0.34122 -0.19356,0.68643 -0.2654,1.03763 0.3512,0.0339 0.7024,0.0539 1.05559,0.0579 l 0.0778,0.31129 c 0.0938,-0.0678 0.25342,-0.20354 0.3931,-0.32526 0.46893,-0.0199 0.93786,-0.0519 1.40679,-0.12172 l -0.12172,0.40108 c 0.55473,-0.34521 0.99772,-0.53278 1.27109,-0.63056 0.15165,-0.0379 0.29932,-0.0898 0.44897,-0.13369 l -0.016,0.21152 c 0.13769,-0.1337 0.27138,-0.23946 0.40308,-0.33324 1.08951,-0.36916 2.1431,-0.89995 3.12087,-1.61631 2.41248,-1.76995 3.92901,-4.30017 4.48973,-7.01596 -2.75969,-0.27936 -5.62514,0.40907 -8.03762,2.17902 -0.63056,0.46294 -1.19727,0.97976 -1.70411,1.53449 z"
         style="fill:none;stroke:#ffffff;stroke-width:1.99543846;stroke-linecap:round;stroke-linejoin:round;stroke-miterlimit:10;stroke-dasharray:none;stroke-opacity:1"
         id="path10154"
         inkscape:connector-curvature="0" />
      <path
         d="m 205.6053,138.02445 -10.41419,-5.32782"
         style="fill:none;stroke:#ffffff;stroke-width:1.99543846;stroke-linecap:round;stroke-linejoin:miter;stroke-miterlimit:10;stroke-dasharray:none;stroke-opacity:1"
         id="path10158"
         inkscape:connector-curvature="0" />
      <path
         d="m 197.50063,130.76864 c 0.002,0 0.012,0 0.012,0 h -0.0239 c -0.32726,-0.0918 -0.6565,-0.16961 -0.98575,-0.23147 -0.19356,-0.0858 -0.40508,-0.19955 -0.62457,-0.35319 l 0.0658,0.27138 c -0.21352,-0.0279 -0.42503,-0.0559 -0.63655,-0.0738 -0.2195,-0.0539 -0.61459,-0.16961 -1.2232,-0.42502 l 0.18557,0.38312 h 0.0519 c -0.437,0 -0.872,0.0339 -1.30501,0.0858 -0.19156,-0.0738 -0.46693,-0.18557 -0.59664,-0.25142 l -0.0299,0.33124 h 0.008 c -0.3512,0.0599 -0.70239,0.13769 -1.04561,0.22748 0.12571,0.32925 0.2654,0.65451 0.42104,0.97178 l -0.24344,0.20952 c 0.10376,0.0539 0.29532,0.1337 0.46693,0.20354 0.22349,0.41305 0.46693,0.81613 0.73831,1.20325 l -0.41305,0.0718 c 0.55872,0.33923 0.92588,0.65251 1.1354,0.85405 0.10177,0.11573 0.21351,0.22548 0.31927,0.34122 l -0.19555,0.0798 c 0.18158,0.0619 0.33523,0.13569 0.47691,0.21151 0.82012,0.80616 1.76796,1.51055 2.84549,2.06329 2.66391,1.36288 5.60519,1.58437 8.28506,0.86801 -0.98774,-2.59207 -2.88939,-4.84492 -5.5533,-6.20781 -0.69442,-0.35718 -1.41078,-0.63056 -2.13512,-0.83409 z"
         style="fill:none;stroke:#ffffff;stroke-width:1.99543846;stroke-linecap:round;stroke-linejoin:round;stroke-miterlimit:10;stroke-dasharray:none;stroke-opacity:1"
         id="path10162"
         inkscape:connector-curvature="0" />
      <path
         d="m 223.61194,163.70495 -2.60006,-0.18558"
         style="fill:none;stroke:#ffffff;stroke-width:1.99543846;stroke-linecap:round;stroke-linejoin:round;stroke-miterlimit:10;stroke-dasharray:none;stroke-opacity:1"
         id="path10166"
         inkscape:connector-curvature="0" />
      <path
         d="m 207.79749,167.95902 c -1.59436,-0.30929 -3.3663,0.0319 -4.87486,1.08353 -0.88996,0.62058 -1.5744,1.41676 -2.04333,2.29076 h -0.002 c -0.01,0.0199 -0.016,0.0339 -0.022,0.0499 -0.31528,0.60062 -0.5268,1.23517 -0.62856,1.88369 -0.008,0.0459 -0.016,0.0918 -0.0239,0.13769 -0.002,0.0199 -0.004,0.0319 -0.006,0.0479 -0.25741,1.78791 0.31329,2.98517 -0.2614,3.17474 0,0 1.58039,0.92987 3.60376,1.20125 0.60462,0.10377 1.23319,0.11574 1.86175,0.0299 0.97178,-0.10974 1.9675,-0.43899 2.8854,-1.13141 1.38085,-0.96579 2.27879,-2.34464 2.61802,-3.80331"
         style="fill:none;stroke:#ffffff;stroke-width:1.99543846;stroke-linecap:round;stroke-linejoin:round;stroke-miterlimit:10;stroke-dasharray:none;stroke-opacity:1"
         id="path10170"
         inkscape:connector-curvature="0" />
      <path
         d="m 211.61776,174.66529 c 1.03363,-2.56613 -0.31728,-5.83067 -0.31728,-5.83067 -2.31471,-1.81984 -5.79276,-1.69013 -5.79276,-1.69013 0,0 2.41648,0.58665 3.58381,1.65621 0,0 -1.72406,0.0199 -2.70382,1.55844 0,0 1.99345,-0.89995 3.8053,-0.57469 0,0 1.50456,3.49202 1.42475,4.88084 z"
         style="fill:none;stroke:#ffffff;stroke-width:1.99543846;stroke-linecap:round;stroke-linejoin:round;stroke-miterlimit:10;stroke-dasharray:none;stroke-opacity:1"
         id="path10174"
         inkscape:connector-curvature="0" />
      <path
         d="m 199.93546,176.62561 c 0,0 0.006,0.24943 -0.74031,0.58267"
         style="fill:none;stroke:#ffffff;stroke-width:1.99543846;stroke-linecap:round;stroke-linejoin:round;stroke-miterlimit:10;stroke-dasharray:none;stroke-opacity:1"
         id="path10178"
         inkscape:connector-curvature="0" />
      <path
         d="m 202.92283,169.04255 c 0,0 -0.3472,0.43899 -0.84407,0.15963"
         style="fill:none;stroke:#ffffff;stroke-width:1.99543846;stroke-linecap:round;stroke-linejoin:round;stroke-miterlimit:10;stroke-dasharray:none;stroke-opacity:1"
         id="path10182"
         inkscape:connector-curvature="0" />
      <path
         d="m 200.85436,171.3808 c 0,0 -0.50285,0.87799 -0.93785,0.63455"
         style="fill:none;stroke:#ffffff;stroke-width:1.99543846;stroke-linecap:round;stroke-linejoin:round;stroke-miterlimit:10;stroke-dasharray:none;stroke-opacity:1"
         id="path10186"
         inkscape:connector-curvature="0" />
      <path
         d="m 208.28557,176.72419 c 0,0 -0.68044,0.60262 -0.66248,1.17531"
         style="fill:none;stroke:#ffffff;stroke-width:1.99543846;stroke-linecap:round;stroke-linejoin:round;stroke-miterlimit:10;stroke-dasharray:none;stroke-opacity:1"
         id="path10190"
         inkscape:connector-curvature="0" />
      <path
         d="m 205.40057,177.8572 c 0,0 -0.46294,0.0439 -0.63655,0.57069"
         style="fill:none;stroke:#ffffff;stroke-width:1.99543846;stroke-linecap:round;stroke-linejoin:round;stroke-miterlimit:10;stroke-dasharray:none;stroke-opacity:1"
         id="path10194"
         inkscape:connector-curvature="0" />
      <path
         d="m 211.65866,168.47923 c 2.73375,2.29675 8.17931,-2.24885 8.17931,-2.24885 3.68358,-4.00485 9.99914,-4.18843 14.00199,-0.50286 1.25912,1.15736 2.14709,2.56813 2.65992,4.08267"
         style="fill:none;stroke:#ffffff;stroke-width:1.99543846;stroke-linecap:round;stroke-linejoin:round;stroke-miterlimit:10;stroke-dasharray:none;stroke-opacity:1"
         id="path10198"
         inkscape:connector-curvature="0" />
    </g>
  </g>
</svg>
