<?xml version="1.0" encoding="UTF-8" standalone="no"?>
<svg
   xmlns:dc="http://purl.org/dc/elements/1.1/"
   xmlns:cc="http://creativecommons.org/ns#"
   xmlns:rdf="http://www.w3.org/1999/02/22-rdf-syntax-ns#"
   xmlns:svg="http://www.w3.org/2000/svg"
   xmlns="http://www.w3.org/2000/svg"
   xmlns:sodipodi="http://sodipodi.sourceforge.net/DTD/sodipodi-0.dtd"
   xmlns:inkscape="http://www.inkscape.org/namespaces/inkscape"
   xml:space="preserve"
   enable-background="new -331 270.6 54.2 55.6"
   viewBox="-331 270.6 42.999999 43.000001"
   height="43"
   width="43"
   y="0px"
   x="0px"
   id="Layer_1"
   version="1.1"
   sodipodi:docname="cowpea.svg"
   inkscape:version="0.92.1 r15371"><sodipodi:namedview
     pagecolor="#ffffff"
     bordercolor="#666666"
     borderopacity="1"
     objecttolerance="10"
     gridtolerance="10"
     guidetolerance="10"
     inkscape:pageopacity="0"
     inkscape:pageshadow="2"
     inkscape:window-width="1920"
     inkscape:window-height="1017"
     id="namedview31"
     showgrid="false"
     inkscape:zoom="5.4883721"
     inkscape:cx="-20.680085"
     inkscape:cy="21.5"
     inkscape:window-x="-8"
     inkscape:window-y="-8"
     inkscape:window-maximized="1"
     inkscape:current-layer="Layer_1" /><metadata
     id="metadata35"><rdf:RDF><cc:Work
         rdf:about=""><dc:format>image/svg+xml</dc:format><dc:type
           rdf:resource="http://purl.org/dc/dcmitype/StillImage" /><dc:title /></cc:Work></rdf:RDF></metadata><defs
     id="defs33" /><g
     style="fill:#ffffff"
     transform="translate(0,-12.599998)"
     id="apple" /><g
     style="fill:#ffffff"
     transform="translate(0,-12.599998)"
     id="barley" /><g
     style="fill:#ffffff"
     transform="translate(0,-12.599998)"
     id="carrot" /><g
     style="fill:#ffffff"
     transform="translate(0,-12.599998)"
     id="eggplant" /><g
     style="fill:#ffffff"
     transform="translate(0,-12.599998)"
     id="pea" /><g
     style="fill:#ffffff"
     transform="translate(0,-12.599998)"
     id="patato" /><g
     style="fill:#ffffff"
     transform="translate(0,-12.599998)"
     id="chickpea" /><g
     style="fill:#ffffff"
     transform="translate(0,-12.599998)"
     id="faba_bean" /><g
     style="fill:#ffffff"
     transform="translate(0,-12.599998)"
     id="lentil" /><g
     style="fill:#ffffff"
     transform="translate(0,-12.599998)"
     id="bean" /><g
     style="fill:#ffffff"
     transform="translate(0,-12.599998)"
     id="rice" /><g
     style="fill:#ffffff"
     transform="translate(0,-12.599998)"
     id="sorghum" /><g
     style="fill:#ffffff"
     transform="translate(0,-12.599998)"
     id="pearl_millet" /><g
     style="fill:#ffffff"
     transform="translate(0,-12.599998)"
     id="pigeon_pea" /><g
     style="fill:#ffffff"
     transform="translate(0,-12.599998)"
     id="grasspea" /><g
     style="fill:#ffffff"
     transform="translate(0,-12.599998)"
     id="cowpea" /><g
     style="fill:#ffffff"
     transform="translate(0,-12.599998)"
     id="bambara" /><g
     style="fill:#ffffff"
     transform="translate(0,-12.599998)"
     id="vetch" /><g
     style="fill:#ffffff"
     transform="translate(0,-12.599998)"
     id="wheat" /><g
     style="fill:#ffffff"
     transform="translate(0,-12.599998)"
     id="banana" /><g
     style="fill:#ffffff"
     transform="translate(0,-12.599998)"
     id="rye" /><g
     style="fill:#ffffff"
     transform="translate(0,-12.599998)"
     id="alfalfa" /><g
     style="fill:#ffffff"
     transform="translate(0,-12.599998)"
     id="finger_millet" /><g
     style="fill:#ffffff"
     transform="translate(0,-12.599998)"
     id="sweet_patato" /><g
     style="fill:#ffffff"
     transform="translate(0,-12.599998)"
     id="oat" /><g
     transform="translate(-84.582181,-14.421187)"
     id="apple-5" /><g
     transform="translate(-84.582181,-14.421187)"
     id="barley-0" /><g
     transform="translate(-84.582181,-14.421187)"
     id="carrot-7" /><g
     transform="translate(-84.582181,-14.421187)"
     id="eggplant-1" /><g
     transform="translate(-84.582181,-14.421187)"
     id="pea-3" /><g
     transform="translate(-84.582181,-14.421187)"
     id="sunflower" /><g
     transform="translate(-84.582181,-14.421187)"
     id="patato-7" /><g
     transform="translate(-84.582181,-14.421187)"
     id="chickpea-3" /><g
     transform="translate(-84.582181,-14.421187)"
     id="faba_bean-4" /><g
     transform="translate(-84.582181,-14.421187)"
     id="lentil-5" /><g
     transform="translate(-84.582181,-14.421187)"
     id="bean-3" /><g
     transform="translate(-84.582181,-14.421187)"
     id="rice-4" /><g
     transform="translate(-84.582181,-14.421187)"
     id="sorghum-6" /><g
     transform="translate(-84.582181,-14.421187)"
     id="pearl_millet-6" /><g
     transform="translate(-84.582181,-14.421187)"
     id="pigeon_pea-4" /><g
     transform="translate(-84.582181,-14.421187)"
     id="grasspea-4" /><g
     transform="translate(-84.582181,-14.421187)"
     id="bambara-3" /><g
     transform="translate(-84.582181,-14.421187)"
     id="vetch-2" /><g
     transform="translate(-84.582181,-14.421187)"
     id="wheat-6" /><g
     transform="translate(-84.582181,-14.421187)"
     id="banana-7" /><g
     transform="translate(-84.582181,-14.421187)"
     id="rye-5" /><g
     transform="translate(-84.582181,-14.421187)"
     id="alfalfa-1" /><g
     transform="translate(-84.582181,-14.421187)"
     id="finger_millet-2" /><g
     transform="translate(-84.582181,-14.421187)"
     id="sweet_patato-3" /><g
     transform="translate(-84.582181,-14.421187)"
     id="oat-1" /><g
     id="g4721"
     transform="matrix(0.53755199,0,0,0.53755199,-126.67303,158.97934)"><path
       d="m -324.50514,241.58826 c -0.0619,0.13773 -0.84031,0.71257 -0.83232,0.8942 0.014,0.27145 0.11177,0.57484 0.27544,0.85228 0.15768,0.26746 0.35529,0.47904 0.56486,0.62075 0.0519,0.15569 0.10379,0.31736 0.15569,0.48303 -0.0519,0.27344 -0.0279,0.59879 0.0918,0.93411 0.0858,0.23952 0.20759,0.43113 0.34331,0.5968 0.0599,0.22554 0.0898,1.3872 0.23153,1.78839 0.0719,0.20159 0.39521,1.22752 0.37724,1.27144 -0.0998,0.25348 -0.13373,0.56885 -0.0978,0.8922 0.0379,0.33532 0.43113,1.22153 0.35329,1.40915 -0.002,0 -0.006,0.02 -0.008,0.02 -0.0998,0.25349 -0.13373,0.56886 -0.0978,0.89021 0.0379,0.33732 0.28942,0.92214 0.35329,1.41115 0.0659,0.48902 -0.004,0.02 -0.006,0.02 -0.0998,0.25349 -0.13572,0.57085 -0.0998,0.8922 0.0379,0.33732 0.43313,1.22154 0.35329,1.41116 -0.002,0 -0.004,0.02 -0.006,0.02 -0.0998,0.25348 -0.13572,0.57084 -0.0998,0.8922 0.0379,0.33732 0.27146,1.02992 0.35329,1.41115 0.0838,0.38323 -0.14171,0.58881 -0.10379,0.91016 0.01,0.0858 0.022,0.16767 0.0399,0.24551 0.11377,0.50099 0.18363,1.00996 0.16766,1.52293 -0.004,0.0998 0.002,0.20159 0.014,0.30538 0.0459,0.41117 0.27744,0.994 0.34531,1.42912 0.0679,0.43313 -0.12775,0.62274 -0.0779,1.08581 0,0 0.27944,0.81436 0.32535,1.23351 0.016,0.15569 -0.10579,0.71656 -0.0699,1.0439 0.0379,0.32933 0.32534,0.87822 0.28542,0.98002 -0.0978,0.25349 -0.13572,0.56885 -0.0978,0.8922 0.0239,0.21556 0.14571,0.68861 0.19161,1.12573 0.0339,0.33333 -0.004,0.64669 0.012,0.78641 0.0379,0.32934 0.10978,0.63273 0.13373,0.8443 0.0319,0.30738 0.0738,0.20359 0.0339,0.30339 h -0.002 c -0.0998,0.25349 0.014,0.55288 0.0499,0.87423 0.0439,0.37525 0.31337,1.10378 0.33333,1.30338 0.022,0.19959 -0.13373,0.56885 -0.0978,0.8902 0.0299,0.26147 0.0978,0.495 0.1976,0.68861 0.24151,0.46905 0.43313,0.96206 0.55688,1.47503 0.28742,1.20756 0.65468,1.94607 1.1876,2.39517 0.71257,0.60078 1.65067,0.60877 2.55884,0.52893 0.24351,-0.022 0,0 0,0"
       style="fill:none;stroke:#ffffff;stroke-width:1.99597418;stroke-linecap:round;stroke-linejoin:miter;stroke-miterlimit:10;stroke-dasharray:none;stroke-opacity:1"
       id="path11200"
       inkscape:connector-curvature="0" /><path
       d="m -318.8749,278.63374 c -0.40518,-0.33931 -0.14371,-1.64268 -0.38522,-2.69855 -0.0838,-0.36726 -0.012,-0.7465 0.15968,-1.08182 0.016,-0.0299 0.0299,-0.0619 0.0419,-0.0958 0.0998,-0.25349 0.13573,-0.57085 0.0998,-0.8922 -0.012,-0.0938 -0.026,-0.18163 -0.0459,-0.26546 -0.12574,-0.52694 -0.1976,-1.06386 -0.17564,-1.60477 0.004,-0.10379 0,-0.21157 -0.014,-0.32334 -0.0359,-0.32934 -0.13772,-0.61077 -0.27944,-0.82634 -0.0619,-0.0918 -0.0759,-0.20558 -0.0359,-0.30738 l 0.002,-0.002 c 0.0978,-0.25349 0.0519,-0.65069 -0.10379,-1.13372 -0.0958,-0.29939 -0.1018,-0.77843 -0.1018,-0.77843 -0.0339,-0.31935 0.13573,-0.57084 0.0978,-0.8922 -0.0239,-0.21756 -0.0759,-0.41316 -0.1497,-0.58482 -0.11776,-0.27145 -0.13174,-0.57085 -0.0798,-0.86026 0.0319,-0.17565 0.0379,-0.37125 0.014,-0.57883 -0.0379,-0.33533 -0.14171,-0.62474 -0.29141,-0.84231 -0.11377,-0.16766 -0.0559,-0.57883 -0.0539,-0.58482 0.0998,-0.25348 0.13572,-0.57084 0.0978,-0.8922 -0.0379,-0.33732 -0.14171,-0.62673 -0.29141,-0.84429 -0.11377,-0.16767 -0.0559,-0.57884 -0.0539,-0.58482 0.0998,-0.25349 0.13572,-0.57085 0.0978,-0.8922 -0.0359,-0.32335 -0.13573,-0.60279 -0.27544,-0.81636 -0.0639,-0.0958 -0.0858,-0.25748 -0.0439,-0.36526 0,0 0.13373,-0.57085 0.0978,-0.8922 -0.0379,-0.33533 -0.14172,-0.62474 -0.28942,-0.8443 -0.11577,-0.16966 -0.14171,-0.37923 -0.0619,-0.56885 0.002,0 0.13971,-0.58482 0.10379,-0.90617 -0.0379,-0.33732 -0.14172,-0.62674 -0.28942,-0.8443 -0.11776,-0.16966 -0.0599,-0.58083 -0.0579,-0.58682 0.10179,-0.25349 0.13572,-0.56885 0.0998,-0.8922 -0.0379,-0.33532 -0.14371,-0.62474 -0.29142,-0.8423 -0.11576,-0.16766 -0.14171,-0.37923 -0.0619,-0.56686 0.002,0 0.14171,-0.58881 0.10578,-0.91016 -0.0379,-0.33732 -0.14371,-0.62674 -0.29141,-0.8423 -0.11576,-0.16966 -0.0579,-0.58283 -0.0559,-0.58682 0.0998,-0.25349 0.13572,-0.57085 0.0998,-0.8922 -0.0439,-0.38322 -0.17365,-0.70258 -0.35528,-0.92813 -0.0878,-0.10778 0.15369,-1.15966 -0.02,-1.64867 -0.02,-0.0559 -0.0419,-0.10978 -0.0659,-0.16167 -0.22554,-0.50698 -0.37923,-1.04989 -0.38921,-1.60477 -0.006,-0.19361 -0.0439,-0.40318 -0.11976,-0.61875 -0.10379,-0.28942 -0.25149,-0.52893 -0.42315,-0.70458 -0.18762,-0.18762 -0.27744,-0.43911 -0.26746,-0.70258 0.002,-0.0339 0.002,-0.0679 0,-0.1018 -0.014,-0.27344 -0.10978,-0.57484 -0.27345,-0.85427 -0.27544,-0.46506 -0.68062,-0.75249 -1.05387,-0.7964 -0.82434,-1.77442 -4.41509,-3.94205 -7.79628,-4.81828 0,0 -9.9639,3.00793 -3.78835,32.35874"
       style="fill:none;stroke:#ffffff;stroke-width:1.99597418;stroke-linecap:round;stroke-linejoin:miter;stroke-miterlimit:10;stroke-dasharray:none;stroke-opacity:1"
       id="path11204"
       inkscape:connector-curvature="0" /><path
       d="m -327.78752,245.16405 c -0.0679,0.1018 -0.76246,0.45708 -0.77843,0.60279 -0.026,0.21756 0.012,0.47304 0.10579,0.71455 0.0898,0.23353 0.21955,0.42714 0.36925,0.56686 0.02,0.13174 0.0419,0.26746 0.0599,0.40518 -0.0759,0.21158 -0.0998,0.47305 -0.0479,0.75648 0.0359,0.20159 0.10778,0.36925 0.1956,0.51895 0.016,0.18762 -0.11177,1.11575 -0.0519,1.45507 0.0299,0.16965 0.15369,1.02792 0.13373,1.05986 -0.11178,0.18962 -0.18164,0.43712 -0.19361,0.69859 -0.014,0.27145 0.18163,1.02793 0.0958,1.16764 -0.004,0 -0.006,0.02 -0.008,0.02 -0.11377,0.18962 -0.18163,0.43513 -0.1956,0.6966 -0.014,0.27345 0.10778,0.77244 0.0958,1.16964 -0.012,0.3972 -0.004,0 -0.008,0.02 -0.11178,0.18762 -0.18163,0.43512 -0.19361,0.6966 -0.016,0.27344 0.18163,1.02792 0.0958,1.16964 -0.004,0 -0.006,0 -0.008,0.02 -0.11377,0.18961 -0.18363,0.43711 -0.1956,0.69859 -0.014,0.27145 0.0798,0.85427 0.0958,1.16964 0.016,0.31337 -0.18961,0.44909 -0.20359,0.70857 -0.002,0.0699 -0.002,0.13572 0.002,0.20159 0.024,0.41317 0.012,0.82833 -0.0679,1.23551 -0.014,0.0759 -0.024,0.15768 -0.0299,0.24151 -0.016,0.33533 0.0918,0.83033 0.0898,1.18362 -0.004,0.35328 -0.18363,0.47903 -0.20559,0.85427 0,0 0.11776,0.68462 0.0978,1.02593 -0.006,0.12575 -0.17764,0.55488 -0.19161,0.82234 -0.014,0.26547 0.14371,0.74051 0.0998,0.81636 -0.11377,0.18762 -0.18363,0.43512 -0.1976,0.69659 -0.008,0.17365 0.0259,0.56886 0.006,0.92015 -0.016,0.27145 -0.0878,0.51496 -0.0918,0.62873 -0.014,0.26746 0.004,0.51696 -0.006,0.69061 -0.014,0.2475 0.0319,0.16965 -0.012,0.24351 h -0.002 c -0.11177,0.18762 -0.0599,0.4431 -0.0739,0.70258 -0.016,0.30339 0.10179,0.92014 0.0938,1.08182 -0.01,0.15967 -0.18163,0.43512 -0.19561,0.69459 -0.01,0.21357 0.014,0.40718 0.0679,0.57285 0.13173,0.40718 0.21756,0.82434 0.24949,1.24748 0.0699,0.99999 0.26547,1.6367 0.63073,2.06384 0.48902,0.57085 0.994,1.84628 1.72452,1.90216"
       style="fill:none;stroke:#ffffff;stroke-width:1.99597418;stroke-linecap:round;stroke-linejoin:miter;stroke-miterlimit:10;stroke-dasharray:none;stroke-opacity:1"
       id="path11208"
       inkscape:connector-curvature="0" /><path
       d="m -328.16077,275.38629 c -0.27744,-0.32534 0.1018,-1.32732 0.0479,-2.19756 -0.018,-0.30339 0.0878,-0.5948 0.26746,-0.84031 0.016,-0.0239 0.0319,-0.0459 0.0479,-0.0718 0.11177,-0.18762 0.18163,-0.43513 0.19361,-0.6966 0.004,-0.0759 0.004,-0.1477 -0.002,-0.21756 -0.0299,-0.43512 -0.016,-0.87224 0.0719,-1.29938 0.016,-0.0818 0.0279,-0.16966 0.0319,-0.25948 0.014,-0.26746 -0.0299,-0.50498 -0.11576,-0.69659 -0.0359,-0.0798 -0.0319,-0.17165 0.014,-0.2475 v 0 c 0.11177,-0.18762 0.12774,-0.50897 0.0659,-0.91416 -0.0379,-0.25149 0.022,-0.63472 0.022,-0.63472 0.016,-0.25748 0.18363,-0.43512 0.19561,-0.69659 0.008,-0.17565 -0.008,-0.33932 -0.0439,-0.48502 -0.0579,-0.22954 -0.0299,-0.47105 0.0499,-0.6946 0.0479,-0.13772 0.0778,-0.29141 0.0878,-0.45908 0.014,-0.27345 -0.0319,-0.51695 -0.12176,-0.70857 -0.0699,-0.1497 0.0299,-0.46905 0.0319,-0.47304 0.11377,-0.18962 0.18363,-0.43513 0.19561,-0.6966 0.014,-0.27345 -0.0319,-0.51696 -0.12176,-0.71057 -0.0679,-0.1477 0.0319,-0.46905 0.0339,-0.47304 0.11178,-0.18762 0.18164,-0.43512 0.19561,-0.6966 0.014,-0.26346 -0.0299,-0.49899 -0.11178,-0.68661 -0.0379,-0.0838 -0.0359,-0.21557 0.012,-0.29541 0,0 0.18163,-0.43711 0.1956,-0.69659 0.012,-0.27345 -0.0319,-0.51696 -0.12175,-0.71057 -0.0699,-0.1497 -0.0619,-0.32135 0.026,-0.46107 0.002,0 0.18762,-0.4471 0.20159,-0.70857 0.014,-0.27345 -0.0299,-0.51696 -0.11976,-0.70857 -0.0699,-0.1497 0.0299,-0.47105 0.0319,-0.47504 0.11177,-0.18762 0.18163,-0.43512 0.19361,-0.6966 0.016,-0.27145 -0.0299,-0.51695 -0.11976,-0.70857 -0.0699,-0.14969 -0.0619,-0.32135 0.024,-0.46107 0.004,0 0.19161,-0.44909 0.20359,-0.71056 0.014,-0.27146 -0.0299,-0.51496 -0.11976,-0.70857 -0.0699,-0.1497 0.0299,-0.46906 0.0319,-0.47305 0.11177,-0.18962 0.18163,-0.43712 0.1956,-0.6966 0.016,-0.31137 -0.0459,-0.58282 -0.15967,-0.78441 -0.0559,-0.0998 0.27344,-0.90418 0.1976,-1.31735 -0.006,-0.0459 -0.018,-0.0918 -0.0299,-0.13572 -0.11178,-0.43313 -0.16367,-0.88422 -0.0998,-1.32932 0.022,-0.15369 0.018,-0.32734 -0.014,-0.50698 -0.0439,-0.24351 -0.12974,-0.45508 -0.24551,-0.61675 -0.12175,-0.17365 -0.16167,-0.38523 -0.11976,-0.59281 0.006,-0.0279 0.01,-0.0539 0.014,-0.0818 0.026,-0.21956 -0.012,-0.47305 -0.10778,-0.71656 -0.15768,-0.40518 -0.44111,-0.68661 -0.73252,-0.77244 -0.42514,-1.52093 2.06184,-3.78636 1.2874,-4.22149"
       style="fill:none;stroke:#ffffff;stroke-width:1.99597418;stroke-linecap:round;stroke-linejoin:miter;stroke-miterlimit:10;stroke-dasharray:none;stroke-opacity:1"
       id="path11212"
       inkscape:connector-curvature="0" /><path
       d="m -321.21578,241.67988 c -0.0319,0.11776 -0.57883,0.67464 -0.54889,0.81835 0.0459,0.21556 0.16168,0.4431 0.32734,0.6447 0.15968,0.19161 0.34331,0.33532 0.52893,0.42115 0.0619,0.11776 0.12176,0.23952 0.18563,0.36526 -0.008,0.22555 0.0519,0.48103 0.19161,0.73452 0.0978,0.17764 0.21956,0.31536 0.3493,0.42913 0.0758,0.17365 0.2455,1.0938 0.41117,1.39719 0.0818,0.14969 0.46905,0.92812 0.46107,0.96405 -0.0459,0.21357 -0.0359,0.47105 0.0359,0.72255 0.0718,0.26346 0.49899,0.91814 0.46107,1.07782 -0.002,0 -0.004,0.02 -0.004,0.02 -0.0479,0.21557 -0.0359,0.47105 0.0339,0.72454 0.0739,0.26147 0.3473,0.69659 0.46107,1.07783 0.11377,0.38123 -0.002,0.02 -0.004,0.02 -0.0479,0.21356 -0.0339,0.47105 0.0359,0.72254 0.0719,0.26347 0.499,0.91815 0.45908,1.07982 l -0.002,0.02 c -0.0479,0.21557 -0.0359,0.47105 0.0339,0.72254 0.0738,0.26347 0.3473,0.78642 0.46107,1.07982 0.11377,0.29341 -0.0399,0.48702 0.0299,0.73851 0.02,0.0659 0.0419,0.12974 0.0659,0.18962 0.15369,0.38523 0.27345,0.78242 0.32534,1.1936 0.01,0.0778 0.026,0.15768 0.0499,0.23951 0.0898,0.32335 0.3473,0.75847 0.45708,1.09579 0.10978,0.33533 -0.022,0.51297 0.0759,0.87424 0,0 0.32734,0.61276 0.41516,0.9421 0.0339,0.12175 0.006,0.58282 0.0778,0.8403 0.0719,0.25748 0.37125,0.65867 0.35129,0.7445 -0.0459,0.21357 -0.0339,0.47105 0.0359,0.72254 0.0459,0.16966 0.20359,0.53093 0.29541,0.87225 0.0699,0.26147 0.0798,0.51695 0.10978,0.62474 0.0698,0.25947 0.16766,0.48901 0.21356,0.65667 0.0639,0.23952 0.0838,0.15169 0.0639,0.23553 v 0 c -0.0479,0.21356 0.0818,0.43911 0.15169,0.6906 0.0818,0.29341 0.38921,0.84031 0.43113,0.99599 0.0419,0.15569 -0.0359,0.47105 0.0339,0.72255 0.0559,0.20359 0.14172,0.38123 0.24551,0.52294 0.25149,0.34331 0.46705,0.71057 0.62873,1.10378 0.38323,0.92613 0.96006,1.27742 1.25147,1.75645 0.77245,1.27343 0.41716,1.62672 -0.0679,3.16163"
       style="fill:none;stroke:#ffffff;stroke-width:1.99597418;stroke-linecap:round;stroke-linejoin:miter;stroke-miterlimit:10;stroke-dasharray:none;stroke-opacity:1"
       id="path11216"
       inkscape:connector-curvature="0" /><path
       d="m -312.0293,270.4744 c -0.36527,-0.21956 -0.32335,-1.2894 -0.6487,-2.09976 -0.11377,-0.28144 -0.10379,-0.59281 -0.012,-0.88222 0.01,-0.0259 0.016,-0.0539 0.024,-0.0838 0.0459,-0.21357 0.0339,-0.46906 -0.0359,-0.72055 -0.02,-0.0738 -0.0439,-0.14172 -0.0699,-0.20559 -0.16766,-0.40518 -0.2934,-0.82234 -0.3433,-1.25546 -0.01,-0.0838 -0.0279,-0.16966 -0.0519,-0.25749 -0.0699,-0.25748 -0.18762,-0.46905 -0.32734,-0.62274 -0.0619,-0.0659 -0.0858,-0.15369 -0.0679,-0.23952 v -0.002 c 0.0479,-0.21357 -0.0399,-0.52494 -0.22555,-0.89021 -0.11377,-0.22554 -0.17963,-0.60677 -0.17963,-0.60677 -0.0659,-0.2495 0.0359,-0.47105 -0.0339,-0.72454 -0.0479,-0.16966 -0.11377,-0.31936 -0.19361,-0.4451 -0.12774,-0.2016 -0.17764,-0.43912 -0.17365,-0.67664 0.002,-0.14371 -0.018,-0.30139 -0.0619,-0.46107 -0.0738,-0.26347 -0.19361,-0.48103 -0.33932,-0.63472 -0.11377,-0.11976 -0.11976,-0.45508 -0.11776,-0.46107 0.0479,-0.21357 0.0339,-0.46905 -0.0359,-0.72055 -0.0718,-0.26546 -0.19161,-0.48302 -0.33732,-0.63671 -0.11377,-0.11976 -0.11975,-0.45309 -0.11975,-0.45908 0.0479,-0.21556 0.0359,-0.47105 -0.0339,-0.72254 -0.0699,-0.25349 -0.18562,-0.46306 -0.32334,-0.61675 -0.0619,-0.0679 -0.1018,-0.19361 -0.0818,-0.28343 0,0 0.0359,-0.47105 -0.0339,-0.72254 -0.0738,-0.26347 -0.19361,-0.48103 -0.33732,-0.63672 -0.11577,-0.11976 -0.16167,-0.28542 -0.12375,-0.4451 0.002,0 0.0379,-0.48502 -0.0319,-0.73652 -0.0718,-0.26347 -0.19161,-0.48103 -0.33931,-0.63472 -0.11178,-0.11976 -0.11976,-0.45508 -0.11776,-0.45907 0.0479,-0.21557 0.0359,-0.47105 -0.0339,-0.72254 -0.0738,-0.26547 -0.19361,-0.48103 -0.33931,-0.63672 -0.11377,-0.11976 -0.15968,-0.28343 -0.12176,-0.44311 0,0 0.0379,-0.48701 -0.0319,-0.73851 -0.0719,-0.26346 -0.19161,-0.48103 -0.33732,-0.63472 -0.11377,-0.11975 -0.11976,-0.45508 -0.11976,-0.45907 0.0479,-0.21557 0.0359,-0.47305 -0.0339,-0.72454 -0.0838,-0.2974 -0.22754,-0.53692 -0.3992,-0.6926 -0.0858,-0.0759 -0.0259,-0.9441 -0.22754,-1.31136 -0.022,-0.0419 -0.0459,-0.0818 -0.0699,-0.11976 -0.2455,-0.37524 -0.43711,-0.78841 -0.51695,-1.22952 -0.028,-0.15369 -0.0858,-0.31536 -0.17365,-0.47703 -0.11777,-0.21756 -0.26547,-0.38922 -0.42714,-0.50698 -0.16966,-0.12575 -0.27545,-0.31536 -0.2994,-0.52694 -0.004,-0.0259 -0.008,-0.0539 -0.014,-0.0818 -0.0459,-0.21357 -0.16167,-0.44511 -0.32734,-0.6447 -0.27744,-0.33533 -0.63672,-0.51297 -0.9401,-0.50099 -1.3912,-2.36523 -3.55284,-1.87223 -4.42508,-2.03989"
       style="fill:none;stroke:#ffffff;stroke-width:1.99597418;stroke-linecap:round;stroke-linejoin:miter;stroke-miterlimit:10;stroke-dasharray:none;stroke-opacity:1"
       id="path11220"
       inkscape:connector-curvature="0" /><path
       d="m -368.62515,238.93342 c 0,0 11.92994,-5.85419 14.60654,-3.49495 2.67859,2.35525 -0.11577,5.01388 3.26741,6.15558 0,0 -1.48301,-0.77244 -2.48898,1.84428 -1.00597,2.61473 -2.61872,3.99993 -4.84623,2.77241 -3.05783,-1.68859 -8.40505,-6.97393 -10.53874,-7.27732"
       style="fill:none;stroke:#ffffff;stroke-width:1.99597418;stroke-linecap:round;stroke-linejoin:round;stroke-miterlimit:10;stroke-dasharray:none;stroke-opacity:1"
       id="path11224"
       inkscape:connector-curvature="0" /><path
       d="m -351.35039,241.49086 c 0,0 -6.90408,-1.16166 -13.25327,-2.32132"
       style="fill:none;stroke:#ffffff;stroke-width:1.99597418;stroke-linecap:round;stroke-linejoin:round;stroke-miterlimit:10;stroke-dasharray:none;stroke-opacity:1"
       id="path11228"
       inkscape:connector-curvature="0" /><path
       d="m -359.68319,237.84282 c 0,0 2.91412,1.35127 3.71651,2.85823"
       style="fill:none;stroke:#ffffff;stroke-width:1.99597418;stroke-linecap:round;stroke-linejoin:round;stroke-miterlimit:10;stroke-dasharray:none;stroke-opacity:1"
       id="path11232"
       inkscape:connector-curvature="0" /><path
       d="m -361.30392,242.1653 c 0,0 2.25745,0.0519 3.9161,-1.05587"
       style="fill:none;stroke:#ffffff;stroke-width:1.99597418;stroke-linecap:round;stroke-linejoin:round;stroke-miterlimit:10;stroke-dasharray:none;stroke-opacity:1"
       id="path11236"
       inkscape:connector-curvature="0" /><path
       d="m -348.71012,241.71401 -0.38123,-1.04988 c 0,0 -4.85621,-6.7424 2.44108,-9.49286 5.89411,-2.22351 5.93403,-3.47898 5.93403,-3.47898 0,0 0.18163,13.76424 -8.37511,12.97184"
       style="fill:none;stroke:#ffffff;stroke-width:1.99597418;stroke-linecap:round;stroke-linejoin:round;stroke-miterlimit:10;stroke-dasharray:none;stroke-opacity:1"
       id="path11240"
       inkscape:connector-curvature="0" /><path
       d="m -349.09215,240.66433 c 0,0 -3.51291,-4.16959 5.87216,-9.01781"
       style="fill:none;stroke:#ffffff;stroke-width:1.99597418;stroke-linecap:round;stroke-linejoin:round;stroke-miterlimit:10;stroke-dasharray:none;stroke-opacity:1"
       id="path11244"
       inkscape:connector-curvature="0" /><path
       d="m -344.10621,235.29815 c 0,0 -2.54287,1.51495 -4.55481,1.12573"
       style="fill:none;stroke:#ffffff;stroke-width:1.99597418;stroke-linecap:round;stroke-linejoin:round;stroke-miterlimit:10;stroke-dasharray:none;stroke-opacity:1"
       id="path11248"
       inkscape:connector-curvature="0" /><path
       d="m -348.58936,242.18466 -0.58283,1.07184 c 0.56087,-0.02 -5.41707,3.38118 -3.77638,7.85615 1.59877,4.35722 6.26935,4.53885 7.25337,5.96797 0,0 4.08177,-6.54281 0.0559,-9.75433 -4.02788,-3.21152 -3.56082,-3.14965 -3.53288,-4.06979"
       style="fill:none;stroke:#ffffff;stroke-width:1.99597418;stroke-linecap:round;stroke-linejoin:round;stroke-miterlimit:10;stroke-dasharray:none;stroke-opacity:1"
       id="path11252"
       inkscape:connector-curvature="0" /><path
       d="m -349.17319,243.2557 c 0,0 -4.47297,5.51687 1.95406,10.12159"
       style="fill:none;stroke:#ffffff;stroke-width:1.99597418;stroke-linecap:round;stroke-linejoin:round;stroke-miterlimit:10;stroke-dasharray:none;stroke-opacity:1"
       id="path11256"
       inkscape:connector-curvature="0" /><path
       d="m -350.54442,248.86758 c 0,0 2.14966,1.13372 3.96201,1.88221"
       style="fill:none;stroke:#ffffff;stroke-width:1.99597418;stroke-linecap:round;stroke-linejoin:round;stroke-miterlimit:10;stroke-dasharray:none;stroke-opacity:1"
       id="path11260"
       inkscape:connector-curvature="0" /><path
       d="m -350.752,241.59405 c 0,0 11.26727,-1.87023 12.73232,9.15554"
       style="fill:none;stroke:#ffffff;stroke-width:1.99597418;stroke-linecap:round;stroke-linejoin:round;stroke-miterlimit:10;stroke-dasharray:none;stroke-opacity:1"
       id="path11264"
       inkscape:connector-curvature="0" /><path
       d="m -324.44666,222.12652 c 4.47897,-2.32731 2.48299,-5.64661 2.48299,-5.64661 -3.50094,2.23349 -2.29537,7.11165 -2.29537,7.11165 0,0 1.12773,7.12563 -8.04377,13.17742"
       style="fill:none;stroke:#ffffff;stroke-width:1.99597418;stroke-linecap:round;stroke-linejoin:miter;stroke-miterlimit:10;stroke-dasharray:none;stroke-opacity:1"
       id="path11268"
       inkscape:connector-curvature="0" /><path
       d="m -326.87037,225.42167 c 0.2954,0.84829 1.97801,1.0898 1.97801,1.0898 l -1.33531,-2.64466"
       style="fill:none;stroke:#ffffff;stroke-width:1.99597418;stroke-linecap:round;stroke-linejoin:round;stroke-miterlimit:10;stroke-dasharray:none;stroke-opacity:1"
       id="path11272"
       inkscape:connector-curvature="0" /><path
       d="m -326.87037,225.42167 c 0,0 1.17164,-0.55089 0.6427,-1.55486 l -1.45307,-2.75046 c -0.25548,-0.48502 -0.91814,-0.55887 -1.27542,-0.14371 0,0 -3.0239,3.54685 2.08579,4.44903 z"
       style="fill:none;stroke:#ffffff;stroke-width:1.99597418;stroke-linecap:round;stroke-linejoin:round;stroke-miterlimit:10;stroke-dasharray:none;stroke-opacity:1"
       id="path11276"
       inkscape:connector-curvature="0" /><path
       d="m -327.68133,221.11596 c -0.27545,-0.49301 -1.5389,2.14766 -0.0379,4.1117"
       style="fill:none;stroke:#ffffff;stroke-width:1.99597418;stroke-linecap:round;stroke-linejoin:round;stroke-miterlimit:10;stroke-dasharray:none;stroke-opacity:1"
       id="path11280"
       inkscape:connector-curvature="0" /></g></svg>