<?xml version="1.0" encoding="UTF-8" standalone="no"?>
<svg
   xmlns:dc="http://purl.org/dc/elements/1.1/"
   xmlns:cc="http://creativecommons.org/ns#"
   xmlns:rdf="http://www.w3.org/1999/02/22-rdf-syntax-ns#"
   xmlns:svg="http://www.w3.org/2000/svg"
   xmlns="http://www.w3.org/2000/svg"
   xmlns:sodipodi="http://sodipodi.sourceforge.net/DTD/sodipodi-0.dtd"
   xmlns:inkscape="http://www.inkscape.org/namespaces/inkscape"
   xml:space="preserve"
   enable-background="new -331 270.6 54.2 55.6"
   viewBox="-331 270.6 42.999999 43.000001"
   height="43"
   width="43"
   y="0px"
   x="0px"
   id="Layer_1"
   version="1.1"
   sodipodi:docname="cwrbarley.svg"
   inkscape:version="0.92.1 r15371"><sodipodi:namedview
     pagecolor="#ffffff"
     bordercolor="#666666"
     borderopacity="1"
     objecttolerance="10"
     gridtolerance="10"
     guidetolerance="10"
     inkscape:pageopacity="0"
     inkscape:pageshadow="2"
     inkscape:window-width="1920"
     inkscape:window-height="1017"
     id="namedview31"
     showgrid="false"
     inkscape:zoom="3.8808652"
     inkscape:cx="-26.129253"
     inkscape:cy="38.781741"
     inkscape:window-x="-8"
     inkscape:window-y="-8"
     inkscape:window-maximized="1"
     inkscape:current-layer="Layer_1" /><metadata
     id="metadata35"><rdf:RDF><cc:Work
         rdf:about=""><dc:format>image/svg+xml</dc:format><dc:type
           rdf:resource="http://purl.org/dc/dcmitype/StillImage" /><dc:title /></cc:Work></rdf:RDF></metadata><defs
     id="defs33" /><g
     id="g4845"
     transform="translate(67.715766,39.669954)"><path
       d="m -367.11436,241.98788 c 0,0 -11.23531,4.21124 -11.23531,27.36278"
       style="fill:none;stroke:#ffffff;stroke-width:1.14249587;stroke-linecap:round;stroke-linejoin:miter;stroke-miterlimit:10;stroke-dasharray:none;stroke-opacity:1"
       id="path9590"
       inkscape:connector-curvature="0" /><path
       d="m -369.31012,246.76089 c -0.6318,-0.0423 -1.10937,-0.58953 -1.0671,-1.22019 0.0434,-0.6318 0.58953,-1.10936 1.22133,-1.06709 0.922,0.0617 1.85656,1.04424 1.84056,1.2716 -0.0148,0.22279 -0.98254,1.08423 -1.99479,1.01568 z"
       style="fill:none;stroke:#ffffff;stroke-width:1.14249587;stroke-linecap:round;stroke-linejoin:miter;stroke-miterlimit:10;stroke-dasharray:none;stroke-opacity:1"
       id="path9594"
       inkscape:connector-curvature="0" /><path
       d="m -367.31521,245.74567 2.64259,0.17708"
       style="fill:none;stroke:#ffffff;stroke-width:1.14249587;stroke-linecap:round;stroke-linejoin:miter;stroke-miterlimit:10;stroke-dasharray:none;stroke-opacity:1"
       id="path9598"
       inkscape:connector-curvature="0" /><path
       d="m -371.19673,248.66657 c -0.6318,-0.0457 -1.10593,-0.59524 -1.06023,-1.2259 0.0457,-0.6318 0.59524,-1.10707 1.22704,-1.06023 0.92199,0.0663 1.85084,1.05338 1.8337,1.28188 -0.0171,0.22164 -0.9894,1.07737 -2.00051,1.00425 z"
       style="fill:none;stroke:#ffffff;stroke-width:1.14249587;stroke-linecap:round;stroke-linejoin:miter;stroke-miterlimit:10;stroke-dasharray:none;stroke-opacity:1"
       id="path9602"
       inkscape:connector-curvature="0" /><path
       d="m -369.25985,247.65798 2.64145,0.19079"
       style="fill:none;stroke:#ffffff;stroke-width:1.14249587;stroke-linecap:round;stroke-linejoin:miter;stroke-miterlimit:10;stroke-dasharray:none;stroke-opacity:1"
       id="path9606"
       inkscape:connector-curvature="0" /><path
       d="m -372.73864,251.11003 c -0.6318,-0.0457 -1.10708,-0.59524 -1.06138,-1.2259 0.0457,-0.6318 0.59524,-1.10708 1.22704,-1.06024 0.922,0.0663 1.85084,1.05339 1.83371,1.28188 -0.016,0.22165 -0.98826,1.07738 -1.99937,1.00426 z"
       style="fill:none;stroke:#ffffff;stroke-width:1.14249587;stroke-linecap:round;stroke-linejoin:miter;stroke-miterlimit:10;stroke-dasharray:none;stroke-opacity:1"
       id="path9610"
       inkscape:connector-curvature="0" /><path
       d="m -370.8654,250.09583 2.64145,0.1908"
       style="fill:none;stroke:#ffffff;stroke-width:1.14249587;stroke-linecap:round;stroke-linejoin:miter;stroke-miterlimit:10;stroke-dasharray:none;stroke-opacity:1"
       id="path9614"
       inkscape:connector-curvature="0" /><path
       d="m -374.09204,253.74531 c -0.62609,-0.0937 -1.0591,-0.67636 -0.96541,-1.30245 0.0925,-0.62608 0.67521,-1.05795 1.30244,-0.9654 0.91514,0.13595 1.7663,1.18933 1.73317,1.41555 -0.0331,0.2205 -1.06709,1.00082 -2.0702,0.8523 z"
       style="fill:none;stroke:#ffffff;stroke-width:1.14249587;stroke-linecap:round;stroke-linejoin:miter;stroke-miterlimit:10;stroke-dasharray:none;stroke-opacity:1"
       id="path9618"
       inkscape:connector-curvature="0" /><path
       d="m -371.98562,252.89906 2.61974,0.38845"
       style="fill:none;stroke:#ffffff;stroke-width:1.14249587;stroke-linecap:round;stroke-linejoin:miter;stroke-miterlimit:10;stroke-dasharray:none;stroke-opacity:1"
       id="path9622"
       inkscape:connector-curvature="0" /><path
       d="m -369.74187,243.12924 c 0.0251,0.63294 -0.46728,1.16534 -1.10023,1.19048 -0.63294,0.024 -1.1642,-0.46843 -1.19048,-1.10023 -0.0354,-0.92542 0.84088,-1.95709 1.07052,-1.96623 0.22279,-0.0114 1.18134,0.86258 1.22019,1.87598 z"
       style="fill:none;stroke:#ffffff;stroke-width:1.14249587;stroke-linecap:round;stroke-linejoin:miter;stroke-miterlimit:10;stroke-dasharray:none;stroke-opacity:1"
       id="path9626"
       inkscape:connector-curvature="0" /><path
       d="m -370.96137,241.26263 -0.10511,-2.64602"
       style="fill:none;stroke:#ffffff;stroke-width:1.14249587;stroke-linecap:round;stroke-linejoin:miter;stroke-miterlimit:10;stroke-dasharray:none;stroke-opacity:1"
       id="path9630"
       inkscape:connector-curvature="0" /><path
       d="m -372.00459,244.97243 c 0.0446,0.6318 -0.43186,1.17905 -1.06366,1.22361 -0.63066,0.0446 -1.17906,-0.43186 -1.22361,-1.06366 -0.0651,-0.92314 0.78146,-1.98109 1.00996,-1.99709 0.22165,-0.016 1.20648,0.82603 1.27731,1.83714 z"
       style="fill:none;stroke:#ffffff;stroke-width:1.14249587;stroke-linecap:round;stroke-linejoin:miter;stroke-miterlimit:10;stroke-dasharray:none;stroke-opacity:1"
       id="path9634"
       inkscape:connector-curvature="0" /><path
       d="m -373.25413,243.20624 -0.18509,-2.64259"
       style="fill:none;stroke:#ffffff;stroke-width:1.14249587;stroke-linecap:round;stroke-linejoin:miter;stroke-miterlimit:10;stroke-dasharray:none;stroke-opacity:1"
       id="path9638"
       inkscape:connector-curvature="0" /><path
       d="m -373.96602,247.42308 c 0.0548,0.63066 -0.4113,1.18705 -1.04196,1.24189 -0.6318,0.0548 -1.18705,-0.41244 -1.24189,-1.0431 -0.08,-0.92199 0.74719,-1.99479 0.97455,-2.01422 0.22278,-0.0194 1.22132,0.80546 1.3093,1.81543 z"
       style="fill:none;stroke:#ffffff;stroke-width:1.14249587;stroke-linecap:round;stroke-linejoin:miter;stroke-miterlimit:10;stroke-dasharray:none;stroke-opacity:1"
       id="path9642"
       inkscape:connector-curvature="0" /><path
       d="m -375.26584,245.71493 -0.2285,-2.63802"
       style="fill:none;stroke:#ffffff;stroke-width:1.14249587;stroke-linecap:round;stroke-linejoin:miter;stroke-miterlimit:10;stroke-dasharray:none;stroke-opacity:1"
       id="path9646"
       inkscape:connector-curvature="0" /><path
       d="m -375.70205,249.97027 c 0.16681,0.61124 -0.19194,1.24076 -0.80317,1.4087 -0.61009,0.16681 -1.24075,-0.19194 -1.4087,-0.80317 -0.24335,-0.89229 0.37817,-2.09648 0.59867,-2.15589 0.21365,-0.0594 1.34586,0.57353 1.6132,1.55036 z"
       style="fill:none;stroke:#ffffff;stroke-width:1.14249587;stroke-linecap:round;stroke-linejoin:miter;stroke-miterlimit:10;stroke-dasharray:none;stroke-opacity:1"
       id="path9650"
       inkscape:connector-curvature="0" /><path
       d="m -377.32428,248.38826 -0.6992,-2.55348"
       style="fill:none;stroke:#ffffff;stroke-width:1.14249587;stroke-linecap:round;stroke-linejoin:miter;stroke-miterlimit:10;stroke-dasharray:none;stroke-opacity:1"
       id="path9654"
       inkscape:connector-curvature="0" /><path
       d="m -375.08281,256.44034 c -0.63295,0 -1.14593,-0.51412 -1.14478,-1.14706 0,-0.63295 0.51298,-1.14593 1.14706,-1.14478 0.92542,0 1.92168,0.91856 1.92168,1.14706 0,0.22279 -0.90943,1.14593 -1.92396,1.14478 z"
       style="fill:none;stroke:#ffffff;stroke-width:1.14249587;stroke-linecap:round;stroke-linejoin:miter;stroke-miterlimit:10;stroke-dasharray:none;stroke-opacity:1"
       id="path9658"
       inkscape:connector-curvature="0" /><path
       d="m -373.12138,255.29568 h 2.64717"
       style="fill:none;stroke:#ffffff;stroke-width:1.14249587;stroke-linecap:round;stroke-linejoin:miter;stroke-miterlimit:10;stroke-dasharray:none;stroke-opacity:1"
       id="path9662"
       inkscape:connector-curvature="0" /><path
       d="m -376.66266,252.63572 c 0.29591,0.55982 0.0811,1.25332 -0.4787,1.54808 -0.55983,0.29591 -1.25332,0.0811 -1.54808,-0.47871 -0.43187,-0.81802 -0.0868,-2.12847 0.11653,-2.23472 0.19651,-0.10397 1.43726,0.26849 1.91025,1.16535 z"
       style="fill:none;stroke:#ffffff;stroke-width:1.14249587;stroke-linecap:round;stroke-linejoin:miter;stroke-miterlimit:10;stroke-dasharray:none;stroke-opacity:1"
       id="path9666"
       inkscape:connector-curvature="0" /><path
       d="m -378.58845,251.44192 -1.23504,-2.34211"
       style="fill:none;stroke:#ffffff;stroke-width:1.14249587;stroke-linecap:round;stroke-linejoin:miter;stroke-miterlimit:10;stroke-dasharray:none;stroke-opacity:1"
       id="path9670"
       inkscape:connector-curvature="0" /><path
       d="m -367.52269,244.80734 c -0.47756,0 -0.86487,-0.38731 -0.86487,-0.86487 0,-0.47757 0.38731,-0.86602 0.86487,-0.86602 0.69807,0 1.45211,0.6935 1.45211,0.86602 0,0.16794 -0.68664,0.86487 -1.45211,0.86487 z"
       style="fill:none;stroke:#ffffff;stroke-width:1.14249587;stroke-linecap:round;stroke-linejoin:miter;stroke-miterlimit:10;stroke-dasharray:none;stroke-opacity:1"
       id="path9674"
       inkscape:connector-curvature="0" /><path
       d="m -366.07115,243.94212 h 2.63917"
       style="fill:none;stroke:#ffffff;stroke-width:1.14249587;stroke-linecap:round;stroke-linejoin:miter;stroke-miterlimit:10;stroke-dasharray:none;stroke-opacity:1"
       id="path9678"
       inkscape:connector-curvature="0" /><path
       d="m -369.91702,241.66216 c 0,0.47756 0.38731,0.86487 0.86487,0.86487 0.47756,0 0.86601,-0.38731 0.86601,-0.86487 0,-0.69807 -0.69349,-1.45097 -0.86601,-1.45097 -0.16909,0 -0.86487,0.6855 -0.86487,1.45097 z"
       style="fill:none;stroke:#ffffff;stroke-width:1.14249587;stroke-linecap:round;stroke-linejoin:miter;stroke-miterlimit:10;stroke-dasharray:none;stroke-opacity:1"
       id="path9682"
       inkscape:connector-curvature="0" /><path
       d="m -369.05238,240.21107 v -2.63916"
       style="fill:none;stroke:#ffffff;stroke-width:1.14249587;stroke-linecap:round;stroke-linejoin:miter;stroke-miterlimit:10;stroke-dasharray:none;stroke-opacity:1"
       id="path9686"
       inkscape:connector-curvature="0" /><path
       d="m -365.94616,241.97177 c -0.34846,0.32676 -0.89572,0.30848 -1.22247,-0.0411 -0.32561,-0.34847 -0.30847,-0.89572 0.0411,-1.22248 0.50955,-0.47756 1.53323,-0.48556 1.65091,-0.35874 0.11539,0.12225 0.0891,1.09908 -0.46957,1.62234 z"
       style="fill:none;stroke:#ffffff;stroke-width:1.14249587;stroke-linecap:round;stroke-linejoin:miter;stroke-miterlimit:10;stroke-dasharray:none;stroke-opacity:1"
       id="path9690"
       inkscape:connector-curvature="0" /><path
       d="m -365.47648,240.34886 1.92739,-1.80286"
       style="fill:none;stroke:#ffffff;stroke-width:1.14249587;stroke-linecap:round;stroke-linejoin:miter;stroke-miterlimit:10;stroke-dasharray:none;stroke-opacity:1"
       id="path9694"
       inkscape:connector-curvature="0" /><path
       d="m -384.73599,240.36897 c 0,0 -6.83441,9.86202 6.3557,28.88801"
       style="fill:none;stroke:#ffffff;stroke-width:1.14249587;stroke-linecap:round;stroke-linejoin:miter;stroke-miterlimit:10;stroke-dasharray:none;stroke-opacity:1"
       id="path9698"
       inkscape:connector-curvature="0" /><path
       d="m -383.82108,245.54253 c -0.54383,0.32561 -1.2476,0.14853 -1.57207,-0.3953 -0.32562,-0.54269 -0.14853,-1.24646 0.3953,-1.57208 0.79289,-0.47527 2.11933,-0.19993 2.23815,0 0.11311,0.1908 -0.19194,1.44983 -1.06138,1.97081 z"
       style="fill:none;stroke:#ffffff;stroke-width:1.14249587;stroke-linecap:round;stroke-linejoin:miter;stroke-miterlimit:10;stroke-dasharray:none;stroke-opacity:1"
       id="path9702"
       inkscape:connector-curvature="0" /><path
       d="m -382.76004,243.57161 2.27128,-1.35957"
       style="fill:none;stroke:#ffffff;stroke-width:1.14249587;stroke-linecap:round;stroke-linejoin:miter;stroke-miterlimit:10;stroke-dasharray:none;stroke-opacity:1"
       id="path9706"
       inkscape:connector-curvature="0" /><path
       d="m -384.28642,248.1841 c -0.54611,0.32218 -1.24875,0.14167 -1.56979,-0.40445 -0.32218,-0.54497 -0.14167,-1.2476 0.4033,-1.56979 0.79747,-0.4707 2.12162,-0.18851 2.23815,0.0114 0.11311,0.19194 -0.19879,1.44868 -1.07166,1.96509 z"
       style="fill:none;stroke:#ffffff;stroke-width:1.14249587;stroke-linecap:round;stroke-linejoin:miter;stroke-miterlimit:10;stroke-dasharray:none;stroke-opacity:1"
       id="path9710"
       inkscape:connector-curvature="0" /><path
       d="m -383.2688,246.25111 2.27928,-1.34701"
       style="fill:none;stroke:#ffffff;stroke-width:1.14249587;stroke-linecap:round;stroke-linejoin:miter;stroke-miterlimit:10;stroke-dasharray:none;stroke-opacity:1"
       id="path9714"
       inkscape:connector-curvature="0" /><path
       d="m -384.52737,251.3231 c -0.54497,0.32219 -1.24761,0.14282 -1.56979,-0.4033 -0.32218,-0.54497 -0.14167,-1.2476 0.4033,-1.56979 0.79632,-0.4707 2.12162,-0.18851 2.23815,0.0114 0.11311,0.19194 -0.19879,1.44983 -1.07166,1.96509 z"
       style="fill:none;stroke:#ffffff;stroke-width:1.14249587;stroke-linecap:round;stroke-linejoin:miter;stroke-miterlimit:10;stroke-dasharray:none;stroke-opacity:1"
       id="path9718"
       inkscape:connector-curvature="0" /><path
       d="m -383.56447,249.42302 2.27927,-1.34815"
       style="fill:none;stroke:#ffffff;stroke-width:1.14249587;stroke-linecap:round;stroke-linejoin:miter;stroke-miterlimit:10;stroke-dasharray:none;stroke-opacity:1"
       id="path9722"
       inkscape:connector-curvature="0" /><path
       d="m -384.33212,254.11913 c -0.56211,0.2902 -1.25446,0.0708 -1.54579,-0.49127 -0.2902,-0.56211 -0.0708,-1.25332 0.49127,-1.54465 0.8226,-0.42615 2.12847,-0.0697 2.23472,0.13367 0.10283,0.19765 -0.27991,1.43612 -1.1802,1.90225 z"
       style="fill:none;stroke:#ffffff;stroke-width:1.14249587;stroke-linecap:round;stroke-linejoin:miter;stroke-miterlimit:10;stroke-dasharray:none;stroke-opacity:1"
       id="path9726"
       inkscape:connector-curvature="0" /><path
       d="m -383.11936,252.20008 2.3524,-1.21675"
       style="fill:none;stroke:#ffffff;stroke-width:1.14249587;stroke-linecap:round;stroke-linejoin:miter;stroke-miterlimit:10;stroke-dasharray:none;stroke-opacity:1"
       id="path9730"
       inkscape:connector-curvature="0" /><path
       d="m -386.24557,242.80408 c 0.38045,0.50499 0.27991,1.22362 -0.22621,1.60521 -0.50613,0.38045 -1.22476,0.27877 -1.60521,-0.22621 -0.5564,-0.7392 -0.42387,-2.08849 -0.23993,-2.22559 0.17709,-0.13367 1.4624,0.0366 2.07135,0.84659 z"
       style="fill:none;stroke:#ffffff;stroke-width:1.14249587;stroke-linecap:round;stroke-linejoin:miter;stroke-miterlimit:10;stroke-dasharray:none;stroke-opacity:1"
       id="path9734"
       inkscape:connector-curvature="0" /><path
       d="m -388.31189,241.96503 -1.59378,-2.1159"
       style="fill:none;stroke:#ffffff;stroke-width:1.14249587;stroke-linecap:round;stroke-linejoin:miter;stroke-miterlimit:10;stroke-dasharray:none;stroke-opacity:1"
       id="path9738"
       inkscape:connector-curvature="0" /><path
       d="m -387.0556,245.60845 c 0.39759,0.49356 0.31761,1.21448 -0.17594,1.61092 -0.4947,0.39645 -1.21562,0.31647 -1.61092,-0.17708 -0.57925,-0.72092 -0.48785,-2.07363 -0.30962,-2.21645 0.17366,-0.13938 1.4624,-0.0114 2.09648,0.78261 z"
       style="fill:none;stroke:#ffffff;stroke-width:1.14249587;stroke-linecap:round;stroke-linejoin:miter;stroke-miterlimit:10;stroke-dasharray:none;stroke-opacity:1"
       id="path9742"
       inkscape:connector-curvature="0" /><path
       d="m -389.08844,244.86869 -1.65776,-2.06564"
       style="fill:none;stroke:#ffffff;stroke-width:1.14249587;stroke-linecap:round;stroke-linejoin:miter;stroke-miterlimit:10;stroke-dasharray:none;stroke-opacity:1"
       id="path9746"
       inkscape:connector-curvature="0" /><path
       d="m -387.27096,248.73969 c 0.40444,0.48671 0.33818,1.20991 -0.14967,1.61435 -0.4867,0.40444 -1.20876,0.33704 -1.61434,-0.14967 -0.59067,-0.71177 -0.52212,-2.06449 -0.34618,-2.21073 0.17252,-0.14281 1.46354,-0.0343 2.11019,0.74605 z"
       style="fill:none;stroke:#ffffff;stroke-width:1.14249587;stroke-linecap:round;stroke-linejoin:miter;stroke-miterlimit:10;stroke-dasharray:none;stroke-opacity:1"
       id="path9750"
       inkscape:connector-curvature="0" /><path
       d="m -389.31157,248.07636 -1.6909,-2.03707"
       style="fill:none;stroke:#ffffff;stroke-width:1.14249587;stroke-linecap:round;stroke-linejoin:miter;stroke-miterlimit:10;stroke-dasharray:none;stroke-opacity:1"
       id="path9754"
       inkscape:connector-curvature="0" /><path
       d="m -386.67515,251.82237 c 0.48556,0.40673 0.5484,1.12993 0.14281,1.61549 -0.40558,0.48442 -1.12878,0.5484 -1.61434,0.14282 -0.70949,-0.59524 -0.88544,-1.93882 -0.7392,-2.11362 0.14396,-0.17138 1.43269,-0.29591 2.21073,0.35531 z"
       style="fill:none;stroke:#ffffff;stroke-width:1.14249587;stroke-linecap:round;stroke-linejoin:miter;stroke-miterlimit:10;stroke-dasharray:none;stroke-opacity:1"
       id="path9758"
       inkscape:connector-curvature="0" /><path
       d="m -388.90987,251.44638 -2.02907,-1.70003"
       style="fill:none;stroke:#ffffff;stroke-width:1.14249587;stroke-linecap:round;stroke-linejoin:miter;stroke-miterlimit:10;stroke-dasharray:none;stroke-opacity:1"
       id="path9762"
       inkscape:connector-curvature="0" /><path
       d="m -383.46519,242.91902 c -0.39302,0.27191 -0.93228,0.1748 -1.20534,-0.21822 -0.27191,-0.39302 -0.17365,-0.93113 0.21936,-1.20419 0.57354,-0.39759 1.58579,-0.25706 1.68519,-0.11539 0.096,0.13824 -0.0708,1.10251 -0.69921,1.5378 z"
       style="fill:none;stroke:#ffffff;stroke-width:1.14249587;stroke-linecap:round;stroke-linejoin:miter;stroke-miterlimit:10;stroke-dasharray:none;stroke-opacity:1"
       id="path9766"
       inkscape:connector-curvature="0" /><path
       d="m -382.76564,241.38099 2.16731,-1.50352"
       style="fill:none;stroke:#ffffff;stroke-width:1.14249587;stroke-linecap:round;stroke-linejoin:miter;stroke-miterlimit:10;stroke-dasharray:none;stroke-opacity:1"
       id="path9770"
       inkscape:connector-curvature="0" /><path
       d="m -387.22629,241.69838 c 0.27192,0.39301 0.81117,0.49013 1.20419,0.21821 0.39188,-0.27191 0.49013,-0.81117 0.21822,-1.20419 -0.39873,-0.57353 -1.39613,-0.7986 -1.5378,-0.69921 -0.13824,0.096 -0.32104,1.05681 0.11539,1.68519 z"
       style="fill:none;stroke:#ffffff;stroke-width:1.14249587;stroke-linecap:round;stroke-linejoin:miter;stroke-miterlimit:10;stroke-dasharray:none;stroke-opacity:1"
       id="path9774"
       inkscape:connector-curvature="0" /><path
       d="m -387.34122,240.01308 -1.50353,-2.16846"
       style="fill:none;stroke:#ffffff;stroke-width:1.14249587;stroke-linecap:round;stroke-linejoin:miter;stroke-miterlimit:10;stroke-dasharray:none;stroke-opacity:1"
       id="path9778"
       inkscape:connector-curvature="0" /><path
       d="m -383.78543,239.6901 c -0.10054,0.46728 -0.56097,0.76433 -1.02825,0.66379 -0.46728,-0.10169 -0.76319,-0.56211 -0.66265,-1.02825 0.14624,-0.68321 0.98255,-1.27274 1.1505,-1.23618 0.16566,0.0354 0.70263,0.8523 0.5404,1.60064 z"
       style="fill:none;stroke:#ffffff;stroke-width:1.14249587;stroke-linecap:round;stroke-linejoin:miter;stroke-miterlimit:10;stroke-dasharray:none;stroke-opacity:1"
       id="path9782"
       inkscape:connector-curvature="0" /><path
       d="m -384.32538,238.089 0.5564,-2.57975"
       style="fill:none;stroke:#ffffff;stroke-width:1.14249587;stroke-linecap:round;stroke-linejoin:miter;stroke-miterlimit:10;stroke-dasharray:none;stroke-opacity:1"
       id="path9786"
       inkscape:connector-curvature="0" /></g></svg>