<?xml version="1.0" encoding="UTF-8" standalone="no"?>
<svg
   xmlns:dc="http://purl.org/dc/elements/1.1/"
   xmlns:cc="http://creativecommons.org/ns#"
   xmlns:rdf="http://www.w3.org/1999/02/22-rdf-syntax-ns#"
   xmlns:svg="http://www.w3.org/2000/svg"
   xmlns="http://www.w3.org/2000/svg"
   xmlns:sodipodi="http://sodipodi.sourceforge.net/DTD/sodipodi-0.dtd"
   xmlns:inkscape="http://www.inkscape.org/namespaces/inkscape"
   xml:space="preserve"
   enable-background="new -331 270.6 54.2 55.6"
   viewBox="-331 270.6 42.999999 43.000001"
   height="43"
   width="43"
   y="0px"
   x="0px"
   id="Layer_1"
   version="1.1"
   sodipodi:docname="cwrwheat.svg"
   inkscape:version="0.92.1 r15371"><sodipodi:namedview
     pagecolor="#ffffff"
     bordercolor="#666666"
     borderopacity="1"
     objecttolerance="10"
     gridtolerance="10"
     guidetolerance="10"
     inkscape:pageopacity="0"
     inkscape:pageshadow="2"
     inkscape:window-width="1920"
     inkscape:window-height="1017"
     id="namedview31"
     showgrid="false"
     inkscape:zoom="7.7617304"
     inkscape:cx="-14.496142"
     inkscape:cy="47.230634"
     inkscape:window-x="-8"
     inkscape:window-y="-8"
     inkscape:window-maximized="1"
     inkscape:current-layer="Layer_1" /><metadata
     id="metadata35"><rdf:RDF><cc:Work
         rdf:about=""><dc:format>image/svg+xml</dc:format><dc:type
           rdf:resource="http://purl.org/dc/dcmitype/StillImage" /><dc:title /></cc:Work></rdf:RDF></metadata><defs
     id="defs33" /><g
     id="g4744"
     transform="matrix(0.5754781,0,0,0.5754781,-114.494,149.88787)"><path
       d="m -329.94143,260.92233 c -1.7614,1.52724 -1.38935,3.10652 -2.35721,4.23829 0.96786,0.026 3.29124,0.91322 5.05264,-0.61402 1.7614,-1.52724 2.12825,-4.82368 2.86455,-6.40816 -1.56366,0.80395 -3.79858,1.25665 -5.55998,2.78389 z"
       style="fill:none;stroke:#ffffff;stroke-width:2.60176992;stroke-linecap:round;stroke-linejoin:round;stroke-miterlimit:10;stroke-dasharray:none;stroke-opacity:1"
       id="path11472"
       inkscape:connector-curvature="0" /><path
       d="m -324.99963,258.42723 c 1.06152,-1.764 1.3269,-3.98331 1.84465,-5.10467 -1.56366,0.80395 -3.79858,1.25666 -5.55998,2.7839 -0.66085,0.57239 -1.23844,1.28267 -1.3295,1.94092"
       style="fill:none;stroke:#ffffff;stroke-width:2.60176992;stroke-linecap:round;stroke-linejoin:round;stroke-miterlimit:10;stroke-dasharray:none;stroke-opacity:1"
       id="path11476"
       inkscape:connector-curvature="0" /><path
       d="m -331.77854,264.25832 c -0.8794,-0.48393 -1.72498,-2.22191 -2.07361,-3.47596 -0.61922,-2.24533 0.89761,-5.19574 1.16039,-6.92331 0.85858,1.53504 2.47168,3.14814 3.0935,5.39607 0.19513,0.70768 0.21074,1.30088 0.21074,1.30088"
       style="fill:none;stroke:#ffffff;stroke-width:2.60176992;stroke-linecap:round;stroke-linejoin:round;stroke-miterlimit:10;stroke-dasharray:none;stroke-opacity:1"
       id="path11480"
       inkscape:connector-curvature="0" /><path
       d="m -331.89796,255.08604 c -0.7337,-2.52892 0.49694,-4.65456 0.76232,-6.37954 0.85598,1.53505 2.46908,3.14814 3.0909,5.39607 0.19773,0.70508 0.21074,1.30089 0.21074,1.30089"
       style="fill:none;stroke:#ffffff;stroke-width:2.60176992;stroke-linecap:round;stroke-linejoin:round;stroke-miterlimit:10;stroke-dasharray:none;stroke-opacity:1"
       id="path11484"
       inkscape:connector-curvature="0" /><path
       d="m -323.42166,253.1956 c 1.06153,-1.764 1.32691,-3.98331 1.84726,-5.10468 -1.56366,0.80655 -3.80119,1.25666 -5.56258,2.7839 -0.65825,0.57499 -1.23845,1.28267 -1.32951,1.94092"
       style="fill:none;stroke:#ffffff;stroke-width:2.60176992;stroke-linecap:round;stroke-linejoin:round;stroke-miterlimit:10;stroke-dasharray:none;stroke-opacity:1"
       id="path11488"
       inkscape:connector-curvature="0" /><path
       d="m -330.31999,249.8557 c -0.7337,-2.52892 0.49694,-4.65456 0.76232,-6.37954 0.85598,1.53505 2.46908,3.14814 3.0909,5.39607 0.19774,0.70508 0.21335,1.29829 0.21335,1.29829"
       style="fill:none;stroke:#ffffff;stroke-width:2.60176992;stroke-linecap:round;stroke-linejoin:round;stroke-miterlimit:10;stroke-dasharray:none;stroke-opacity:1"
       id="path11492"
       inkscape:connector-curvature="0" /><path
       d="m -321.84394,247.96552 c 1.06152,-1.764 1.3269,-3.98331 1.84725,-5.10468 -1.56366,0.80395 -3.80118,1.25666 -5.55998,2.7839 -0.66085,0.57239 -1.23844,1.28267 -1.33211,1.94092"
       style="fill:none;stroke:#ffffff;stroke-width:2.60176992;stroke-linecap:round;stroke-linejoin:round;stroke-miterlimit:10;stroke-dasharray:none;stroke-opacity:1"
       id="path11496"
       inkscape:connector-curvature="0" /><path
       d="m -328.73967,244.62432 c -0.73631,-2.52892 0.49433,-4.65196 0.75971,-6.37954 0.85598,1.53505 2.46908,3.14815 3.09091,5.39608 0.19773,0.70507 0.21334,1.30088 0.21334,1.30088"
       style="fill:none;stroke:#ffffff;stroke-width:2.60176992;stroke-linecap:round;stroke-linejoin:round;stroke-miterlimit:10;stroke-dasharray:none;stroke-opacity:1"
       id="path11500"
       inkscape:connector-curvature="0" /><path
       d="m -320.26623,242.73518 c 1.06412,-1.764 1.3269,-3.98331 1.84726,-5.10467 -1.56367,0.80394 -3.79859,1.25665 -5.55999,2.78389 -0.66085,0.57239 -1.23844,1.28267 -1.3321,1.94092"
       style="fill:none;stroke:#ffffff;stroke-width:2.60176992;stroke-linecap:round;stroke-linejoin:round;stroke-miterlimit:10;stroke-dasharray:none;stroke-opacity:1"
       id="path11504"
       inkscape:connector-curvature="0" /><path
       d="m -327.1617,239.39399 c -0.7363,-2.52892 0.49694,-4.65457 0.75972,-6.37954 0.85858,1.53504 2.47168,3.14814 3.0909,5.39607 0.19773,0.70508 0.21334,1.30088 0.21334,1.30088"
       style="fill:none;stroke:#ffffff;stroke-width:2.60176992;stroke-linecap:round;stroke-linejoin:round;stroke-miterlimit:10;stroke-dasharray:none;stroke-opacity:1"
       id="path11508"
       inkscape:connector-curvature="0" /><path
       d="m -319.48622,238.02467 c 0.99388,-1.80302 1.52724,-4.67277 2.00597,-5.81495 -1.53245,0.86379 -4.16804,1.28787 -6.08815,3.59304"
       style="fill:none;stroke:#ffffff;stroke-width:2.60176992;stroke-linecap:round;stroke-linejoin:round;stroke-miterlimit:10;stroke-dasharray:none;stroke-opacity:1"
       id="path11512"
       inkscape:connector-curvature="0" /><path
       d="m -325.56369,234.2071 c -0.55418,-2.57315 0.82476,-4.60774 1.21242,-6.30929 0.74671,1.59228 2.24013,3.31465 2.70324,5.60161"
       style="fill:none;stroke:#ffffff;stroke-width:2.60176992;stroke-linecap:round;stroke-linejoin:round;stroke-miterlimit:10;stroke-dasharray:none;stroke-opacity:1"
       id="path11516"
       inkscape:connector-curvature="0" /><path
       d="m -317.71519,232.08796 c 0.86639,-1.86808 0.8898,-4.103 1.28527,-5.27379 -1.4648,0.96786 -4.42301,1.54805 -5.82016,4.00672"
       style="fill:none;stroke:#ffffff;stroke-width:2.60176992;stroke-linecap:round;stroke-linejoin:round;stroke-miterlimit:10;stroke-dasharray:none;stroke-opacity:1"
       id="path11520"
       inkscape:connector-curvature="0" /><path
       d="m -323.39122,229.11673 c -0.31481,-2.61217 1.24625,-4.50886 1.78742,-6.17139 0.59581,1.65472 2.16207,2.4977 2.40924,4.81587"
       style="fill:none;stroke:#ffffff;stroke-width:2.60176992;stroke-linecap:round;stroke-linejoin:round;stroke-miterlimit:10;stroke-dasharray:none;stroke-opacity:1"
       id="path11524"
       inkscape:connector-curvature="0" /><path
       d="m -317.92594,227.27208 c 0,0 2.09963,-3.20538 0.37466,-5.93204 0,0 -2.24013,0.55938 -2.91399,3.49158"
       style="fill:none;stroke:#ffffff;stroke-width:2.60176992;stroke-linecap:round;stroke-linejoin:round;stroke-miterlimit:10;stroke-dasharray:none;stroke-opacity:1"
       id="path11528"
       inkscape:connector-curvature="0" /><path
       d="m -332.29942,265.16166 c 0,0 -1.69895,7.22771 -1.84465,11.04711"
       style="fill:none;stroke:#ffffff;stroke-width:2.60176992;stroke-linecap:round;stroke-linejoin:round;stroke-miterlimit:10;stroke-dasharray:none;stroke-opacity:1"
       id="path11532"
       inkscape:connector-curvature="0" /><path
       d="m -348.82716,252.30137 c 1.7614,1.52724 1.38935,3.10651 2.3572,4.23828 -0.96785,0.026 -3.29124,0.91322 -5.05263,-0.61402 -1.7614,-1.52724 -2.12825,-4.82368 -2.86455,-6.40816 1.56366,0.80395 3.79858,1.25666 5.55998,2.7839 z"
       style="fill:none;stroke:#ffffff;stroke-width:2.60176992;stroke-linecap:round;stroke-linejoin:round;stroke-miterlimit:10;stroke-dasharray:none;stroke-opacity:1"
       id="path11536"
       inkscape:connector-curvature="0" /><path
       d="m -353.76896,249.80627 c -1.06152,-1.764 -1.3269,-3.98331 -1.84466,-5.10467 1.56367,0.80394 3.79859,1.25665 5.55999,2.78389 0.66085,0.57239 1.23844,1.28267 1.3295,1.94092"
       style="fill:none;stroke:#ffffff;stroke-width:2.60176992;stroke-linecap:round;stroke-linejoin:round;stroke-miterlimit:10;stroke-dasharray:none;stroke-opacity:1"
       id="path11540"
       inkscape:connector-curvature="0" /><path
       d="m -346.99005,255.63736 c 0.8794,-0.48393 1.72497,-2.22191 2.07361,-3.47597 0.61922,-2.24533 -0.89761,-5.19573 -1.16039,-6.92331 -0.85858,1.53505 -2.47168,3.14814 -3.0935,5.39607 -0.19514,0.70508 -0.21075,1.30089 -0.21075,1.30089"
       style="fill:none;stroke:#ffffff;stroke-width:2.60176992;stroke-linecap:round;stroke-linejoin:round;stroke-miterlimit:10;stroke-dasharray:none;stroke-opacity:1"
       id="path11544"
       inkscape:connector-curvature="0" /><path
       d="m -346.87063,246.46508 c 0.7363,-2.52892 -0.49694,-4.65457 -0.76232,-6.37954 -0.85598,1.53504 -2.46908,3.14814 -3.0909,5.39607 -0.19773,0.70508 -0.21074,1.30088 -0.21074,1.30088"
       style="fill:none;stroke:#ffffff;stroke-width:2.60176992;stroke-linecap:round;stroke-linejoin:round;stroke-miterlimit:10;stroke-dasharray:none;stroke-opacity:1"
       id="path11548"
       inkscape:connector-curvature="0" /><path
       d="m -355.34694,244.57489 c -1.06152,-1.764 -1.3269,-3.98331 -1.84725,-5.10467 1.56366,0.80394 3.80118,1.25665 5.56258,2.78389 0.65825,0.57239 1.23844,1.28267 1.32951,1.94092"
       style="fill:none;stroke:#ffffff;stroke-width:2.60176992;stroke-linecap:round;stroke-linejoin:round;stroke-miterlimit:10;stroke-dasharray:none;stroke-opacity:1"
       id="path11552"
       inkscape:connector-curvature="0" /><path
       d="m -348.4486,241.2337 c 0.7337,-2.52632 -0.49694,-4.65197 -0.76232,-6.37954 -0.85598,1.53504 -2.46908,3.14814 -3.0909,5.39607 -0.19774,0.70768 -0.21335,1.30088 -0.21335,1.30088"
       style="fill:none;stroke:#ffffff;stroke-width:2.60176992;stroke-linecap:round;stroke-linejoin:round;stroke-miterlimit:10;stroke-dasharray:none;stroke-opacity:1"
       id="path11556"
       inkscape:connector-curvature="0" /><path
       d="m -356.92465,239.34455 c -1.06152,-1.764 -1.3269,-3.98331 -1.84726,-5.10467 1.56367,0.80395 3.80119,1.25665 5.55999,2.78389 0.66085,0.57239 1.23844,1.28268 1.3321,1.94092"
       style="fill:none;stroke:#ffffff;stroke-width:2.60176992;stroke-linecap:round;stroke-linejoin:round;stroke-miterlimit:10;stroke-dasharray:none;stroke-opacity:1"
       id="path11560"
       inkscape:connector-curvature="0" /><path
       d="m -350.02892,236.00336 c 0.7363,-2.52892 -0.49433,-4.65457 -0.75971,-6.37954 -0.85599,1.53504 -2.46908,3.14814 -3.09091,5.39607 -0.19773,0.70508 -0.21334,1.30089 -0.21334,1.30089"
       style="fill:none;stroke:#ffffff;stroke-width:2.60176992;stroke-linecap:round;stroke-linejoin:round;stroke-miterlimit:10;stroke-dasharray:none;stroke-opacity:1"
       id="path11564"
       inkscape:connector-curvature="0" /><path
       d="m -358.50236,234.11447 c -1.06413,-1.764 -1.3269,-3.98331 -1.84726,-5.10467 1.56366,0.80395 3.79859,1.25666 5.55998,2.7839 0.66085,0.57239 1.23845,1.28267 1.33211,1.94092"
       style="fill:none;stroke:#ffffff;stroke-width:2.60176992;stroke-linecap:round;stroke-linejoin:round;stroke-miterlimit:10;stroke-dasharray:none;stroke-opacity:1"
       id="path11568"
       inkscape:connector-curvature="0" /><path
       d="m -351.60689,230.77328 c 0.7363,-2.52892 -0.49694,-4.65457 -0.75972,-6.37954 -0.85858,1.53505 -2.47168,3.14814 -3.0909,5.39607 -0.19774,0.70508 -0.21335,1.29829 -0.21335,1.29829"
       style="fill:none;stroke:#ffffff;stroke-width:2.60176992;stroke-linecap:round;stroke-linejoin:round;stroke-miterlimit:10;stroke-dasharray:none;stroke-opacity:1"
       id="path11572"
       inkscape:connector-curvature="0" /><path
       d="m -359.28237,229.40371 c -0.99388,-1.80303 -1.52724,-4.67278 -2.00597,-5.81496 1.53245,0.86379 4.16804,1.28788 6.08814,3.59305"
       style="fill:none;stroke:#ffffff;stroke-width:2.60176992;stroke-linecap:round;stroke-linejoin:round;stroke-miterlimit:10;stroke-dasharray:none;stroke-opacity:1"
       id="path11576"
       inkscape:connector-curvature="0" /><path
       d="m -353.2049,225.58613 c 0.55418,-2.57315 -0.82476,-4.60773 -1.21242,-6.30929 -0.74671,1.59228 -2.24013,3.31466 -2.70324,5.59901"
       style="fill:none;stroke:#ffffff;stroke-width:2.60176992;stroke-linecap:round;stroke-linejoin:round;stroke-miterlimit:10;stroke-dasharray:none;stroke-opacity:1"
       id="path11580"
       inkscape:connector-curvature="0" /><path
       d="m -358.88352,223.94598 c 0,0 -2.09963,-3.20538 -0.37466,-5.93464 0,0 2.24013,0.56198 2.91399,3.49418"
       style="fill:none;stroke:#ffffff;stroke-width:2.60176992;stroke-linecap:round;stroke-linejoin:round;stroke-miterlimit:10;stroke-dasharray:none;stroke-opacity:1"
       id="path11584"
       inkscape:connector-curvature="0" /><path
       d="m -346.46918,256.54069 c 0,0 5.22696,15.84998 5.37006,19.66938"
       style="fill:none;stroke:#ffffff;stroke-width:2.60176992;stroke-linecap:round;stroke-linejoin:round;stroke-miterlimit:10;stroke-dasharray:none;stroke-opacity:1"
       id="path11588"
       inkscape:connector-curvature="0" /></g></svg>