<?xml version="1.0" encoding="UTF-8" standalone="no"?>
<!-- Uploaded to: SVG Repo, www.svgrepo.com, Generator: SVG Repo Mixer Tools -->

<svg
   fill="#000000"
   height="800px"
   width="800px"
   version="1.1"
   id="Capa_1"
   viewBox="0 0 466 466"
   xml:space="preserve"
   sodipodi:docname="exhibit.svg"
   inkscape:version="1.4 (86a8ad7, 2024-10-11)"
   xmlns:inkscape="http://www.inkscape.org/namespaces/inkscape"
   xmlns:sodipodi="http://sodipodi.sourceforge.net/DTD/sodipodi-0.dtd"
   xmlns="http://www.w3.org/2000/svg"
   xmlns:svg="http://www.w3.org/2000/svg"><defs
   id="defs17">
	
	
	
	
	
</defs><sodipodi:namedview
   id="namedview15"
   pagecolor="#ffffff"
   bordercolor="#666666"
   borderopacity="1.0"
   inkscape:showpageshadow="2"
   inkscape:pageopacity="0.0"
   inkscape:pagecheckerboard="0"
   inkscape:deskcolor="#d1d1d1"
   showgrid="false"
   inkscape:zoom="1.07875"
   inkscape:cx="305.90962"
   inkscape:cy="400.927"
   inkscape:window-width="2880"
   inkscape:window-height="1514"
   inkscape:window-x="4309"
   inkscape:window-y="-11"
   inkscape:window-maximized="1"
   inkscape:current-layer="Capa_1" />
<path
   d="m 372.225,169.27 c 0.002,-0.005 0.003,-0.01 0.005,-0.014 l 18.766,-55.941 c 0.001,-0.003 0.002,-0.007 0.003,-0.01 l 11.852,-35.331 c 1.405,-4.189 -0.852,-8.724 -5.041,-10.129 -4.187,-1.403 -8.724,0.852 -10.129,5.04 l -10.921,32.554 -21.938,13.529 28.552,-85.111 c 1.405,-4.189 -0.852,-8.724 -5.041,-10.129 -4.187,-1.403 -8.724,0.852 -10.129,5.04 l -28.552,85.111 -9.341,-24.022 10.92,-32.553 c 1.405,-4.189 -0.852,-8.724 -5.041,-10.129 -4.187,-1.404 -8.724,0.852 -10.129,5.04 l -52.567,156.701 v -9.973 c 0,-0.002 0,-0.003 0,-0.005 v -59.013 c 0,-0.002 0,-0.003 0,-0.005 V 43.632 c 0,-4.418 -3.582,-8 -8,-8 -4.418,0 -8,3.582 -8,8 V 77.968 L 241,97.772 V 8 c 0,-4.418 -3.582,-8 -8,-8 -4.418,0 -8,3.582 -8,8 V 97.772 L 208.504,77.968 V 43.632 c 0,-4.418 -3.582,-8 -8,-8 -4.418,0 -8,3.582 -8,8 v 96.286 c 0,0.002 0,0.003 0,0.005 v 59.013 c 0,0.002 0,0.003 0,0.005 v 9.973 l -52.567,-156.7 c -1.404,-4.189 -5.941,-6.445 -10.129,-5.04 -4.189,1.405 -6.446,5.94 -5.041,10.129 l 10.92,32.553 -9.341,24.022 -28.551,-85.11 c -1.404,-4.189 -5.94,-6.444 -10.129,-5.04 -4.189,1.405 -6.446,5.94 -5.041,10.129 L 111.177,118.968 89.239,105.439 78.318,72.884 C 76.913,68.695 72.373,66.44 68.189,67.844 64,69.249 61.743,73.784 63.148,77.973 L 75,113.304 c 0.001,0.003 0.002,0.007 0.003,0.01 l 18.766,55.941 c 0.002,0.005 0.003,0.01 0.005,0.014 l 18.765,55.937 c 0.002,0.006 0.004,0.012 0.006,0.019 l 18.755,55.907 c 0.596,1.773 1.793,3.283 3.386,4.265 l 40.752,25.133 11.507,34.302 h -4.414 c -4.418,0 -8,3.582 -8,8 0,4.418 3.582,8 8,8 h 15.51 c 0.008,0 0.017,0.002 0.025,0.002 0.008,0 0.016,-0.002 0.024,-0.002 h 69.817 c 0.008,0 0.016,0.002 0.024,0.002 0.008,0 0.017,-0.002 0.025,-0.002 h 15.51 c 4.418,0 8,-3.582 8,-8 0,-4.418 -3.582,-8 -8,-8 h -4.414 l 11.507,-34.302 40.752,-25.133 c 1.593,-0.982 2.79,-2.491 3.386,-4.265 l 18.755,-55.907 c 0.002,-0.006 0.004,-0.013 0.006,-0.019 z m -68.633,0.241 9.34,24.022 -10.82,32.252 -9.34,-24.022 z m 24.51,29.111 21.937,-13.529 -10.82,32.252 -21.937,13.529 z m 40.708,-69.483 -10.82,32.252 -21.937,13.529 10.819,-32.252 z m -37.108,8.441 -10.819,32.252 -9.341,-24.022 10.82,-32.253 z m -46.881,87.885 9.34,24.022 -10.82,32.252 -9.34,-24.022 z M 257.496,196.003 241,215.808 v -34.017 l 16.496,-19.805 z M 225,215.808 208.504,196.003 V 161.986 L 225,181.791 Z m -16.496,5.196 16.496,19.805 v 34.018 L 208.504,255.022 Z M 241,240.809 257.496,221.004 v 34.018 L 241,274.827 Z m 16.496,-137.842 v 34.018 L 241,156.79 V 122.771 Z M 225,122.771 v 34.019 l -16.496,-19.806 v -34.018 z m -109.039,62.322 21.937,13.529 10.82,32.252 -21.937,-13.529 z m 57.267,16.671 -9.34,24.022 -10.82,-32.252 9.34,-24.022 z m -1.39,47.723 9.34,-24.022 10.819,32.252 -9.34,24.022 z m -28.2,-135.93 10.82,32.253 -9.341,24.022 -10.819,-32.252 z m -24.51,29.112 10.819,32.252 L 108.01,161.392 97.19,129.14 Z m 26.423,130.629 -10.819,-32.252 21.937,13.529 10.82,32.252 z m 45.058,32.143 12.433,-31.976 21.958,26.363 v 45.004 H 203.823 Z M 241,344.832 v -45.004 l 21.958,-26.363 12.433,31.976 -13.214,39.391 z m 57.512,-58.004 10.82,-32.252 21.937,-13.529 -10.819,32.252 z"
   id="path2"
   style="fill:#ffffff;fill-opacity:1" /><path
   d="M 283.468,367.542 H 182.532 c -4.418,0 -8,3.582 -8,8 0,4.418 3.582,8 8,8 h 100.936 c 4.418,0 8,-3.582 8,-8 0,-4.418 -3.582,-8 -8,-8 z"
   id="path4"
   style="fill:#ffffff;fill-opacity:1" /><path
   d="m 198.068,390.252 c -4.418,0 -8,3.582 -8,8 v 49.654 c 0,4.418 3.582,8 8,8 4.418,0 8,-3.582 8,-8 v -49.654 c 0,-4.418 -3.582,-8 -8,-8 z"
   id="path6"
   style="fill:#ffffff;fill-opacity:1" /><path
   d="m 233,390.252 c -4.418,0 -8,3.582 -8,8 V 458 c 0,4.418 3.582,8 8,8 4.418,0 8,-3.582 8,-8 v -59.748 c 0,-4.418 -3.582,-8 -8,-8 z"
   id="path8"
   style="fill:#ffffff;fill-opacity:1" /><path
   d="m 267.932,390.252 c -4.418,0 -8,3.582 -8,8 v 49.654 c 0,4.418 3.582,8 8,8 4.418,0 8,-3.582 8,-8 v -49.654 c 0,-4.418 -3.582,-8 -8,-8 z"
   id="path10"
   style="fill:#ffffff;fill-opacity:1" />
</svg>
