<?xml version="1.0" encoding="UTF-8" standalone="no"?>
<svg
   xmlns:dc="http://purl.org/dc/elements/1.1/"
   xmlns:cc="http://creativecommons.org/ns#"
   xmlns:rdf="http://www.w3.org/1999/02/22-rdf-syntax-ns#"
   xmlns:svg="http://www.w3.org/2000/svg"
   xmlns="http://www.w3.org/2000/svg"
   width="43"
   height="43"
   viewBox="0 0 43 43"
   id="svg6733"
   version="1.1">
  <defs
     id="defs6735" />
  <metadata
     id="metadata6738">
    <rdf:RDF>
      <cc:Work
         rdf:about="">
        <dc:format>image/svg+xml</dc:format>
        <dc:type
           rdf:resource="http://purl.org/dc/dcmitype/StillImage" />
        <dc:title></dc:title>
      </cc:Work>
    </rdf:RDF>
  </metadata>
  <g
     id="layer1"
     transform="matrix(0.26237332,0,0,0.26237332,-15.502097,-18.959497)">
    <g
       id="g7445"
       transform="matrix(1.3129341,0,0,1.3129341,-17.840811,-73.899443)"
       style="fill:#ffffff">
      <path
         d="m 145.2344,236.15015 11.08738,0 c 0,0 -7.82713,-54.03125 7.17375,-75.2125 0,0 -21.35138,33.87875 -18.26113,75.2125"
         style="fill:#ffffff;fill-opacity:1;fill-rule:nonzero;stroke:none"
         id="path106" />
      <path
         d="m 91.779405,236.15015 9.129375,0 c 0,0 19.8935,-55.34125 -8.151375,-79.31625 0,0 25.762245,26.6525 -0.978,79.31625"
         style="fill:#ffffff;fill-opacity:1;fill-rule:nonzero;stroke:none"
         id="path108" />
      <path
         d="m 124.05765,236.15015 9.13138,0 c 0,0 19.89012,-43.65 -8.15375,-62.56 0,0 25.76312,21.02 -0.97763,62.56"
         style="fill:#ffffff;fill-opacity:1;fill-rule:nonzero;stroke:none"
         id="path110" />
      <path
         d="m 104.82278,236.15015 7.82762,0 c 0,0 12.39213,-49.98625 -13.371995,-59.065 0,0 22.501875,13.615 5.544375,59.065"
         style="fill:#ffffff;fill-opacity:1;fill-rule:nonzero;stroke:none"
         id="path112" />
      <path
         d="m 135.5699,236.15015 7.82713,0 c 0,0 11.08887,-54.1775 -9.456,-72.33375 0,0 20.42762,25.5475 1.62887,72.33375"
         style="fill:#ffffff;fill-opacity:1;fill-rule:nonzero;stroke:none"
         id="path114" />
      <path
         d="m 116.95515,236.15015 6.604,0 c 0,0 0.49125,-66.93375 2.20263,-73.56875 0,0 -13.70025,60.71 -8.80663,73.56875"
         style="fill:#ffffff;fill-opacity:1;fill-rule:nonzero;stroke:none"
         id="path116" />
      <path
         d="m 117.42003,236.15015 5.38087,0 c 0,0 1.22113,-30.90375 17.61075,-51.68125 0,0 -24.70362,21.3 -22.99162,51.68125"
         style="fill:#ffffff;fill-opacity:1;fill-rule:nonzero;stroke:none"
         id="path120" />
      <path
         d="m 100.05478,236.15015 -3.9155,0 c 0,0 -0.48975,-24.7925 16.87887,-37.18875 0,0 -15.90037,17.98125 -12.96337,37.18875"
         style="fill:#ffffff;fill-opacity:1;fill-rule:nonzero;stroke:none"
         id="path122" />
      <path
         d="m 112.28278,236.15015 4.648,0 c 0,0 0.73475,-35.44375 -12.96338,-62.33 0,0 8.07175,24.2675 8.31538,62.33"
         style="fill:#ffffff;fill-opacity:1;fill-rule:nonzero;stroke:none"
         id="path126" />
      <path
         d="m 100.3839,236.15015 -9.552745,0 c 0,0 6.742625,-46.365 -6.18025,-64.53875 0,0 18.391125,29.06875 15.732995,64.53875"
         style="fill:#ffffff;fill-opacity:1;fill-rule:nonzero;stroke:none"
         id="path128" />
      <path
         d="m 95.86628,236.15015 7.55075,0 c 0,0 -6.84375,-32.44625 -6.84375,-39.61 0,0 -4.2465,35.2875 -0.707,39.61"
         style="fill:#ffffff;fill-opacity:1;fill-rule:nonzero;stroke:none"
         id="path136" />
      <path
         d="m 81.79503,236.15015 5.625875,0 c 0,0 5.382375,-20.38625 0,-29.5925 0,0 -2.936,23.37 -5.625875,29.5925"
         style="fill:#ffffff;fill-opacity:1;fill-rule:nonzero;stroke:none"
         id="path138" />
      <path
         d="m 146.57578,236.15015 -6.5025,0 c 0,0 5.89212,-50.8475 5.89212,-62.0725 0,0 3.65913,55.29875 0.61038,62.0725"
         style="fill:#ffffff;fill-opacity:1;fill-rule:nonzero;stroke:none"
         id="path146" />
      <path
         d="m 161.57528,236.15015 -4.63375,0 c 0,0 -1.05325,-35.12375 18.5415,-49.9475 0,0 -18.5415,12.53625 -13.90775,49.9475"
         style="fill:#ffffff;fill-opacity:1;fill-rule:nonzero;stroke:none"
         id="path148" />
      <path
         d="m 131.33503,236.15015 c 0,0 -5.4785,-12.7075 6.53125,-23.42875 0,0 -8.84963,9.265 -3.793,23.42875 l -2.73825,0"
         style="fill:#ffffff;fill-opacity:1;fill-rule:nonzero;stroke:none"
         id="path150" />
      <path
         d="m 134.07328,236.15015 3.36962,0 c 0,0 0.42338,-18.79625 -14.53712,-28.1925 0,0 13.69387,13.6325 11.1675,28.1925"
         style="fill:#ffffff;fill-opacity:1;fill-rule:nonzero;stroke:none"
         id="path152" />
      <path
         d="m 87.361405,236.15015 6.7095,0 c 0,0 -6.081625,-39.27875 -6.081625,-47.95 0,0 -3.771875,42.7175 -0.627875,47.95"
         style="fill:#ffffff;fill-opacity:1;fill-rule:nonzero;stroke:none"
         id="path160" />
      <path
         d="m 104.49715,236.15015 6.956,0 c 0,0 11.01025,-29.2725 -11.881745,-34.5875 0,0 19.994125,7.9725 4.925745,34.5875"
         style="fill:#ffffff;fill-opacity:1;fill-rule:nonzero;stroke:none"
         id="path162" />
      <path
         d="m 131.8179,236.15015 6.95413,0 c 0,0 9.8535,-31.7275 -8.40088,-42.35875 0,0 18.15188,14.96 1.44675,42.35875"
         style="fill:#ffffff;fill-opacity:1;fill-rule:nonzero;stroke:none"
         id="path164" />
      <path
         d="m 98.443405,236.15015 c 0,0 5.651875,-9.8175 -6.73725,-18.09875 0,0 9.129875,7.1575 3.9125,18.09875 l 2.82475,0"
         style="fill:#ffffff;fill-opacity:1;fill-rule:nonzero;stroke:none"
         id="path166" />
      <path
         d="m 111.12553,236.15015 4.12937,0 c 0,0 0.65188,-20.7575 -11.5185,-36.5025 0,0 7.17238,14.2125 7.38913,36.5025"
         style="fill:#ffffff;fill-opacity:1;fill-rule:nonzero;stroke:none"
         id="path174" />
      <path
         d="m 100.5509,236.15015 -8.48537,0 c 0,0 5.990625,-27.1525 -5.49225,-37.795 0,0 16.34325,17.0225 13.97762,37.795"
         style="fill:#ffffff;fill-opacity:1;fill-rule:nonzero;stroke:none"
         id="path176" />
      <path
         d="m 152.36778,236.15015 -4.30663,0 c 0,0 -4.11962,-18.71 0,-27.1575 0,0 2.2455,21.44875 4.30663,27.1575"
         style="fill:#ffffff;fill-opacity:1;fill-rule:nonzero;stroke:none"
         id="path180" />
      <path
         d="m 118.41853,236.15015 c 0,0 -4.86763,-15.06 5.80512,-27.76875 0,0 -7.86475,10.9825 -3.3715,27.76875 l -2.43362,0"
         style="fill:#ffffff;fill-opacity:1;fill-rule:nonzero;stroke:none"
         id="path182" />
      <path
         d="m 130.4879,236.15015 2.99513,0 c 0,0 0.37537,-11.0075 -12.919,-16.50875 0,0 12.169,7.98125 9.92387,16.50875"
         style="fill:#ffffff;fill-opacity:1;fill-rule:nonzero;stroke:none"
         id="path186" />
      <path
         d="m 137.35453,236.15015 -7.82563,0 c 0,0 -12.39412,-40.08375 13.37013,-47.36375 0,0 -22.503,10.9175 -5.5445,47.36375"
         style="fill:#ffffff;fill-opacity:1;fill-rule:nonzero;stroke:none"
         id="path194" />
      <path
         d="m 125.22365,236.15015 -6.605,0 c 0,0 -0.48825,-53.6725 -2.20212,-58.99375 0,0 13.69925,48.6825 8.80712,58.99375"
         style="fill:#ffffff;fill-opacity:1;fill-rule:nonzero;stroke:none"
         id="path198" />
      <path
         d="m 138.9454,236.15015 c 0,0 -6.35937,-13.4425 7.5815,-24.78125 0,0 -10.2715,9.79875 -4.40187,24.78125 l -3.17963,0"
         style="fill:#ffffff;fill-opacity:1;fill-rule:nonzero;stroke:none"
         id="path200" />
      <path
         d="m 119.37753,236.15015 -7.09375,0 c 0,0 0.73437,-41.14 37.66837,-55.93125 0,0 -32.04187,15.04125 -30.57462,55.93125"
         style="fill:#ffffff;fill-opacity:1;fill-rule:nonzero;stroke:none"
         id="path210" />
      <path
         d="m 131.8009,236.15015 -5.626,0 c 0,0 -5.38087,-16.3475 0,-23.73 0,0 2.9345,18.74 5.626,23.73"
         style="fill:#ffffff;fill-opacity:1;fill-rule:nonzero;stroke:none"
         id="path214" />
      <path
         d="m 146.31203,236.15015 -7.54875,0 c 0,0 6.84125,-26.02 6.84125,-31.76375 0,0 4.24712,28.29625 0.7075,31.76375"
         style="fill:#ffffff;fill-opacity:1;fill-rule:nonzero;stroke:none"
         id="path220" />
      <path
         d="m 159.49365,236.15015 -5.37937,0 c 0,0 -1.22363,-17.9725 21.52625,-25.55875 0,0 -21.52625,6.41375 -16.14688,25.55875"
         style="fill:#ffffff;fill-opacity:1;fill-rule:nonzero;stroke:none"
         id="path224" />
      <path
         d="m 131.46828,236.15015 9.55087,0 c 0,0 -6.74325,-17.9875 6.17863,-25.03625 0,0 -18.39063,11.2775 -15.7295,25.03625"
         style="fill:#ffffff;fill-opacity:1;fill-rule:nonzero;stroke:none"
         id="path226" />
      <path
         d="m 100.97715,236.15015 7.86563,0 c 0,0 17.13487,-33.6425 -7.02288,-48.2175 0,0 22.19138,16.20125 -0.84275,48.2175"
         style="fill:#ffffff;fill-opacity:1;fill-rule:nonzero;stroke:none"
         id="path228" />
      <path
         d="m 80.602655,236.15015 4.63525,0 c 0,0 1.052625,-28.165 -18.5425,-40.05125 0,0 18.5425,10.05375 13.90725,40.05125"
         style="fill:#ffffff;fill-opacity:1;fill-rule:nonzero;stroke:none"
         id="path232" />
      <path
         d="m 149.27103,236.15015 -8.11175,0 c 0,0 -17.67675,-25.9875 7.24262,-37.24625 0,0 -22.88962,12.515 0.86913,37.24625"
         style="fill:#ffffff;fill-opacity:1;fill-rule:nonzero;stroke:none"
         id="path240" />
      <path
         d="m 110.3594,236.15015 -6.955,0 c 0,0 -9.84962,-25.44125 8.40325,-33.965 0,0 -18.14987,11.9925 -1.44825,33.965"
         style="fill:#ffffff;fill-opacity:1;fill-rule:nonzero;stroke:none"
         id="path244" />
      <path
         d="m 143.73303,236.15015 c 0,0 -5.65088,-14.0325 6.73675,-25.87375 0,0 -9.12738,10.2325 -3.91013,25.87375 l -2.82662,0"
         style="fill:#ffffff;fill-opacity:1;fill-rule:nonzero;stroke:none"
         id="path246" />
      <path
         d="m 131.05278,236.15015 -4.13138,0 c 0,0 -0.65175,-16.64375 11.51963,-29.27 0,0 -7.17288,11.395 -7.38825,29.27"
         style="fill:#ffffff;fill-opacity:1;fill-rule:nonzero;stroke:none"
         id="path252" />
      <path
         d="m 123.76028,236.15015 c 0,0 4.86725,-12.0775 -5.80363,-22.2675 0,0 7.86325,8.80625 3.36763,22.2675 l 2.436,0"
         style="fill:#ffffff;fill-opacity:1;fill-rule:nonzero;stroke:none"
         id="path258" />
      <path
         d="m 116.49765,236.15015 -2.99562,0 c 0,0 -0.375,-19.70125 12.91937,-29.55125 0,0 -12.17087,14.29 -9.92375,29.55125"
         style="fill:#ffffff;fill-opacity:1;fill-rule:nonzero;stroke:none"
         id="path260" />
      <path
         d="m 83.48203,236.15015 4.846125,0 c 0,0 4.63625,-25.61875 0,-37.185 0,0 -2.53075,29.36875 -4.846125,37.185"
         style="fill:#ffffff;fill-opacity:1;fill-rule:nonzero;stroke:none"
         id="path262" />
    </g>
  </g>
</svg>
