<?xml version="1.0" encoding="UTF-8" standalone="no"?>
<svg
   xmlns:dc="http://purl.org/dc/elements/1.1/"
   xmlns:cc="http://creativecommons.org/ns#"
   xmlns:rdf="http://www.w3.org/1999/02/22-rdf-syntax-ns#"
   xmlns:svg="http://www.w3.org/2000/svg"
   xmlns="http://www.w3.org/2000/svg"
   xmlns:sodipodi="http://sodipodi.sourceforge.net/DTD/sodipodi-0.dtd"
   xmlns:inkscape="http://www.inkscape.org/namespaces/inkscape"
   xml:space="preserve"
   enable-background="new -331 270.6 54.2 55.6"
   viewBox="-331 270.6 42.999999 43.000001"
   height="43"
   width="43"
   y="0px"
   x="0px"
   id="Layer_1"
   version="1.1"
   sodipodi:docname="grasspea.svg"
   inkscape:version="0.92.1 r15371"><sodipodi:namedview
     pagecolor="#ffffff"
     bordercolor="#666666"
     borderopacity="1"
     objecttolerance="10"
     gridtolerance="10"
     guidetolerance="10"
     inkscape:pageopacity="0"
     inkscape:pageshadow="2"
     inkscape:window-width="1920"
     inkscape:window-height="1017"
     id="namedview31"
     showgrid="false"
     inkscape:zoom="5.4883721"
     inkscape:cx="-60.947034"
     inkscape:cy="21.5"
     inkscape:window-x="1912"
     inkscape:window-y="-8"
     inkscape:window-maximized="1"
     inkscape:current-layer="Layer_1" /><metadata
     id="metadata35"><rdf:RDF><cc:Work
         rdf:about=""><dc:format>image/svg+xml</dc:format><dc:type
           rdf:resource="http://purl.org/dc/dcmitype/StillImage" /><dc:title /></cc:Work></rdf:RDF></metadata><defs
     id="defs33" /><g
     style="fill:#ffffff"
     transform="translate(0,-12.599998)"
     id="apple" /><g
     style="fill:#ffffff"
     transform="translate(0,-12.599998)"
     id="barley" /><g
     style="fill:#ffffff"
     transform="translate(0,-12.599998)"
     id="carrot" /><g
     style="fill:#ffffff"
     transform="translate(0,-12.599998)"
     id="eggplant" /><g
     style="fill:#ffffff"
     transform="translate(0,-12.599998)"
     id="pea" /><g
     style="fill:#ffffff"
     transform="translate(0,-12.599998)"
     id="patato" /><g
     style="fill:#ffffff"
     transform="translate(0,-12.599998)"
     id="chickpea" /><g
     style="fill:#ffffff"
     transform="translate(0,-12.599998)"
     id="faba_bean" /><g
     style="fill:#ffffff"
     transform="translate(0,-12.599998)"
     id="lentil" /><g
     style="fill:#ffffff"
     transform="translate(0,-12.599998)"
     id="bean" /><g
     style="fill:#ffffff"
     transform="translate(0,-12.599998)"
     id="rice" /><g
     style="fill:#ffffff"
     transform="translate(0,-12.599998)"
     id="sorghum" /><g
     style="fill:#ffffff"
     transform="translate(0,-12.599998)"
     id="pearl_millet" /><g
     style="fill:#ffffff"
     transform="translate(0,-12.599998)"
     id="pigeon_pea" /><g
     style="fill:#ffffff"
     transform="translate(0,-12.599998)"
     id="grasspea" /><g
     style="fill:#ffffff"
     transform="translate(0,-12.599998)"
     id="cowpea" /><g
     style="fill:#ffffff"
     transform="translate(0,-12.599998)"
     id="bambara" /><g
     style="fill:#ffffff"
     transform="translate(0,-12.599998)"
     id="vetch" /><g
     style="fill:#ffffff"
     transform="translate(0,-12.599998)"
     id="wheat" /><g
     style="fill:#ffffff"
     transform="translate(0,-12.599998)"
     id="banana" /><g
     style="fill:#ffffff"
     transform="translate(0,-12.599998)"
     id="rye" /><g
     style="fill:#ffffff"
     transform="translate(0,-12.599998)"
     id="alfalfa" /><g
     style="fill:#ffffff"
     transform="translate(0,-12.599998)"
     id="finger_millet" /><g
     style="fill:#ffffff"
     transform="translate(0,-12.599998)"
     id="sweet_patato" /><g
     style="fill:#ffffff"
     transform="translate(0,-12.599998)"
     id="oat" /><g
     transform="translate(-84.582181,-14.421187)"
     id="apple-5" /><g
     transform="translate(-84.582181,-14.421187)"
     id="barley-0" /><g
     transform="translate(-84.582181,-14.421187)"
     id="carrot-7" /><g
     transform="translate(-84.582181,-14.421187)"
     id="eggplant-1" /><g
     transform="translate(-84.582181,-14.421187)"
     id="pea-3" /><g
     transform="translate(-84.582181,-14.421187)"
     id="sunflower" /><g
     transform="translate(-84.582181,-14.421187)"
     id="patato-7" /><g
     transform="translate(-84.582181,-14.421187)"
     id="chickpea-3" /><g
     transform="translate(-84.582181,-14.421187)"
     id="faba_bean-4" /><g
     transform="translate(-84.582181,-14.421187)"
     id="lentil-5" /><g
     transform="translate(-84.582181,-14.421187)"
     id="bean-3" /><g
     transform="translate(-84.582181,-14.421187)"
     id="rice-4" /><g
     transform="translate(-84.582181,-14.421187)"
     id="sorghum-6" /><g
     transform="translate(-84.582181,-14.421187)"
     id="pearl_millet-6" /><g
     transform="translate(-84.582181,-14.421187)"
     id="pigeon_pea-4" /><g
     transform="translate(-84.582181,-14.421187)"
     id="grasspea-4" /><g
     transform="translate(-84.582181,-14.421187)"
     id="bambara-3" /><g
     transform="translate(-84.582181,-14.421187)"
     id="vetch-2" /><g
     transform="translate(-84.582181,-14.421187)"
     id="wheat-6" /><g
     transform="translate(-84.582181,-14.421187)"
     id="banana-7" /><g
     transform="translate(-84.582181,-14.421187)"
     id="rye-5" /><g
     transform="translate(-84.582181,-14.421187)"
     id="alfalfa-1" /><g
     transform="translate(-84.582181,-14.421187)"
     id="finger_millet-2" /><g
     transform="translate(-84.582181,-14.421187)"
     id="sweet_patato-3" /><g
     transform="translate(-84.582181,-14.421187)"
     id="oat-1" /><g
     id="g4674"
     transform="matrix(0.59933887,0,0,0.59933887,-127.85296,113.4977)"
     style="stroke:#ffffff"><g
       transform="translate(55.846018,36.155579)"
       id="apple-9"
       style="stroke:#ffffff" /><g
       transform="translate(55.846018,36.155579)"
       id="barley-3"
       style="stroke:#ffffff" /><g
       transform="translate(55.846018,36.155579)"
       id="carrot-8"
       style="stroke:#ffffff" /><g
       transform="translate(55.846018,36.155579)"
       id="eggplant-5"
       style="stroke:#ffffff" /><g
       transform="translate(55.846018,36.155579)"
       id="pea-1"
       style="stroke:#ffffff" /><g
       transform="translate(55.846018,36.155579)"
       id="sunflower-9"
       style="stroke:#ffffff" /><g
       transform="translate(55.846018,36.155579)"
       id="patato-2"
       style="stroke:#ffffff" /><g
       transform="translate(55.846018,36.155579)"
       id="chickpea-0"
       style="stroke:#ffffff" /><g
       transform="translate(55.846018,36.155579)"
       id="faba_bean-5"
       style="stroke:#ffffff" /><g
       transform="translate(55.846018,36.155579)"
       id="lentil-55"
       style="stroke:#ffffff" /><g
       transform="translate(55.846018,36.155579)"
       id="bean-1"
       style="stroke:#ffffff" /><g
       transform="translate(55.846018,36.155579)"
       id="rice-7"
       style="stroke:#ffffff" /><g
       transform="translate(55.846018,36.155579)"
       id="sorghum-3"
       style="stroke:#ffffff" /><g
       transform="translate(55.846018,36.155579)"
       id="pearl_millet-0"
       style="stroke:#ffffff" /><g
       transform="translate(55.846018,36.155579)"
       id="pigeon_pea-2"
       style="stroke:#ffffff" /><g
       transform="translate(55.846018,36.155579)"
       id="cowpea-0"
       style="stroke:#ffffff" /><g
       transform="translate(55.846018,36.155579)"
       id="bambara-2"
       style="stroke:#ffffff" /><g
       transform="translate(55.846018,36.155579)"
       id="vetch-4"
       style="stroke:#ffffff" /><g
       transform="translate(55.846018,36.155579)"
       id="wheat-7"
       style="stroke:#ffffff" /><g
       transform="translate(55.846018,36.155579)"
       id="banana-75"
       style="stroke:#ffffff" /><g
       transform="translate(55.846018,36.155579)"
       id="rye-6"
       style="stroke:#ffffff" /><g
       transform="translate(55.846018,36.155579)"
       id="alfalfa-4"
       style="stroke:#ffffff" /><g
       transform="translate(55.846018,36.155579)"
       id="finger_millet-0"
       style="stroke:#ffffff" /><g
       transform="translate(55.846018,36.155579)"
       id="sweet_patato-8"
       style="stroke:#ffffff" /><g
       transform="translate(55.846018,36.155579)"
       id="oat-5"
       style="stroke:#ffffff" /><g
       id="g24681"
       transform="matrix(1.9963525,0,0,-1.9963525,-2524.978,4991.0203)"
       style="stroke:#ffffff"><path
         inkscape:connector-curvature="0"
         id="path11120"
         style="fill:none;stroke:#ffffff;stroke-width:1;stroke-linecap:round;stroke-linejoin:round;stroke-miterlimit:10;stroke-dasharray:none;stroke-opacity:1"
         d="m 1123.1162,2347.0122 c -0.766,1.708 -2.879,1.813 -2.879,1.813 0,0 -0.049,-0.206 -0.397,-0.937 -0.408,-0.851 -1.005,-1.866 -0.255,-3.299 0.044,-0.085 -0.049,0.079 0,0 0.576,-0.934 1.404,-3.576 1.799,-4.318 0.736,-1.384 1.937,-1.366 2.286,-2.145 0.568,0.708 0.166,1.097 1.193,2.52 0.453,0.629 0.431,1.558 0.092,2.314 -0.117,0.262 -0.577,0.857 -0.902,1.582 -0.355,0.794 -0.297,1.04 -0.937,2.47 z" /><path
         inkscape:connector-curvature="0"
         id="path11124"
         style="fill:none;stroke:#ffffff;stroke-width:1;stroke-linecap:round;stroke-linejoin:round;stroke-miterlimit:10;stroke-dasharray:none;stroke-opacity:1"
         d="m 1120.8906,2348.7158 -0.874,-0.445 c 0,0 -0.399,0.773 0.082,1.044 0.48,0.271 0.792,-0.599 0.792,-0.599 z" /><path
         inkscape:connector-curvature="0"
         id="path11128"
         style="fill:none;stroke:#ffffff;stroke-width:1;stroke-linecap:round;stroke-linejoin:round;stroke-miterlimit:10;stroke-dasharray:none;stroke-opacity:1"
         d="m 1120.0986,2348.4663 c 0,0 -0.425,-0.029 -0.764,-0.741 -0.339,-0.711 -0.785,-0.497 -0.785,-0.497" /><path
         inkscape:connector-curvature="0"
         id="path11132"
         style="fill:none;stroke:#ffffff;stroke-width:1;stroke-linecap:round;stroke-linejoin:round;stroke-miterlimit:10;stroke-dasharray:none;stroke-opacity:1"
         d="m 1113.0352,2336.6782 c 0,0 2.211,4.201 2.267,4.919 0.054,0.719 0.718,4.19 0.497,5.467 -0.124,0.72 -1.337,6.57 -2.521,8.946 -0.917,1.841 -2.184,2.845 -3.065,3.719 -0.73,0.724 -7.736,2.984 -5.359,4.477" /><path
         inkscape:connector-curvature="0"
         id="path11136"
         style="fill:none;stroke:#ffffff;stroke-width:1;stroke-linecap:round;stroke-linejoin:round;stroke-miterlimit:10;stroke-dasharray:none;stroke-opacity:1"
         d="m 1114.791,2364.9243 c 0,0 -1.656,-5.281 -1.513,-8.914 0,0 2.066,0.789 1.513,8.914 z" /><path
         inkscape:connector-curvature="0"
         id="path11140"
         style="fill:none;stroke:#ffffff;stroke-width:1;stroke-linecap:round;stroke-linejoin:round;stroke-miterlimit:10;stroke-dasharray:none;stroke-opacity:1"
         d="m 1109.3682,2360.5493 c 0,0 0.295,2.275 -0.258,2.938 -0.553,0.663 -0.829,0 -0.829,0" /><path
         inkscape:connector-curvature="0"
         id="path11144"
         style="fill:none;stroke:#ffffff;stroke-width:1;stroke-linecap:round;stroke-linejoin:round;stroke-miterlimit:10;stroke-dasharray:none;stroke-opacity:1"
         d="m 1113.5303,2356.1152 c 0,0 4.551,5.437 6.008,8.091 0,0 -1.152,-4.705 -3.463,-6.529 -2.312,-1.824 -2.545,-1.562 -2.545,-1.562 z" /><path
         inkscape:connector-curvature="0"
         id="path11148"
         style="fill:none;stroke:#ffffff;stroke-width:1;stroke-linecap:round;stroke-linejoin:round;stroke-miterlimit:10;stroke-dasharray:none;stroke-opacity:1"
         d="m 1120.8906,2348.7158 c 0,0 1.542,-0.291 1.707,0.11" /><path
         inkscape:connector-curvature="0"
         id="path11152"
         style="fill:none;stroke:#ffffff;stroke-width:1;stroke-linecap:round;stroke-linejoin:round;stroke-miterlimit:10;stroke-dasharray:none;stroke-opacity:1"
         d="m 1121.917,2349.6187 c 0,0 -0.63,-0.755 -1.224,-0.529" /><path
         inkscape:connector-curvature="0"
         id="path11156"
         style="fill:none;stroke:#ffffff;stroke-width:1;stroke-linecap:round;stroke-linejoin:round;stroke-miterlimit:10;stroke-dasharray:none;stroke-opacity:1"
         d="m 1120.4834,2345.8169 c 0,0 -0.026,-0.896 0.61,-1.032" /><path
         inkscape:connector-curvature="0"
         id="path11160"
         style="fill:none;stroke:#ffffff;stroke-width:1;stroke-linecap:round;stroke-linejoin:round;stroke-miterlimit:10;stroke-dasharray:none;stroke-opacity:1"
         d="m 1121.4463,2343.7905 c 0,0 -0.025,-0.896 0.61,-1.032" /><path
         inkscape:connector-curvature="0"
         id="path11164"
         style="fill:none;stroke:#ffffff;stroke-width:1;stroke-linecap:round;stroke-linejoin:round;stroke-miterlimit:10;stroke-dasharray:none;stroke-opacity:1"
         d="m 1122.4102,2341.7637 c 0,0 -0.025,-0.896 0.61,-1.032" /><path
         inkscape:connector-curvature="0"
         id="path11168"
         style="fill:none;stroke:#ffffff;stroke-width:1;stroke-linecap:round;stroke-linejoin:round;stroke-miterlimit:10;stroke-dasharray:none;stroke-opacity:1"
         d="m 1120.0986,2349.3149 -0.278,0.038 c -0.01,0 -0.017,0 -0.025,0 -1.316,0.172 -2.545,-0.718 -2.936,-1.987 l -1.373,-4.439" /><path
         inkscape:connector-curvature="0"
         id="path11172"
         style="fill:none;stroke:#ffffff;stroke-width:1;stroke-linecap:round;stroke-linejoin:round;stroke-miterlimit:10;stroke-dasharray:none;stroke-opacity:1"
         d="m 1110.6572,2359.3013 c 0,0 -0.662,4.223 0.83,4.481" /><path
         inkscape:connector-curvature="0"
         id="path11176"
         style="fill:none;stroke:#ffffff;stroke-width:1;stroke-linecap:round;stroke-linejoin:round;stroke-miterlimit:10;stroke-dasharray:none;stroke-opacity:1"
         d="m 1115.4238,2340.9175 c -1.652,0.104 -0.712,0.183 -2.026,1.126 -1.305,0.936 -1.419,3.343 -1.419,3.343 0.161,-0.194 2.501,-1.156 2.405,-3.546 0,0 -0.716,-0.58 1.04,-0.923 z" /><path
         inkscape:connector-curvature="0"
         id="path11180"
         style="fill:none;stroke:#ffffff;stroke-width:1;stroke-linecap:round;stroke-linejoin:round;stroke-miterlimit:10;stroke-dasharray:none;stroke-opacity:1"
         d="m 1114.0176,2343.4761 c 0,0 -0.487,1.162 0.06,2.924 0,0 0.875,-1.206 0.904,-2.45 0.029,-1.245 -0.364,-2.186 -0.364,-2.186" /><path
         inkscape:connector-curvature="0"
         id="path11184"
         style="fill:none;stroke:#ffffff;stroke-width:1;stroke-linecap:round;stroke-linejoin:round;stroke-miterlimit:10;stroke-dasharray:none;stroke-opacity:1"
         d="m 1113.2695,2344.7847 c 0,0 -3.729,4.593 -8.525,3.819 -0.246,-0.039 -0.467,0.014 -0.66,10e-4 -2.161,-0.152 -1.855,-2.78 -1.347,-2.334 0.553,0.487 -1.311,2.951 -1.421,1.014 -0.052,-0.915 0.719,-2.518 -0.166,-2.61" /><path
         inkscape:connector-curvature="0"
         id="path11188"
         style="fill:none;stroke:#ffffff;stroke-width:1;stroke-linecap:round;stroke-linejoin:round;stroke-miterlimit:10;stroke-dasharray:none;stroke-opacity:1"
         d="m 1100.8271,2354.0742 c -0.34,-0.813 0.323,-0.923 0.323,-0.923 0,0 0.995,-0.401 0.775,-1.085 -0.222,-0.684 -0.243,-1.511 0.542,-2.093 0.784,-0.581 1.06,-1.439 2.277,-1.369" /><path
         inkscape:connector-curvature="0"
         id="path11192"
         style="fill:none;stroke:#ffffff;stroke-width:1;stroke-linecap:round;stroke-linejoin:round;stroke-miterlimit:10;stroke-dasharray:none;stroke-opacity:1"
         d="m 1106.9688,2348.6001 c 0,0 -0.672,5.474 1.896,10.701 0,0 0.103,-8.326 -1.896,-10.701 z" /><path
         inkscape:connector-curvature="0"
         id="path11196"
         style="fill:none;stroke:#ffffff;stroke-width:1;stroke-linecap:round;stroke-linejoin:round;stroke-miterlimit:10;stroke-dasharray:none;stroke-opacity:1"
         d="m 1102.7373,2359.3013 c 0,0 3.117,-3.614 4.231,-10.701 0,0 -3.767,4.684 -4.231,10.701 z" /></g></g></svg>