<?xml version="1.0" encoding="UTF-8" standalone="no"?>
<svg
   xmlns:dc="http://purl.org/dc/elements/1.1/"
   xmlns:cc="http://creativecommons.org/ns#"
   xmlns:rdf="http://www.w3.org/1999/02/22-rdf-syntax-ns#"
   xmlns:svg="http://www.w3.org/2000/svg"
   xmlns="http://www.w3.org/2000/svg"
   xmlns:sodipodi="http://sodipodi.sourceforge.net/DTD/sodipodi-0.dtd"
   xmlns:inkscape="http://www.inkscape.org/namespaces/inkscape"
   xml:space="preserve"
   enable-background="new -331 270.6 54.2 55.6"
   viewBox="-331 270.6 42.999999 43.000001"
   height="43"
   width="43"
   y="0px"
   x="0px"
   id="Layer_1"
   version="1.1"
   sodipodi:docname="lentil.svg"
   inkscape:version="0.92.1 r15371"><sodipodi:namedview
     pagecolor="#ffffff"
     bordercolor="#666666"
     borderopacity="1"
     objecttolerance="10"
     gridtolerance="10"
     guidetolerance="10"
     inkscape:pageopacity="0"
     inkscape:pageshadow="2"
     inkscape:window-width="1920"
     inkscape:window-height="1017"
     id="namedview31"
     showgrid="false"
     inkscape:zoom="5.4883721"
     inkscape:cx="-31.79449"
     inkscape:cy="21.5"
     inkscape:window-x="-8"
     inkscape:window-y="-8"
     inkscape:window-maximized="1"
     inkscape:current-layer="Layer_1" /><metadata
     id="metadata35"><rdf:RDF><cc:Work
         rdf:about=""><dc:format>image/svg+xml</dc:format><dc:type
           rdf:resource="http://purl.org/dc/dcmitype/StillImage" /><dc:title /></cc:Work></rdf:RDF></metadata><defs
     id="defs33" /><g
     style="fill:#ffffff"
     transform="translate(0,-12.599998)"
     id="apple" /><g
     style="fill:#ffffff"
     transform="translate(0,-12.599998)"
     id="barley" /><g
     style="fill:#ffffff"
     transform="translate(0,-12.599998)"
     id="carrot" /><g
     style="fill:#ffffff"
     transform="translate(0,-12.599998)"
     id="eggplant" /><g
     style="fill:#ffffff"
     transform="translate(0,-12.599998)"
     id="pea" /><g
     style="fill:#ffffff"
     transform="translate(0,-12.599998)"
     id="patato" /><g
     style="fill:#ffffff"
     transform="translate(0,-12.599998)"
     id="chickpea" /><g
     style="fill:#ffffff"
     transform="translate(0,-12.599998)"
     id="faba_bean" /><g
     style="fill:#ffffff"
     transform="translate(0,-12.599998)"
     id="lentil" /><g
     style="fill:#ffffff"
     transform="translate(0,-12.599998)"
     id="bean" /><g
     style="fill:#ffffff"
     transform="translate(0,-12.599998)"
     id="rice" /><g
     style="fill:#ffffff"
     transform="translate(0,-12.599998)"
     id="sorghum" /><g
     style="fill:#ffffff"
     transform="translate(0,-12.599998)"
     id="pearl_millet" /><g
     style="fill:#ffffff"
     transform="translate(0,-12.599998)"
     id="pigeon_pea" /><g
     style="fill:#ffffff"
     transform="translate(0,-12.599998)"
     id="grasspea" /><g
     style="fill:#ffffff"
     transform="translate(0,-12.599998)"
     id="cowpea" /><g
     style="fill:#ffffff"
     transform="translate(0,-12.599998)"
     id="bambara" /><g
     style="fill:#ffffff"
     transform="translate(0,-12.599998)"
     id="vetch" /><g
     style="fill:#ffffff"
     transform="translate(0,-12.599998)"
     id="wheat" /><g
     style="fill:#ffffff"
     transform="translate(0,-12.599998)"
     id="banana" /><g
     style="fill:#ffffff"
     transform="translate(0,-12.599998)"
     id="rye" /><g
     style="fill:#ffffff"
     transform="translate(0,-12.599998)"
     id="alfalfa" /><g
     style="fill:#ffffff"
     transform="translate(0,-12.599998)"
     id="finger_millet" /><g
     style="fill:#ffffff"
     transform="translate(0,-12.599998)"
     id="sweet_patato" /><g
     style="fill:#ffffff"
     transform="translate(0,-12.599998)"
     id="oat" /><g
     transform="translate(-84.582181,-14.421187)"
     id="apple-5" /><g
     transform="translate(-84.582181,-14.421187)"
     id="barley-0" /><g
     transform="translate(-84.582181,-14.421187)"
     id="carrot-7" /><g
     transform="translate(-84.582181,-14.421187)"
     id="eggplant-1" /><g
     transform="translate(-84.582181,-14.421187)"
     id="pea-3" /><g
     transform="translate(-84.582181,-14.421187)"
     id="sunflower" /><g
     transform="translate(-84.582181,-14.421187)"
     id="patato-7" /><g
     transform="translate(-84.582181,-14.421187)"
     id="chickpea-3" /><g
     transform="translate(-84.582181,-14.421187)"
     id="faba_bean-4" /><g
     transform="translate(-84.582181,-14.421187)"
     id="lentil-5" /><g
     transform="translate(-84.582181,-14.421187)"
     id="bean-3" /><g
     transform="translate(-84.582181,-14.421187)"
     id="rice-4" /><g
     transform="translate(-84.582181,-14.421187)"
     id="sorghum-6" /><g
     transform="translate(-84.582181,-14.421187)"
     id="pearl_millet-6" /><g
     transform="translate(-84.582181,-14.421187)"
     id="pigeon_pea-4" /><g
     transform="translate(-84.582181,-14.421187)"
     id="grasspea-4" /><g
     transform="translate(-84.582181,-14.421187)"
     id="bambara-3" /><g
     transform="translate(-84.582181,-14.421187)"
     id="vetch-2" /><g
     transform="translate(-84.582181,-14.421187)"
     id="wheat-6" /><g
     transform="translate(-84.582181,-14.421187)"
     id="banana-7" /><g
     transform="translate(-84.582181,-14.421187)"
     id="rye-5" /><g
     transform="translate(-84.582181,-14.421187)"
     id="alfalfa-1" /><g
     transform="translate(-84.582181,-14.421187)"
     id="finger_millet-2" /><g
     transform="translate(-84.582181,-14.421187)"
     id="sweet_patato-3" /><g
     transform="translate(-84.582181,-14.421187)"
     id="oat-1" /><g
     id="g4791"
     transform="matrix(0.55573736,0,0,0.55573736,-108.64095,118.02326)"><path
       d="m -349.9346,320.53513 c -1.67467,-0.40665 -3.10295,-1.30007 -4.17266,-2.49598 -0.68309,-0.76322 -0.37259,-2.04326 0.58494,-2.40784 1.49839,-0.57091 3.17707,-0.71114 4.85374,-0.30449 2.33372,0.56891 4.19069,2.08333 5.26039,4.03644 -1.84694,1.24599 -4.19068,1.73878 -6.52641,1.17187 z"
       style="fill:none;stroke:#ffffff;stroke-width:2.00319552;stroke-linecap:round;stroke-linejoin:miter;stroke-miterlimit:10;stroke-dasharray:none;stroke-opacity:1"
       id="path10226"
       inkscape:connector-curvature="0" /><path
       d="m -348.94162,318.04977 5.54685,1.3161"
       style="fill:none;stroke:#ffffff;stroke-width:2.00319552;stroke-linecap:round;stroke-linejoin:miter;stroke-miterlimit:10;stroke-dasharray:none;stroke-opacity:1"
       id="path10230"
       inkscape:connector-curvature="0" /><path
       d="m -339.63577,313.76253 c 1.47235,-0.89743 3.11497,-1.27404 4.71552,-1.18589 1.02364,0.0581 1.70873,1.18188 1.29006,2.11737 -0.65705,1.46234 -1.74679,2.74839 -3.21713,3.64582 -2.05328,1.24999 -4.43708,1.49238 -6.57449,0.86738 0.42468,-2.18749 1.73276,-4.19469 3.78604,-5.44468 z"
       style="fill:none;stroke:#ffffff;stroke-width:2.00319552;stroke-linecap:round;stroke-linejoin:miter;stroke-miterlimit:10;stroke-dasharray:none;stroke-opacity:1"
       id="path10234"
       inkscape:connector-curvature="0" /><path
       d="m -338.24195,316.05138 -5.19028,3.16104"
       style="fill:none;stroke:#ffffff;stroke-width:2.00319552;stroke-linecap:round;stroke-linejoin:miter;stroke-miterlimit:10;stroke-dasharray:none;stroke-opacity:1"
       id="path10238"
       inkscape:connector-curvature="0" /><path
       d="m -349.65095,329.84098 c -1.59053,-0.66506 -2.86256,-1.77283 -3.72995,-3.12098 -0.55488,-0.85937 -0.0481,-2.07531 0.95553,-2.28565 1.5685,-0.32852 3.24918,-0.20232 4.83972,0.46074 2.21754,0.92748 3.81408,2.71433 4.56528,4.81167 -2.02122,0.9395 -4.41304,1.05969 -6.63058,0.13422 z"
       style="fill:none;stroke:#ffffff;stroke-width:2.00319552;stroke-linecap:round;stroke-linejoin:miter;stroke-miterlimit:10;stroke-dasharray:none;stroke-opacity:1"
       id="path10242"
       inkscape:connector-curvature="0" /><path
       d="m -348.31562,327.36823 5.30647,2.34374"
       style="fill:none;stroke:#ffffff;stroke-width:2.00319552;stroke-linecap:round;stroke-linejoin:miter;stroke-miterlimit:10;stroke-dasharray:none;stroke-opacity:1"
       id="path10246"
       inkscape:connector-curvature="0" /><path
       d="m -338.41803,324.76748 c 1.59455,-0.65504 3.27723,-0.77123 4.84373,-0.43068 1.0016,0.21634 1.50039,1.43428 0.9415,2.29165 -0.8774,1.34214 -2.15544,2.4419 -3.74998,3.09694 -2.22355,0.91146 -4.61536,0.77724 -6.62857,-0.17628 0.76321,-2.09134 2.36978,-3.86817 4.59332,-4.78163 z"
       style="fill:none;stroke:#ffffff;stroke-width:2.00319552;stroke-linecap:round;stroke-linejoin:miter;stroke-miterlimit:10;stroke-dasharray:none;stroke-opacity:1"
       id="path10250"
       inkscape:connector-curvature="0" /><path
       d="m -343.02317,329.55432 5.06808,-2.08132"
       style="fill:none;stroke:#ffffff;stroke-width:2.00319552;stroke-linecap:round;stroke-linejoin:miter;stroke-miterlimit:10;stroke-dasharray:none;stroke-opacity:1"
       id="path10254"
       inkscape:connector-curvature="0" /><path
       d="m -351.38211,312.50572 c -1.70672,-0.24839 -3.21312,-1.0016 -4.391,-2.09133 -0.7512,-0.69511 -0.5629,-1.99919 0.35657,-2.45392 1.43629,-0.70913 3.09493,-1.0056 4.80166,-0.75721 2.37779,0.34255 4.36897,1.67468 5.61896,3.51962 -1.72075,1.41425 -4.0084,2.12739 -6.38619,1.78284 z"
       style="fill:none;stroke:#ffffff;stroke-width:2.00319552;stroke-linecap:round;stroke-linejoin:miter;stroke-miterlimit:10;stroke-dasharray:none;stroke-opacity:1"
       id="path10258"
       inkscape:connector-curvature="0" /><path
       d="m -350.18199,309.97228 5.19829,0.7512"
       style="fill:none;stroke:#ffffff;stroke-width:2.00319552;stroke-linecap:round;stroke-linejoin:miter;stroke-miterlimit:10;stroke-dasharray:none;stroke-opacity:1"
       id="path10262"
       inkscape:connector-curvature="0" /><path
       d="m -341.76917,304.79122 c 1.3802,-1.03165 2.98075,-1.5625 4.58331,-1.6266 1.02363,-0.0401 1.81089,1.01562 1.48236,1.98717 -0.51482,1.51642 -1.47635,2.90063 -2.85856,3.93227 -1.92507,1.4383 -4.27482,1.90504 -6.46231,1.48437 0.21635,-2.21754 1.33013,-4.33892 3.2552,-5.77721 z"
       style="fill:none;stroke:#ffffff;stroke-width:2.00319552;stroke-linecap:round;stroke-linejoin:miter;stroke-miterlimit:10;stroke-dasharray:none;stroke-opacity:1"
       id="path10266"
       inkscape:connector-curvature="0" /><path
       d="m -340.90059,307.48692 -4.13459,3.08892"
       style="fill:none;stroke:#ffffff;stroke-width:2.00319552;stroke-linecap:round;stroke-linejoin:miter;stroke-miterlimit:10;stroke-dasharray:none;stroke-opacity:1"
       id="path10270"
       inkscape:connector-curvature="0" /><path
       d="m -353.73947,303.88156 c -1.71874,-0.11618 -3.27923,-0.7532 -4.53724,-1.75079 -0.80328,-0.63501 -0.71313,-1.94911 0.16827,-2.47194 1.3782,-0.81731 3.0108,-1.23998 4.73155,-1.12379 2.39582,0.16225 4.48315,1.34013 5.86936,3.08291 -1.60656,1.54246 -3.83411,2.42587 -6.23194,2.26361 z"
       style="fill:none;stroke:#ffffff;stroke-width:2.00319552;stroke-linecap:round;stroke-linejoin:miter;stroke-miterlimit:10;stroke-dasharray:none;stroke-opacity:1"
       id="path10274"
       inkscape:connector-curvature="0" /><path
       d="m -353.16716,301.32088 5.67305,0.29848"
       style="fill:none;stroke:#ffffff;stroke-width:2.00319552;stroke-linecap:round;stroke-linejoin:miter;stroke-miterlimit:10;stroke-dasharray:none;stroke-opacity:1"
       id="path10278"
       inkscape:connector-curvature="0" /><path
       d="m -344.74172,295.45793 c 1.29808,-1.13381 2.85256,-1.78685 4.4451,-1.96914 1.01962,-0.11819 1.885,0.87339 1.6306,1.86697 -0.39664,1.55248 -1.252,3.0048 -2.55007,4.13861 -1.81089,1.58052 -4.11857,2.22354 -6.3321,1.97114 0.0481,-2.22755 0.99759,-4.42706 2.80647,-6.00758 z"
       style="fill:none;stroke:#ffffff;stroke-width:2.00319552;stroke-linecap:round;stroke-linejoin:miter;stroke-miterlimit:10;stroke-dasharray:none;stroke-opacity:1"
       id="path10282"
       inkscape:connector-curvature="0" /><path
       d="m -343.08467,297.49838 -4.47314,3.97635"
       style="fill:none;stroke:#ffffff;stroke-width:2.00319552;stroke-linecap:round;stroke-linejoin:miter;stroke-miterlimit:10;stroke-dasharray:none;stroke-opacity:1"
       id="path10286"
       inkscape:connector-curvature="0" /><path
       d="m -370.29608,315.0606 c -0.45873,0.87339 0.11017,1.51241 0.5028,1.93709 1.55248,1.67467 1.9431,4.21472 0.79126,6.3321 l -1.29606,2.3838 c -1.27203,2.33573 -4.00039,3.37539 -6.44629,2.60215 -0.66506,-0.21033 -1.39422,-0.02 -1.90103,0.46274 0.66306,-0.74118 0.16426,-1.85295 0.16426,-1.85295 -0.24839,-0.90946 -0.16226,-1.91306 0.32652,-2.80848 0.0641,-0.1202 0.13622,-0.23638 0.21434,-0.34656 0.5629,-0.8153 1.04167,-1.6927 1.41827,-2.60816 0.0501,-0.1242 0.11017,-0.24839 0.17428,-0.36859 0.0681,-0.12219 0.13822,-0.23838 0.21634,-0.34855 0.5649,-0.8133 1.04166,-1.6907 1.41826,-2.60616 0.0501,-0.1262 0.11018,-0.2484 0.17628,-0.37059 0.56891,-1.04367 1.98918,-2.57811 3.39141,-2.85455"
       style="fill:none;stroke:#ffffff;stroke-width:2.00319552;stroke-linecap:round;stroke-linejoin:round;stroke-miterlimit:10;stroke-dasharray:none;stroke-opacity:1"
       id="path10290"
       inkscape:connector-curvature="0" /><path
       d="m -371.06972,320.19178 c 0.26643,0.90144 -0.25039,1.84695 -1.14983,2.11337"
       style="fill:none;stroke:#ffffff;stroke-width:2.00319552;stroke-linecap:round;stroke-linejoin:round;stroke-miterlimit:10;stroke-dasharray:none;stroke-opacity:1"
       id="path10294"
       inkscape:connector-curvature="0" /><path
       d="m -373.08954,323.90371 c 0.26643,0.90143 -0.2504,1.84694 -1.14983,2.11337"
       style="fill:none;stroke:#ffffff;stroke-width:2.00319552;stroke-linecap:round;stroke-linejoin:round;stroke-miterlimit:10;stroke-dasharray:none;stroke-opacity:1"
       id="path10298"
       inkscape:connector-curvature="0" /><path
       d="m -369.14885,317.01492 c 0.1282,-1.34615 -0.95553,-2.6903 -0.95553,-2.6903 -1.33813,-0.53285 -2.72434,0.77524 -2.72434,0.77524 0,0 0.98757,-0.82532 1.68268,-0.48678 0,0 -0.52884,0.9355 -0.77323,1.79286 0,0 0.53285,-1.3842 1.42828,-1.48236 0,0 1.18789,1.42828 1.34214,2.09134 z"
       style="fill:none;stroke:#ffffff;stroke-width:2.00319552;stroke-linecap:round;stroke-linejoin:round;stroke-miterlimit:10;stroke-dasharray:none;stroke-opacity:1"
       id="path10302"
       inkscape:connector-curvature="0" /><path
       d="m -369.71015,313.63452 -0.27844,0.77324 -0.79928,-0.30048 0.23238,-0.73718 c 0,0 0.21233,-0.46875 0.59895,-0.25841 0.32051,0.17428 0.24639,0.52283 0.24639,0.52283 z"
       style="fill:none;stroke:#ffffff;stroke-width:2.00319552;stroke-linecap:round;stroke-linejoin:round;stroke-miterlimit:10;stroke-dasharray:none;stroke-opacity:1"
       id="path10306"
       inkscape:connector-curvature="0" /><path
       d="m -369.95674,313.11109 c 0,0 2.35976,-4.77762 5.69108,-0.39463"
       style="fill:none;stroke:#ffffff;stroke-width:2.00319552;stroke-linecap:round;stroke-linejoin:round;stroke-miterlimit:10;stroke-dasharray:none;stroke-opacity:1"
       id="path10310"
       inkscape:connector-curvature="0" /><path
       d="m -378.11716,310.24331 c -0.71714,0.67708 -0.38661,1.46634 -0.15224,1.99719 0.92748,2.08533 0.47476,4.61536 -1.30208,6.24596 l -1.99718,1.83493 c -1.96113,1.79887 -4.87778,1.89703 -6.94108,0.3746 -0.56289,-0.41466 -1.31409,-0.46675 -1.95111,-0.17829 0.86939,-0.48677 0.75721,-1.70071 0.75721,-1.70071 0.0581,-0.9395 0.46674,-1.86097 1.21794,-2.55007 0.10217,-0.0942 0.20633,-0.18029 0.3145,-0.26041 0.79728,-0.58694 1.53445,-1.26202 2.18749,-2.0072 0.0881,-0.10016 0.1843,-0.19832 0.28446,-0.29247 0.10216,-0.0922 0.20833,-0.17829 0.3165,-0.25841 0.79727,-0.58694 1.53445,-1.26402 2.18749,-2.00721 0.0881,-0.10216 0.1843,-0.19831 0.28446,-0.29246 0.87539,-0.80529 2.71833,-1.79487 4.13459,-1.60256"
       style="fill:none;stroke:#ffffff;stroke-width:2.00319552;stroke-linecap:round;stroke-linejoin:round;stroke-miterlimit:10;stroke-dasharray:none;stroke-opacity:1"
       id="path10314"
       inkscape:connector-curvature="0" /><path
       d="m -381.8419,316.42117 c -0.0421,0.9395 -0.83533,1.66666 -1.77283,1.62659"
       style="fill:none;stroke:#ffffff;stroke-width:2.00319552;stroke-linecap:round;stroke-linejoin:round;stroke-miterlimit:10;stroke-dasharray:none;stroke-opacity:1"
       id="path10318"
       inkscape:connector-curvature="0" /><path
       d="m -377.66423,312.46366 c 0.55688,-1.23197 -0.0321,-2.85456 -0.0321,-2.85456 -1.09374,-0.93749 -2.82851,-0.15024 -2.82851,-0.15024 0,0 1.20192,-0.45873 1.74879,0.0861 0,0 -0.80328,0.71314 -1.31209,1.44631 0,0 0.95152,-1.13782 1.83092,-0.94151 0,0 0.66105,1.73678 0.59295,2.41386 z"
       style="fill:none;stroke:#ffffff;stroke-width:2.00319552;stroke-linecap:round;stroke-linejoin:round;stroke-miterlimit:10;stroke-dasharray:none;stroke-opacity:1"
       id="path10322"
       inkscape:connector-curvature="0" /><path
       d="m -377.10094,309.08326 -0.51281,0.64103 -0.65906,-0.54087 0.45874,-0.62499 c 0,0 0.35256,-0.3746 0.64903,-0.0501 0.2484,0.27043 0.0641,0.57491 0.0641,0.57491 z"
       style="fill:none;stroke:#ffffff;stroke-width:2.00319552;stroke-linecap:round;stroke-linejoin:round;stroke-miterlimit:10;stroke-dasharray:none;stroke-opacity:1"
       id="path10326"
       inkscape:connector-curvature="0" /><path
       d="m -377.16444,308.50915 c 0,0 6.66463,-7.07729 12.89858,4.20871"
       style="fill:none;stroke:#ffffff;stroke-width:2.00319552;stroke-linecap:round;stroke-linejoin:round;stroke-miterlimit:10;stroke-dasharray:none;stroke-opacity:1"
       id="path10330"
       inkscape:connector-curvature="0" /><path
       d="m -363.9119,307.48391 c 0,0 -3.25519,14.77557 18.34327,31.71259"
       style="fill:none;stroke:#ffffff;stroke-width:2.00319552;stroke-linecap:round;stroke-linejoin:miter;stroke-miterlimit:10;stroke-dasharray:none;stroke-opacity:1"
       id="path10334"
       inkscape:connector-curvature="0" /><path
       d="m -347.54779,343.71571 c 0,0 12.82846,-8.63978 -3.45151,-49.78342 0,0 -3.97634,-7.69627 0,-10.5328 4.14461,-2.95672 6.7708,4.9519 12.75836,2.87058"
       style="fill:none;stroke:#ffffff;stroke-width:2.00319552;stroke-linecap:round;stroke-linejoin:miter;stroke-miterlimit:10;stroke-dasharray:none;stroke-opacity:1"
       id="path10338"
       inkscape:connector-curvature="0" /></g></svg>