<?xml version="1.0" encoding="UTF-8" standalone="no"?>
<!-- Created with Inkscape (http://www.inkscape.org/) -->

<svg
   xmlns:dc="http://purl.org/dc/elements/1.1/"
   xmlns:cc="http://creativecommons.org/ns#"
   xmlns:rdf="http://www.w3.org/1999/02/22-rdf-syntax-ns#"
   xmlns:svg="http://www.w3.org/2000/svg"
   xmlns="http://www.w3.org/2000/svg"
   xmlns:sodipodi="http://sodipodi.sourceforge.net/DTD/sodipodi-0.dtd"
   xmlns:inkscape="http://www.inkscape.org/namespaces/inkscape"
   viewBox="0 0 43 43"
   id="svg3256"
   version="1.1"
   inkscape:version="0.91 r13725"
   sodipodi:docname="crop.svg"
   inkscape:export-xdpi="51.25631"
   inkscape:export-ydpi="51.25631">
  <defs
     id="defs3258" />
  <sodipodi:namedview
     id="base"
     pagecolor="#ffffff"
     bordercolor="#666666"
     borderopacity="1.0"
     inkscape:pageopacity="0.0"
     inkscape:pageshadow="2"
     inkscape:zoom="11.138723"
     inkscape:cx="18.785062"
     inkscape:cy="37.751188"
     inkscape:document-units="px"
     inkscape:current-layer="layer1"
     showgrid="false"
     fit-margin-top="0"
     fit-margin-left="0"
     fit-margin-right="0"
     fit-margin-bottom="0"
     inkscape:window-width="1920"
     inkscape:window-height="1018"
     inkscape:window-x="-8"
     inkscape:window-y="-8"
     inkscape:window-maximized="1" />
  <metadata
     id="metadata3261">
    <rdf:RDF>
      <cc:Work
         rdf:about="">
        <dc:format>image/svg+xml</dc:format>
        <dc:type
           rdf:resource="http://purl.org/dc/dcmitype/StillImage" />
        <dc:title></dc:title>
      </cc:Work>
    </rdf:RDF>
  </metadata>
  <g
     inkscape:label="Layer 1"
     inkscape:groupmode="layer"
     id="layer1"
     transform="translate(-313.67712,-249.97052)">
    <path
       style="fill:#ffffff;fill-opacity:1;fill-rule:nonzero;stroke:none"
       d="m 347.32663,254.18201 c -0.15334,0 -0.31603,0.0478 -0.43297,0.16494 l -1.85556,1.87618 c -0.23413,0.2333 -0.23413,0.61011 0,0.84531 l 1.62877,1.60816 c 0.23421,0.23322 0.61143,0.23421 0.84531,0 l 1.85557,-1.85556 c 0.23454,-0.23414 0.23388,-0.6111 0,-0.84532 l -1.62878,-1.62877 c -0.11727,-0.11711 -0.25901,-0.16494 -0.41234,-0.16494 z m -5.13373,1.81433 c -0.15338,0 -0.29524,0.0685 -0.41235,0.18556 l -1.85557,1.85556 c -0.23388,0.23422 -0.23388,0.61209 0,0.84531 l 1.60816,1.62878 c 0.23421,0.23512 0.63172,0.23512 0.86593,0 l 1.85556,-1.85557 c 0.23389,-0.23355 0.23455,-0.61209 0,-0.84531 l -1.62877,-1.62877 c -0.11694,-0.11711 -0.27959,-0.18556 -0.43296,-0.18556 z m 8.24695,1.2989 c -0.15341,0 -0.29508,0.0685 -0.41235,0.18555 l -1.87618,1.85557 c -0.23454,0.23512 -0.23454,0.6111 0,0.84531 l 1.62877,1.62877 c 0.23389,0.2348 0.61143,0.2348 0.84532,0 l 1.87618,-1.85556 c 0.23421,-0.23421 0.23388,-0.63172 0,-0.86593 l -1.62877,-1.60816 c -0.11728,-0.1171 -0.27956,-0.18555 -0.43297,-0.18555 z m -19.77207,1.27827 -11.00969,1.95866 7.42226,3.71113 c 0,0 -8.79208,10.70817 -9.38091,15.7723 -0.41787,3.59319 5.1273,9.13869 8.72116,8.72115 5.06379,-0.58949 16.32897,-10.06128 16.32897,-10.06128 l 4.12347,9.89634 0.98964,-12.8034 -2.12359,-2.57717 -6.22645,2.68026 0.74222,-0.74222 c 0.23422,-0.23422 0.23422,-0.6111 0,-0.84532 l -1.62877,-1.62877 c -0.23422,-0.23421 -0.61143,-0.23421 -0.84531,0 l -1.87619,1.87618 c -0.23412,0.23322 -0.23379,0.6111 0,0.84531 l 1.44322,1.4226 -0.98963,0.43297 -1.15458,-1.15458 c -0.23388,-0.23421 -0.6111,-0.23421 -0.84531,0 l -1.85557,1.85557 c -0.23421,0.23331 -0.23388,0.61176 0,0.84531 l 0.0619,0.0825 -1.09272,0.4742 c -0.18844,-0.037 -0.38984,0.0191 -0.53606,0.16494 l -0.10308,0.10309 -2.28853,0.98963 1.75247,-1.75248 c 0.23389,-0.23421 0.23422,-0.61109 0,-0.84531 l -1.62877,-1.62877 c -0.23421,-0.23413 -0.61143,-0.23413 -0.84531,0 l -1.85557,1.87618 c -0.23412,0.23322 -0.23412,0.6111 0,0.84531 l 1.62878,1.62878 c 0.0896,0.0909 0.19356,0.14237 0.30926,0.16494 l -1.09272,0.45358 -1.56693,-1.54631 c -0.0538,-0.0544 -0.0985,-0.0947 -0.16493,-0.1237 l 1.38136,-3.23693 0.72161,-0.70099 c 0.23421,-0.23421 0.23454,-0.61118 0,-0.84531 l -0.0412,-0.0206 0.43297,-0.98964 0.30926,0.30927 c 0.23388,0.23421 0.61077,0.23421 0.84531,0 l 1.85557,-1.87619 c 0.23388,-0.23421 0.23413,-0.6111 0,-0.84531 l -1.38137,-1.38136 0.43297,-0.98964 c 0.0125,0.0142 0.0274,0.0271 0.0412,0.0412 l 1.60816,1.62877 c 0.23454,0.23454 0.63139,0.23454 0.86593,0 l 1.85556,-1.85557 c 0.23389,-0.23331 0.23422,-0.61109 0,-0.84531 l -1.62877,-1.62877 c -0.23388,-0.23422 -0.61077,-0.23422 -0.84531,0 l -1.31952,1.31951 3.03076,-7.05115 -2.57717,-2.12359 z m 14.65896,0.55667 c -0.15343,0 -0.31606,0.0483 -0.43297,0.16494 l -1.85556,1.85557 c -0.23388,0.23421 -0.23388,0.63113 0,0.86593 l 1.62877,1.60815 c 0.23422,0.23331 0.61085,0.23331 0.84532,0 l 1.85556,-1.85556 c 0.23421,-0.23421 0.23454,-0.6102 0,-0.84531 l -1.62877,-1.62878 c -0.11695,-0.11661 -0.25893,-0.16494 -0.41235,-0.16494 z m -6.53571,0.28865 c -0.15342,0 -0.31603,0.0478 -0.43297,0.16494 l -1.85556,1.87618 c -0.23422,0.23413 -0.23422,0.61176 0,0.84531 l 1.62877,1.62877 c 0.23421,0.23356 0.61118,0.23356 0.84531,0 l 1.85557,-1.87618 c 0.23388,-0.23421 0.23454,-0.61209 0,-0.84531 l -1.62877,-1.62877 c -0.11695,-0.11711 -0.25894,-0.16494 -0.41235,-0.16494 z m 9.64893,2.82458 c -0.15347,0 -0.2954,0.0682 -0.41234,0.18556 l -1.87619,1.85556 c -0.23454,0.2352 -0.23454,0.61176 0,0.84531 l 1.62878,1.62878 c 0.23388,0.23511 0.6111,0.23511 0.84531,0 l 1.87618,-1.87619 c 0.23381,-0.23421 0.23414,-0.612 0,-0.84531 l -1.62877,-1.60815 c -0.11711,-0.1174 -0.27949,-0.18556 -0.43297,-0.18556 z m -6.53571,0.28864 c -0.15347,0 -0.29524,0.0685 -0.41234,0.18556 l -1.87619,1.85556 c -0.23388,0.23422 -0.23388,0.61176 0,0.84532 l 1.62878,1.62877 c 0.23421,0.23413 0.61077,0.23413 0.84531,0 l 1.87618,-1.85557 c 0.23389,-0.23322 0.23421,-0.61109 0,-0.84531 l -1.62877,-1.62877 c -0.11694,-0.11711 -0.27949,-0.18556 -0.43297,-0.18556 z m -6.53571,0.30926 c -0.15339,9e-5 -0.29524,0.0478 -0.41235,0.16494 l -1.87618,1.85557 c -0.23421,0.23421 -0.23421,0.61044 0,0.84531 l 1.62878,1.62877 c 0.23421,0.23422 0.61076,0.23422 0.84531,0 l 1.87618,-1.85556 c 0.23454,-0.23422 0.23454,-0.61011 0,-0.84531 l -1.62877,-1.62878 c -0.11695,-0.11677 -0.27958,-0.16502 -0.43297,-0.16494 z m 9.64894,2.82458 c -0.15344,0 -0.29541,0.0478 -0.41235,0.16494 l -1.85556,1.85557 c -0.23455,0.23421 -0.23455,0.63179 0,0.86593 l 1.62877,1.60815 c 0.23388,0.23356 0.6111,0.23356 0.84531,0 l 1.85557,-1.85556 c 0.23421,-0.23355 0.23446,-0.61209 0,-0.84531 l -1.62878,-1.62878 c -0.11694,-0.1171 -0.27953,-0.16494 -0.43296,-0.16494 z m -6.53571,0.28865 c -0.15348,0 -0.29541,0.0475 -0.41235,0.16494 l -1.85557,1.87618 c -0.23388,0.23512 -0.23388,0.61176 0,0.84531 l 1.62878,1.62878 c 0.23454,0.23421 0.61143,0.23421 0.84531,0 l 1.85557,-1.87619 c 0.23413,-0.23421 0.23413,-0.6111 0,-0.84531 l -1.62878,-1.62877 c -0.1171,-0.11744 -0.27949,-0.16494 -0.43296,-0.16494 z m 3.13384,3.11322 c -0.15341,0 -0.31602,0.0688 -0.43297,0.18556 l -1.85556,1.85556 c -0.23421,0.23422 -0.23421,0.61052 0,0.84532 l 1.62877,1.62877 c 0.23389,0.23355 0.61143,0.23355 0.84532,0 l 1.85556,-1.85556 c 0.23421,-0.23422 0.23421,-0.61053 0,-0.84532 l -1.62877,-1.62877 c -0.11694,-0.11678 -0.25894,-0.18556 -0.41235,-0.18556 z m -6.53571,0.30926 c -0.15343,-8e-5 -0.31603,0.0478 -0.43297,0.16494 l -1.85556,1.85557 c -0.23455,0.23512 -0.23389,0.6111 0,0.84531 l 1.62877,1.62877 c 0.23422,0.23356 0.6111,0.23356 0.84531,0 l 1.85557,-1.85556 c 0.23446,-0.23413 0.23446,-0.61077 0,-0.84531 l -1.62877,-1.62878 c -0.1169,-0.11677 -0.25893,-0.16485 -0.41235,-0.16494 z m -3.42249,3.40187 c -0.15341,0 -0.2954,0.0688 -0.41235,0.18556 l -1.87618,1.85556 c -0.23446,0.23413 -0.23446,0.6111 0,0.84532 l 1.62878,1.62877 c 0.2338,0.23355 0.61109,0.23355 0.84531,0 l 1.87618,-1.85556 c 0.23388,-0.23422 0.23421,-0.61011 0,-0.84532 l -1.62877,-1.62877 c -0.11694,-0.11678 -0.27955,-0.18556 -0.43297,-0.18556 z"
       id="rect2983"
       inkscape:connector-curvature="0" />
  </g>
</svg>
