<?xml version="1.0" encoding="UTF-8" standalone="no"?>
<svg
   xmlns:dc="http://purl.org/dc/elements/1.1/"
   xmlns:cc="http://creativecommons.org/ns#"
   xmlns:rdf="http://www.w3.org/1999/02/22-rdf-syntax-ns#"
   xmlns:svg="http://www.w3.org/2000/svg"
   xmlns="http://www.w3.org/2000/svg"
   xmlns:sodipodi="http://sodipodi.sourceforge.net/DTD/sodipodi-0.dtd"
   xmlns:inkscape="http://www.inkscape.org/namespaces/inkscape"
   xml:space="preserve"
   enable-background="new -331 270.6 54.2 55.6"
   viewBox="-331 270.6 42.999999 43.000001"
   height="43"
   width="43"
   y="0px"
   x="0px"
   id="Layer_1"
   version="1.1"
   sodipodi:docname="pearlmillet.svg"
   inkscape:version="0.92.1 r15371"><sodipodi:namedview
     pagecolor="#ffffff"
     bordercolor="#666666"
     borderopacity="1"
     objecttolerance="10"
     gridtolerance="10"
     guidetolerance="10"
     inkscape:pageopacity="0"
     inkscape:pageshadow="2"
     inkscape:window-width="1920"
     inkscape:window-height="1017"
     id="namedview31"
     showgrid="false"
     inkscape:zoom="1.9404326"
     inkscape:cx="-127.63815"
     inkscape:cy="54.708368"
     inkscape:window-x="-8"
     inkscape:window-y="-8"
     inkscape:window-maximized="1"
     inkscape:current-layer="Layer_1" /><metadata
     id="metadata35"><rdf:RDF><cc:Work
         rdf:about=""><dc:format>image/svg+xml</dc:format><dc:type
           rdf:resource="http://purl.org/dc/dcmitype/StillImage" /><dc:title /></cc:Work></rdf:RDF></metadata><defs
     id="defs33"><pattern
       id="EMFhbasepattern"
       patternUnits="userSpaceOnUse"
       width="6"
       height="6"
       x="0"
       y="0" /></defs><g
     style="fill:#ffffff"
     transform="translate(0,-12.599998)"
     id="apple" /><g
     style="fill:#ffffff"
     transform="translate(0,-12.599998)"
     id="barley" /><g
     style="fill:#ffffff"
     transform="translate(0,-12.599998)"
     id="carrot" /><g
     style="fill:#ffffff"
     transform="translate(0,-12.599998)"
     id="eggplant" /><g
     style="fill:#ffffff"
     transform="translate(0,-12.599998)"
     id="pea" /><g
     style="fill:#ffffff"
     transform="translate(0,-12.599998)"
     id="patato" /><g
     style="fill:#ffffff"
     transform="translate(0,-12.599998)"
     id="chickpea" /><g
     style="fill:#ffffff"
     transform="translate(0,-12.599998)"
     id="faba_bean" /><g
     style="fill:#ffffff"
     transform="translate(0,-12.599998)"
     id="lentil" /><g
     style="fill:#ffffff"
     transform="translate(0,-12.599998)"
     id="bean" /><g
     style="fill:#ffffff"
     transform="translate(0,-12.599998)"
     id="rice" /><g
     style="fill:#ffffff"
     transform="translate(0,-12.599998)"
     id="sorghum" /><g
     style="fill:#ffffff"
     transform="translate(0,-12.599998)"
     id="pearl_millet" /><g
     style="fill:#ffffff"
     transform="translate(0,-12.599998)"
     id="pigeon_pea" /><g
     style="fill:#ffffff"
     transform="translate(0,-12.599998)"
     id="grasspea" /><g
     style="fill:#ffffff"
     transform="translate(0,-12.599998)"
     id="cowpea" /><g
     style="fill:#ffffff"
     transform="translate(0,-12.599998)"
     id="bambara" /><g
     style="fill:#ffffff"
     transform="translate(0,-12.599998)"
     id="vetch" /><g
     style="fill:#ffffff"
     transform="translate(0,-12.599998)"
     id="wheat" /><g
     style="fill:#ffffff"
     transform="translate(0,-12.599998)"
     id="banana" /><g
     style="fill:#ffffff"
     transform="translate(0,-12.599998)"
     id="rye" /><g
     style="fill:#ffffff"
     transform="translate(0,-12.599998)"
     id="alfalfa" /><g
     style="fill:#ffffff"
     transform="translate(0,-12.599998)"
     id="finger_millet" /><g
     style="fill:#ffffff"
     transform="translate(0,-12.599998)"
     id="sweet_patato" /><g
     style="fill:#ffffff"
     transform="translate(0,-12.599998)"
     id="oat" /><g
     transform="translate(-84.582181,-14.421187)"
     id="apple-5" /><g
     transform="translate(-84.582181,-14.421187)"
     id="barley-0" /><g
     transform="translate(-84.582181,-14.421187)"
     id="carrot-7" /><g
     transform="translate(-84.582181,-14.421187)"
     id="eggplant-1" /><g
     transform="translate(-84.582181,-14.421187)"
     id="pea-3" /><g
     transform="translate(-84.582181,-14.421187)"
     id="sunflower" /><g
     transform="translate(-84.582181,-14.421187)"
     id="patato-7" /><g
     transform="translate(-84.582181,-14.421187)"
     id="chickpea-3" /><g
     transform="translate(-84.582181,-14.421187)"
     id="faba_bean-4" /><g
     transform="translate(-84.582181,-14.421187)"
     id="lentil-5" /><g
     transform="translate(-84.582181,-14.421187)"
     id="bean-3" /><g
     transform="translate(-84.582181,-14.421187)"
     id="rice-4" /><g
     transform="translate(-84.582181,-14.421187)"
     id="sorghum-6" /><g
     transform="translate(-84.582181,-14.421187)"
     id="pearl_millet-6" /><g
     transform="translate(-84.582181,-14.421187)"
     id="pigeon_pea-4" /><g
     transform="translate(-84.582181,-14.421187)"
     id="grasspea-4" /><g
     transform="translate(-84.582181,-14.421187)"
     id="bambara-3" /><g
     transform="translate(-84.582181,-14.421187)"
     id="vetch-2" /><g
     transform="translate(-84.582181,-14.421187)"
     id="wheat-6" /><g
     transform="translate(-84.582181,-14.421187)"
     id="banana-7" /><g
     transform="translate(-84.582181,-14.421187)"
     id="rye-5" /><g
     transform="translate(-84.582181,-14.421187)"
     id="alfalfa-1" /><g
     transform="translate(-84.582181,-14.421187)"
     id="finger_millet-2" /><g
     transform="translate(-84.582181,-14.421187)"
     id="sweet_patato-3" /><g
     transform="translate(-84.582181,-14.421187)"
     id="oat-1" /><g
     id="g4677"
     transform="matrix(0.53290497,0,0,0.53290497,-111.13789,143.65598)"><path
       inkscape:connector-curvature="0"
       style="fill:none;stroke:#ffffff;stroke-width:2.02272463px;stroke-linecap:round;stroke-linejoin:round;stroke-miterlimit:4;stroke-dasharray:none;stroke-opacity:1"
       d="m -366.93339,276.11707 c 0,0 -3.09357,9.04276 -2.1417,26.17643"
       id="path4519" /><path
       inkscape:connector-curvature="0"
       style="fill:none;stroke:#ffffff;stroke-width:2.02272463px;stroke-linecap:round;stroke-linejoin:round;stroke-miterlimit:4;stroke-dasharray:none;stroke-opacity:1"
       d="m -378.11786,275.0462 c 0,0 6.18716,8.68583 6.06817,21.29811"
       id="path4521" /><path
       inkscape:connector-curvature="0"
       style="fill:none;stroke:#ffffff;stroke-width:2.02272463px;stroke-linecap:round;stroke-linejoin:round;stroke-miterlimit:4;stroke-dasharray:none;stroke-opacity:1"
       d="m -369.07509,297.17719 c 8.44784,-9.04276 21.89302,13.20721 21.89302,13.20721 -3.45054,-11.77939 -16.06281,-19.98928 -16.06281,-19.98928 0,0 -5.83021,2.61764 -5.83021,6.78207 z"
       id="path4523" /><path
       inkscape:connector-curvature="0"
       style="fill:none;stroke:#ffffff;stroke-width:2.02272463px;stroke-linecap:round;stroke-linejoin:round;stroke-miterlimit:4;stroke-dasharray:none;stroke-opacity:1"
       d="m -374.07241,286.94458 c 0,0 -2.49867,-5.23528 -6.42513,-5.35426 -3.92647,-0.23797 -13.2072,13.68313 -15.11094,22.72591 0,0 8.20989,-19.03742 15.11094,-19.1564 0,0 7.73394,0.35695 8.0909,5.71122"
       id="path4525" /><path
       inkscape:connector-curvature="0"
       style="fill:none;stroke:#ffffff;stroke-width:2.02272463px;stroke-linecap:round;stroke-linejoin:round;stroke-miterlimit:4;stroke-dasharray:none;stroke-opacity:1"
       d="m -351.22752,246.96603 c -0.35695,-0.11899 -0.59492,-0.11899 -0.59492,-0.11899 -0.71391,-0.11898 -1.30882,0 -1.78476,0.47594 -0.23797,0.35695 -0.59492,0.71391 -0.95187,0.95188 -0.35696,0.23797 -0.7139,0.47594 -0.83288,0.95186 -0.35696,0.35695 -0.71391,0.71391 -1.07086,1.07086 -0.59491,0.11899 -1.07085,0.59491 -1.07085,1.30882 0,0 0,0 0,0 -0.47594,0.59492 -0.95188,1.07086 -1.30883,1.66577 -0.47593,0.11898 -0.83288,0.59492 -0.83288,1.07086 -0.47594,0.7139 -0.95188,1.30882 -1.4278,2.02273 -0.47594,0.11898 -0.83289,0.59491 -0.83289,1.07084 0,0 0,0.11899 0,0.11899 -0.35696,0.59492 -0.8329,1.18985 -1.18984,1.90374 -0.47594,0.11898 -0.7139,0.71391 -0.7139,1.30882 0,0 0,-0.11899 0,0 -0.35696,0.59492 -0.71391,1.18984 -1.07087,1.90375 -0.47592,0.11899 -0.71389,0.95186 -0.71389,1.54679 0,0.11898 -0.11898,-0.11899 0,0 -0.35695,0.71389 -0.71391,1.4278 -0.95188,2.02272 -0.47594,0.23797 -0.83288,0.95186 -0.59491,1.54679 0,0.23797 -0.11898,-0.11899 0,0 -0.23797,0.59492 -0.35695,0.95187 -0.59492,1.4278 -0.23797,0.23797 -0.35695,0.83289 -0.35695,1.18985 0,0.11898 0,-0.11899 0,0 -0.11899,0.71389 -0.35696,1.18983 -0.35696,1.54678 0,0 -0.35695,0.47594 -0.35695,0.95186 0,0.35696 0.23797,1.07087 0.23797,1.07087 0.23797,0.95186 0.95188,1.78475 2.02272,1.90374 1.4278,0.35695 2.9746,-0.47594 3.33156,-2.02273 0,0 -0.23797,0.71391 0,0 0.59491,-0.71391 0.95186,-2.61765 0.83288,-3.21256 0,-0.23796 0.11898,-0.47593 0.23797,-0.7139 0,0 0.47593,-0.59493 0.59492,-1.18984 0,-0.23796 0,-0.7139 0,-0.7139 0.23797,-0.59493 0.35695,-1.18985 0.71389,-1.78476 0,0 0.59493,-0.35695 0.47594,-1.07086 0,-0.11899 0.11899,-0.47592 0.11899,-0.47592 0.23797,-0.59493 0.47593,-1.18985 0.83289,-1.90376 0.35694,-0.23795 0.59491,-0.59491 0.59491,-1.07085 0,0 0,0 0,0 0.23797,-0.71391 0.59492,-1.4278 1.07086,-2.14171 0.47594,-0.11898 0.83288,-0.59492 0.83288,-1.18983 0,-0.11898 0,-0.11898 0,-0.23797 0.23797,-0.47594 0.47594,-0.83289 0.83289,-1.30883 0.35695,-0.23795 0.47594,-0.59491 0.59492,-0.95186 0.35696,-0.59493 0.7139,-1.07086 1.18984,-1.66577 0.23796,-0.11899 0.35695,-0.35696 0.47593,-0.59493 0.59493,-0.83289 1.30882,-1.54678 2.02273,-2.37967 0,0 0,0 0,0 0.59492,-0.23797 0.95186,-0.59491 1.18983,-1.30882 0.35695,-0.47594 0.47594,-1.07086 0.35695,-1.66577 -0.11898,-0.35696 -0.35695,-0.83289 0.11899,-1.54679 -0.35695,0.35694 -0.71391,0.35694 -1.07085,0.23796 z"
       id="path4527" /><path
       inkscape:connector-curvature="0"
       style="fill:none;stroke:#ffffff;stroke-width:2.02272463px;stroke-linecap:round;stroke-linejoin:round;stroke-miterlimit:4;stroke-dasharray:none;stroke-opacity:1"
       d="m -396.44137,254.10506 c 0.23797,-0.23797 0.59492,-0.23797 0.59492,-0.23797 0.35696,-0.23797 0.95187,-0.23797 1.42781,0.11899 0.23797,0.11898 0.59492,0.35695 0.95187,0.59492 0.35694,0 0.59491,0.23796 0.7139,0.47593 0.35695,0.23796 0.7139,0.47593 1.07086,0.83289 0.59491,-0.11899 1.07085,0.23797 1.18983,0.71391 0,0 0,0 0,0 0.47594,0.35694 0.83289,0.71389 1.30882,1.07084 0.35695,0.11899 0.71391,0.35696 0.83289,0.71391 0.59492,0.47593 1.07086,0.95186 1.54679,1.30882 0.35695,0.11898 0.7139,0.35695 0.83289,0.83289 0,0 0,0 0,0 0.47594,0.47592 0.83288,0.83288 1.30882,1.30882 0.35695,0 0.7139,0.47594 0.83289,0.95186 0,0 0,-0.11898 0,0 0.35695,0.35695 0.71389,0.83289 1.18983,1.30883 0.35695,0 0.71391,0.59493 0.83289,1.07085 0,0.11898 0,-0.11899 0,0 0.47594,0.47594 0.83288,1.07086 1.07085,1.42782 0.47594,0.11898 0.83289,0.71389 0.83289,1.18983 0,0.11898 0,-0.11899 0,0 0.23797,0.35695 0.47594,0.71391 0.59493,0.95187 0.23797,0.23796 0.47592,0.7139 0.5949,0.95187 0,0.11898 0,-0.11899 0,0 0.23797,0.47594 0.47594,0.83289 0.59493,1.18983 0,0 0.35695,0.35695 0.35695,0.71391 0.11899,0.23797 0.11899,0.83289 0.11899,0.83289 -0.11899,0.71389 -0.47594,1.54679 -1.30883,1.90374 -1.07085,0.59491 -2.49865,0.11898 -2.97459,-1.07086 0,0 0.23797,0.59492 0,0 -0.59493,-0.47594 -1.30882,-1.90374 -1.30882,-2.37968 -0.11898,-0.11899 -0.11898,-0.35694 -0.23797,-0.59491 0,0 -0.59492,-0.23797 -0.71391,-0.83289 -0.11898,-0.11899 -0.11898,-0.47594 -0.11898,-0.47594 -0.23797,-0.35694 -0.59492,-0.83288 -0.95186,-1.30882 0,0 -0.47594,-0.23797 -0.59493,-0.71391 0,-0.11898 -0.11898,-0.47592 -0.11898,-0.47592 -0.35696,-0.35695 -0.71391,-0.83289 -1.07086,-1.30883 -0.23796,-0.11899 -0.59491,-0.35696 -0.59491,-0.71389 0,0 0,-0.11899 0,-0.11899 -0.35696,-0.47594 -0.83289,-0.95188 -1.18985,-1.42782 -0.47592,0 -0.83288,-0.35693 -0.95186,-0.83287 0,0 0,0 0,-0.11899 -0.35696,-0.35695 -0.59492,-0.59492 -0.95188,-0.95188 -0.23797,-0.11898 -0.47592,-0.35693 -0.59491,-0.5949 -0.47594,-0.35696 -0.83289,-0.71391 -1.30883,-1.07087 -0.11898,-0.11898 -0.35695,-0.23797 -0.35695,-0.35695 -0.7139,-0.59491 -1.4278,-1.07085 -2.14171,-1.66577 0,0 0,0 0,0 -0.47593,0 -0.83288,-0.23797 -1.18983,-0.71389 -0.35696,-0.35696 -0.59493,-0.8329 -0.59493,-1.30884 0,-0.35695 0.11899,-0.71389 -0.35694,-1.18983 0.35694,0.23797 0.59491,0.11899 0.83288,0 z"
       id="path4529" /></g></svg>