<?xml version="1.0" encoding="UTF-8" standalone="no"?>
<svg
   xmlns:dc="http://purl.org/dc/elements/1.1/"
   xmlns:cc="http://creativecommons.org/ns#"
   xmlns:rdf="http://www.w3.org/1999/02/22-rdf-syntax-ns#"
   xmlns:svg="http://www.w3.org/2000/svg"
   xmlns="http://www.w3.org/2000/svg"
   xmlns:sodipodi="http://sodipodi.sourceforge.net/DTD/sodipodi-0.dtd"
   xmlns:inkscape="http://www.inkscape.org/namespaces/inkscape"
   xml:space="preserve"
   enable-background="new -331 270.6 54.2 55.6"
   viewBox="-331 270.6 42.999999 43.000001"
   height="43"
   width="43"
   y="0px"
   x="0px"
   id="Layer_1"
   version="1.1"
   sodipodi:docname="pigeonpea.svg"
   inkscape:version="0.92.1 r15371"><sodipodi:namedview
     pagecolor="#ffffff"
     bordercolor="#666666"
     borderopacity="1"
     objecttolerance="10"
     gridtolerance="10"
     guidetolerance="10"
     inkscape:pageopacity="0"
     inkscape:pageshadow="2"
     inkscape:window-width="1920"
     inkscape:window-height="1017"
     id="namedview31"
     showgrid="false"
     inkscape:zoom="5.4883721"
     inkscape:cx="-60.947032"
     inkscape:cy="21.5"
     inkscape:window-x="-8"
     inkscape:window-y="-8"
     inkscape:window-maximized="1"
     inkscape:current-layer="Layer_1" /><metadata
     id="metadata35"><rdf:RDF><cc:Work
         rdf:about=""><dc:format>image/svg+xml</dc:format><dc:type
           rdf:resource="http://purl.org/dc/dcmitype/StillImage" /><dc:title /></cc:Work></rdf:RDF></metadata><defs
     id="defs33" /><g
     style="fill:#ffffff"
     transform="translate(0,-12.599998)"
     id="apple" /><g
     style="fill:#ffffff"
     transform="translate(0,-12.599998)"
     id="barley" /><g
     style="fill:#ffffff"
     transform="translate(0,-12.599998)"
     id="carrot" /><g
     style="fill:#ffffff"
     transform="translate(0,-12.599998)"
     id="eggplant" /><g
     style="fill:#ffffff"
     transform="translate(0,-12.599998)"
     id="pea" /><g
     style="fill:#ffffff"
     transform="translate(0,-12.599998)"
     id="patato" /><g
     style="fill:#ffffff"
     transform="translate(0,-12.599998)"
     id="chickpea" /><g
     style="fill:#ffffff"
     transform="translate(0,-12.599998)"
     id="faba_bean" /><g
     style="fill:#ffffff"
     transform="translate(0,-12.599998)"
     id="lentil" /><g
     style="fill:#ffffff"
     transform="translate(0,-12.599998)"
     id="bean" /><g
     style="fill:#ffffff"
     transform="translate(0,-12.599998)"
     id="rice" /><g
     style="fill:#ffffff"
     transform="translate(0,-12.599998)"
     id="sorghum" /><g
     style="fill:#ffffff"
     transform="translate(0,-12.599998)"
     id="pearl_millet" /><g
     style="fill:#ffffff"
     transform="translate(0,-12.599998)"
     id="pigeon_pea" /><g
     style="fill:#ffffff"
     transform="translate(0,-12.599998)"
     id="grasspea" /><g
     style="fill:#ffffff"
     transform="translate(0,-12.599998)"
     id="cowpea" /><g
     style="fill:#ffffff"
     transform="translate(0,-12.599998)"
     id="bambara" /><g
     style="fill:#ffffff"
     transform="translate(0,-12.599998)"
     id="vetch" /><g
     style="fill:#ffffff"
     transform="translate(0,-12.599998)"
     id="wheat" /><g
     style="fill:#ffffff"
     transform="translate(0,-12.599998)"
     id="banana" /><g
     style="fill:#ffffff"
     transform="translate(0,-12.599998)"
     id="rye" /><g
     style="fill:#ffffff"
     transform="translate(0,-12.599998)"
     id="alfalfa" /><g
     style="fill:#ffffff"
     transform="translate(0,-12.599998)"
     id="finger_millet" /><g
     style="fill:#ffffff"
     transform="translate(0,-12.599998)"
     id="sweet_patato" /><g
     style="fill:#ffffff"
     transform="translate(0,-12.599998)"
     id="oat" /><g
     transform="translate(-84.582181,-14.421187)"
     id="apple-5" /><g
     transform="translate(-84.582181,-14.421187)"
     id="barley-0" /><g
     transform="translate(-84.582181,-14.421187)"
     id="carrot-7" /><g
     transform="translate(-84.582181,-14.421187)"
     id="eggplant-1" /><g
     transform="translate(-84.582181,-14.421187)"
     id="pea-3" /><g
     transform="translate(-84.582181,-14.421187)"
     id="sunflower" /><g
     transform="translate(-84.582181,-14.421187)"
     id="patato-7" /><g
     transform="translate(-84.582181,-14.421187)"
     id="chickpea-3" /><g
     transform="translate(-84.582181,-14.421187)"
     id="faba_bean-4" /><g
     transform="translate(-84.582181,-14.421187)"
     id="lentil-5" /><g
     transform="translate(-84.582181,-14.421187)"
     id="bean-3" /><g
     transform="translate(-84.582181,-14.421187)"
     id="rice-4" /><g
     transform="translate(-84.582181,-14.421187)"
     id="sorghum-6" /><g
     transform="translate(-84.582181,-14.421187)"
     id="pearl_millet-6" /><g
     transform="translate(-84.582181,-14.421187)"
     id="pigeon_pea-4" /><g
     transform="translate(-84.582181,-14.421187)"
     id="grasspea-4" /><g
     transform="translate(-84.582181,-14.421187)"
     id="bambara-3" /><g
     transform="translate(-84.582181,-14.421187)"
     id="vetch-2" /><g
     transform="translate(-84.582181,-14.421187)"
     id="wheat-6" /><g
     transform="translate(-84.582181,-14.421187)"
     id="banana-7" /><g
     transform="translate(-84.582181,-14.421187)"
     id="rye-5" /><g
     transform="translate(-84.582181,-14.421187)"
     id="alfalfa-1" /><g
     transform="translate(-84.582181,-14.421187)"
     id="finger_millet-2" /><g
     transform="translate(-84.582181,-14.421187)"
     id="sweet_patato-3" /><g
     transform="translate(-84.582181,-14.421187)"
     id="oat-1" /><g
     id="g4823"
     transform="matrix(0.49830574,0,0,0.49830574,-132.39454,151.17533)"><g
       id="g4786"><path
         inkscape:connector-curvature="0"
         id="path10984"
         style="fill:none;stroke:#ffffff;stroke-width:2.00405264;stroke-linecap:round;stroke-linejoin:round;stroke-miterlimit:10;stroke-dasharray:none;stroke-opacity:1"
         d="m -387.3173,303.89953 c 0,0 0.0381,-0.0762 0.11624,-0.17436 -0.002,0 -0.004,0.02 -0.006,0.02 z" /><path
         inkscape:connector-curvature="0"
         id="path10988"
         style="fill:none;stroke:#ffffff;stroke-width:2.00405264;stroke-linecap:round;stroke-linejoin:round;stroke-miterlimit:10;stroke-dasharray:none;stroke-opacity:1"
         d="m -385.55012,299.86497 c 0.004,0 0.0341,-0.0661 0.1002,-0.14029 -0.0341,0.0461 -0.0661,0.0922 -0.1002,0.14029 z m 0.1002,-0.14029 c -0.71345,1.01606 -1.24051,2.32671 -1.60124,3.84177 0.0401,-0.0501 -0.0601,0.0541 0,0 -0.76956,0.9399 -1.34672,2.26859 -1.64934,3.89989 -0.022,0.0842 -0.0361,0.16834 -0.0501,0.25251 -0.008,0.0481 -0.016,0.0922 -0.024,0.14028 0,0 0.006,-0.02 0.014,-0.0521 -0.0501,0.44089 -0.004,0.88178 0.15632,1.2846 0.0481,0.12826 0.10822,0.25251 0.17636,0.37275 0.73949,1.27859 0.24649,1.69743 -0.47697,2.966 0.53508,-0.9399 2.95798,-1.3848 3.99207,-1.84173 1.17237,-0.51905 2.44896,-1.75955 3.04015,-4.21652 l 0.014,-0.0321 c 0.6914,-0.97597 1.25253,-2.24053 1.61727,-3.68545 l 0.0822,-0.19039 c 0.006,0 0.016,-0.02 0.016,-0.02 h -0.008 l 0.0601,-0.13226 c 0.6914,-0.97798 1.25454,-2.24054 1.61728,-3.68746 l 0.0681,-0.15431 c 0.018,-0.0261 0.0261,-0.0401 0.0281,-0.0441 0.68338,-0.97197 1.2365,-2.22651 1.59923,-3.6574 l 0.22045,-0.50302 c 0.6914,-0.97797 1.25253,-2.24053 1.61927,-3.68745 l 0.0661,-0.15431 c 0.02,-0.0301 0.0321,-0.0501 0.0321,-0.0501 h -0.008 c 1.49903,-2.30666 0.96395,-4.27865 1.22046,-5.14039 0,0 -1.28059,0.42887 -2.53512,0.55111 -2.17841,0.21444 -5.35683,1.19241 -5.51716,5.57728 l -0.006,0.02 c -0.87377,1.06415 -1.57519,2.56519 -1.98802,4.31874 -0.81164,1.04812 -1.38681,2.37279 -1.77559,4.02814 z" /><path
         inkscape:connector-curvature="0"
         id="path10992"
         style="fill:none;stroke:#ffffff;stroke-width:2.00405264;stroke-linecap:round;stroke-linejoin:round;stroke-miterlimit:10;stroke-dasharray:none;stroke-opacity:1"
         d="m -388.90451,312.43058 c 0,0 -0.61725,1.02207 -0.62727,1.42889" /><path
         inkscape:connector-curvature="0"
         id="path10996"
         style="fill:none;stroke:#ffffff;stroke-width:2.00405264;stroke-linecap:round;stroke-linejoin:round;stroke-miterlimit:10;stroke-dasharray:none;stroke-opacity:1"
         d="m -373.29474,285.16644 c -0.33267,0.0661 0.14229,1.79764 0.14229,1.79764 l -0.99602,-1.51707 -0.90984,-0.8417 c 0,0 1.4309,0.62727 1.76357,0.56113 z" /><path
         inkscape:connector-curvature="0"
         id="path11000"
         style="fill:none;stroke:#ffffff;stroke-width:2.00405264;stroke-linecap:round;stroke-linejoin:round;stroke-miterlimit:10;stroke-dasharray:none;stroke-opacity:1"
         d="m -377.11306,291.01507 c 0,0 -0.33067,0.47496 -2.46098,0.91786" /><path
         inkscape:connector-curvature="0"
         id="path11004"
         style="fill:none;stroke:#ffffff;stroke-width:2.00405264;stroke-linecap:round;stroke-linejoin:round;stroke-miterlimit:10;stroke-dasharray:none;stroke-opacity:1"
         d="m -379.04076,295.40876 c 0,0 -0.33267,0.47295 -2.46298,0.91785" /><path
         inkscape:connector-curvature="0"
         id="path11008"
         style="fill:none;stroke:#ffffff;stroke-width:2.00405264;stroke-linecap:round;stroke-linejoin:round;stroke-miterlimit:10;stroke-dasharray:none;stroke-opacity:1"
         d="m -380.97046,299.80144 c 0,0 -0.33067,0.47496 -2.46098,0.91785" /><path
         inkscape:connector-curvature="0"
         id="path11012"
         style="fill:none;stroke:#ffffff;stroke-width:2.00405264;stroke-linecap:round;stroke-linejoin:round;stroke-miterlimit:10;stroke-dasharray:none;stroke-opacity:1"
         d="m -382.89816,304.19412 c 0,0 -0.33267,0.47496 -2.46298,0.91986" /><path
         inkscape:connector-curvature="0"
         id="path11016"
         style="fill:none;stroke:#ffffff;stroke-width:2.00405264;stroke-linecap:round;stroke-linejoin:round;stroke-miterlimit:10;stroke-dasharray:none;stroke-opacity:1"
         d="m -366.77776,305.28513 c 0,0 -0.024,-0.0701 -0.0361,-0.17836 0.002,0 0.006,0.02 0.008,0.02 z" /><path
         inkscape:connector-curvature="0"
         id="path11020"
         style="fill:none;stroke:#ffffff;stroke-width:2.00405264;stroke-linecap:round;stroke-linejoin:round;stroke-miterlimit:10;stroke-dasharray:none;stroke-opacity:1"
         d="m -368.17318,301.7105 c -0.002,0 -0.02,-0.0601 -0.0261,-0.1483 0.008,0.0501 0.016,0.0982 0.0261,0.1483 z m -0.0261,-0.1483 c 0.18838,1.06616 0.66936,2.19845 1.3828,3.35278 -0.006,-0.0541 -0.004,0.0721 0,0 0.10421,1.05413 0.56715,2.2265 1.3848,3.42092 0.0401,0.0641 0.0822,0.12425 0.12626,0.18437 0.024,0.0341 0.0441,0.0681 0.0701,0.10221 0,0 -0.01,-0.02 -0.0221,-0.0421 0.23848,0.30462 0.5411,0.5451 0.88579,0.69741 0.11023,0.0481 0.22446,0.0882 0.33869,0.11824 1.24452,0.33267 1.19842,0.89782 1.5351,2.12229 -0.2505,-0.90783 0.96596,-2.6734 1.32268,-3.59326 0.40281,-1.04211 0.42486,-2.59124 -0.72347,-4.47104 l -0.012,-0.0281 c -0.17435,-1.02808 -0.60723,-2.15235 -1.27458,-3.26861 l -0.0641,-0.16634 v -0.02 l -0.006,0.002 -0.0461,-0.11824 c -0.17435,-1.02608 -0.60923,-2.15236 -1.27458,-3.26861 l -0.0521,-0.13628 c -0.006,-0.026 -0.01,-0.0401 -0.01,-0.0421 -0.18036,-1.02007 -0.61123,-2.13432 -1.27056,-3.24056 l -0.17436,-0.4449 c -0.17435,-1.02808 -0.60723,-2.15435 -1.27457,-3.26861 l -0.0521,-0.13828 c -0.006,-0.0301 -0.012,-0.0481 -0.012,-0.0481 l -0.006,0.002 c 0.17636,-2.61529 -1.71947,-5.03218 -2.09223,-5.72157 0,0 -1.41085,2.85978 -1.99002,3.79367 -1.46496,2.36078 -1.29061,3.71952 0.48297,6.74564 l 0.004,0.02 c 0.12025,1.19241 0.61124,2.54916 1.43691,3.88386 0.14629,1.14431 0.60923,2.31468 1.3868,3.57523 z" /><path
         inkscape:connector-curvature="0"
         id="path11024"
         style="fill:none;stroke:#ffffff;stroke-width:2.00405264;stroke-linecap:round;stroke-linejoin:round;stroke-miterlimit:10;stroke-dasharray:none;stroke-opacity:1"
         d="m -362.49751,311.51853 c 0,0 0.25051,1.01005 0.493,1.26657" /><path
         inkscape:connector-curvature="0"
         id="path11028"
         style="fill:none;stroke:#ffffff;stroke-width:2.00405264;stroke-linecap:round;stroke-linejoin:round;stroke-miterlimit:10;stroke-dasharray:none;stroke-opacity:1"
         d="m -346.21458,283.03313 c 3.99408,10.16856 16.02441,12.42112 18.20682,13.60351 0,0 -6.00815,-14.92819 -18.20682,-13.60351 z" /><path
         inkscape:connector-curvature="0"
         id="path11032"
         style="fill:none;stroke:#ffffff;stroke-width:2.00405264;stroke-linecap:round;stroke-linejoin:round;stroke-miterlimit:10;stroke-dasharray:none;stroke-opacity:1"
         d="m -335.31373,290.29782 c -8.29678,-7.10637 -10.90005,-7.26469 -10.90005,-7.26469 l -3.73555,-2.48703" /><path
         inkscape:connector-curvature="0"
         id="path11036"
         style="fill:none;stroke:#ffffff;stroke-width:2.00405264;stroke-linecap:round;stroke-linejoin:round;stroke-miterlimit:10;stroke-dasharray:none;stroke-opacity:1"
         d="m -343.13034,277.84885 c 8.33085,8.14246 21.83215,-4.7456 21.83215,-4.7456 0,0 -14.1426,-4.81774 -21.83215,4.7456 z" /><path
         inkscape:connector-curvature="0"
         id="path11040"
         style="fill:none;stroke:#ffffff;stroke-width:2.00405264;stroke-linecap:round;stroke-linejoin:round;stroke-miterlimit:10;stroke-dasharray:none;stroke-opacity:1"
         d="m -342.21629,277.84885 c 0,0 7.417,-1.40485 12.46721,-2.80568" /><path
         inkscape:connector-curvature="0"
         id="path11044"
         style="fill:none;stroke:#ffffff;stroke-width:2.00405264;stroke-linecap:round;stroke-linejoin:round;stroke-miterlimit:10;stroke-dasharray:none;stroke-opacity:1"
         d="m -349.24411,275.80852 c 11.55136,-1.51707 11.34294,-19.69383 11.34294,-19.69383 0,0 -11.93814,8.15449 -11.34294,19.69383 z" /><path
         inkscape:connector-curvature="0"
         id="path11048"
         style="fill:none;stroke:#ffffff;stroke-width:2.00405264;stroke-linecap:round;stroke-linejoin:round;stroke-miterlimit:10;stroke-dasharray:none;stroke-opacity:1"
         d="m -342.21629,264.63071 c -2.06418,4.22856 -7.02822,11.17861 -7.02822,11.17861 l -0.70342,4.07825" /><path
         inkscape:connector-curvature="0"
         id="path11052"
         style="fill:none;stroke:#ffffff;stroke-width:2.00405264;stroke-linecap:round;stroke-linejoin:round;stroke-miterlimit:10;stroke-dasharray:none;stroke-opacity:1"
         d="m -355.04303,281.92549 c 2.5251,-1.55715 11.91209,-4.07624 11.91209,-4.07624" /><path
         inkscape:connector-curvature="0"
         id="path11056"
         style="fill:none;stroke:#ffffff;stroke-width:2.00405264;stroke-linecap:round;stroke-linejoin:round;stroke-miterlimit:10;stroke-dasharray:none;stroke-opacity:1"
         d="m -354.02137,276.58449 -0.77356,5.24661 -0.61925,28.37137" /><path
         inkscape:connector-curvature="0"
         id="path11060"
         style="fill:none;stroke:#ffffff;stroke-width:2.00405264;stroke-linecap:round;stroke-linejoin:round;stroke-miterlimit:10;stroke-dasharray:none;stroke-opacity:1"
         d="m -354.79453,281.8305 -8.73767,-2.17841 c 0,0 -4.44298,-0.66134 -6.82981,1.30264" /><path
         inkscape:connector-curvature="0"
         id="path11064"
         style="fill:none;stroke:#ffffff;stroke-width:2.00405264;stroke-linecap:round;stroke-linejoin:round;stroke-miterlimit:10;stroke-dasharray:none;stroke-opacity:1"
         d="m -369.81891,280.95573 c -0.47697,2.07419 0.14028,4.14839 0.14028,4.14839" /><path
         inkscape:connector-curvature="0"
         id="path11068"
         style="fill:none;stroke:#ffffff;stroke-width:2.00405264;stroke-linecap:round;stroke-linejoin:round;stroke-miterlimit:10;stroke-dasharray:none;stroke-opacity:1"
         d="m -369.88364,283.1153 c -0.0982,0.32666 1.65334,0.71945 1.65334,0.71945 l -1.80766,0.16634 -1.17036,0.40882 c 0,0 1.22648,-0.96795 1.32468,-1.29461 z" /><path
         inkscape:connector-curvature="0"
         id="path11072"
         style="fill:none;stroke:#ffffff;stroke-width:2.00405264;stroke-linecap:round;stroke-linejoin:round;stroke-miterlimit:10;stroke-dasharray:none;stroke-opacity:1"
         d="m -368.50766,291.16578 c 0,0 -0.19239,0.92587 -0.82968,1.69342" /><path
         inkscape:connector-curvature="0"
         id="path11076"
         style="fill:none;stroke:#ffffff;stroke-width:2.00405264;stroke-linecap:round;stroke-linejoin:round;stroke-miterlimit:10;stroke-dasharray:none;stroke-opacity:1"
         d="m -367.15152,295.19833 c 0,0 -0.19239,0.92587 -0.83168,1.69342" /><path
         inkscape:connector-curvature="0"
         id="path11080"
         style="fill:none;stroke:#ffffff;stroke-width:2.00405264;stroke-linecap:round;stroke-linejoin:round;stroke-miterlimit:10;stroke-dasharray:none;stroke-opacity:1"
         d="m -365.43505,299.22407 c 0,0 -0.19239,0.92587 -0.83168,1.69343" /><path
         inkscape:connector-curvature="0"
         id="path11084"
         style="fill:none;stroke:#ffffff;stroke-width:2.00405264;stroke-linecap:round;stroke-linejoin:round;stroke-miterlimit:10;stroke-dasharray:none;stroke-opacity:1"
         d="m -363.9791,303.41414 c 0,0 -0.19239,0.92588 -0.82968,1.69343" /><path
         inkscape:connector-curvature="0"
         id="path11088"
         style="fill:none;stroke:#ffffff;stroke-width:2.00405264;stroke-linecap:round;stroke-linejoin:round;stroke-miterlimit:10;stroke-dasharray:none;stroke-opacity:1"
         d="m -374.37513,285.78489 c 0,0 2.29865,-3.79367 3.57724,-4.57926" /><path
         inkscape:connector-curvature="0"
         id="path11092"
         style="fill:none;stroke:#ffffff;stroke-width:2.00405264;stroke-linecap:round;stroke-linejoin:round;stroke-miterlimit:10;stroke-dasharray:none;stroke-opacity:1"
         d="m -360.4153,274.00126 c -7.15647,5.69753 -16.82402,2.29264 -18.90022,2.23452 0,0 10.60946,-8.3068 18.90022,-2.23452 z" /><path
         inkscape:connector-curvature="0"
         id="path11096"
         style="fill:none;stroke:#ffffff;stroke-width:2.00405264;stroke-linecap:round;stroke-linejoin:round;stroke-miterlimit:10;stroke-dasharray:none;stroke-opacity:1"
         d="m -371.36324,274.70088 c 8.99219,-1.67539 10.94814,-0.69942 10.94814,-0.69942 l 2.62131,0.58118" /><path
         inkscape:connector-curvature="0"
         id="path11100"
         style="fill:none;stroke:#ffffff;stroke-width:2.00405264;stroke-linecap:round;stroke-linejoin:round;stroke-miterlimit:10;stroke-dasharray:none;stroke-opacity:1"
         d="m -359.61468,270.93146 c -9.45311,2.41288 -13.83998,-12.58746 -13.83998,-12.58746 0,0 12.27081,2.43292 13.83998,12.58746 z" /><path
         inkscape:connector-curvature="0"
         id="path11104"
         style="fill:none;stroke:#ffffff;stroke-width:2.00405264;stroke-linecap:round;stroke-linejoin:round;stroke-miterlimit:10;stroke-dasharray:none;stroke-opacity:1"
         d="m -360.27822,270.54888 c 0,0 -4.78968,-4.12634 -7.8639,-7.25868" /><path
         inkscape:connector-curvature="0"
         id="path11108"
         style="fill:none;stroke:#ffffff;stroke-width:2.00405264;stroke-linecap:round;stroke-linejoin:round;stroke-miterlimit:10;stroke-dasharray:none;stroke-opacity:1"
         d="m -356.52643,270.19076 c -8.96613,-3.84578 -4.66944,-18.44931 -4.66944,-18.44931 0,0 7.77171,9.28277 4.66944,18.44931 z" /><path
         inkscape:connector-curvature="0"
         id="path11112"
         style="fill:none;stroke:#ffffff;stroke-width:2.00405264;stroke-linecap:round;stroke-linejoin:round;stroke-miterlimit:10;stroke-dasharray:none;stroke-opacity:1"
         d="m -359.65195,259.58631 c 0.70542,3.87785 3.12632,10.60545 3.12632,10.60545 l -1.26656,4.39088" /><path
         inkscape:connector-curvature="0"
         id="path11116"
         style="fill:none;stroke:#ffffff;stroke-width:2.00405264;stroke-linecap:round;stroke-linejoin:round;stroke-miterlimit:10;stroke-dasharray:none;stroke-opacity:1"
         d="m -355.16247,281.61125 c 0.59921,-3.78365 -4.45301,-10.67959 -4.45301,-10.67959" /></g></g></svg>