<?xml version="1.0" encoding="UTF-8" standalone="no"?>
<svg
   xmlns:dc="http://purl.org/dc/elements/1.1/"
   xmlns:cc="http://creativecommons.org/ns#"
   xmlns:rdf="http://www.w3.org/1999/02/22-rdf-syntax-ns#"
   xmlns:svg="http://www.w3.org/2000/svg"
   xmlns="http://www.w3.org/2000/svg"
   xmlns:sodipodi="http://sodipodi.sourceforge.net/DTD/sodipodi-0.dtd"
   xmlns:inkscape="http://www.inkscape.org/namespaces/inkscape"
   xml:space="preserve"
   enable-background="new -330.2 262.4 54.3 65.7"
   viewBox="-330.2 262.4 43.000001 43.000002"
   height="43"
   width="43"
   y="0px"
   x="0px"
   id="Layer_1"
   version="1.1"
   sodipodi:docname="rice.svg"
   inkscape:version="0.92.1 r15371"><sodipodi:namedview
     pagecolor="#ffffff"
     bordercolor="#666666"
     borderopacity="1"
     objecttolerance="10"
     gridtolerance="10"
     guidetolerance="10"
     inkscape:pageopacity="0"
     inkscape:pageshadow="2"
     inkscape:window-width="1920"
     inkscape:window-height="1017"
     id="namedview32"
     showgrid="false"
     inkscape:zoom="5.4883721"
     inkscape:cx="21.5"
     inkscape:cy="21.5"
     inkscape:window-x="-8"
     inkscape:window-y="-8"
     inkscape:window-maximized="1"
     inkscape:current-layer="Layer_1" /><metadata
     id="metadata35"><rdf:RDF><cc:Work
         rdf:about=""><dc:format>image/svg+xml</dc:format><dc:type
           rdf:resource="http://purl.org/dc/dcmitype/StillImage" /><dc:title /></cc:Work></rdf:RDF></metadata><defs
     id="defs33" /><g
     transform="translate(0.0348348,-22.700007)"
     id="apple" /><g
     transform="translate(0.0348348,-22.700007)"
     id="barley" /><g
     transform="translate(0.0348348,-22.700007)"
     id="carrot" /><g
     transform="translate(0.0348348,-22.700007)"
     id="eggplant" /><g
     transform="translate(0.0348348,-22.700007)"
     id="pea" /><g
     transform="translate(0.0348348,-22.700007)"
     id="sunflower" /><g
     transform="translate(0.0348348,-22.700007)"
     id="patato" /><g
     transform="translate(0.0348348,-22.700007)"
     id="chickpea" /><g
     transform="translate(0.0348348,-22.700007)"
     id="faba_bean" /><g
     transform="translate(0.0348348,-22.700007)"
     id="lentil" /><g
     transform="translate(0.0348348,-22.700007)"
     id="bean" /><g
     transform="translate(0.0348348,-22.700007)"
     id="sorghum" /><g
     transform="translate(0.0348348,-22.700007)"
     id="pearl_millet" /><g
     transform="translate(0.0348348,-22.700007)"
     id="pigeon_pea" /><g
     transform="translate(0.0348348,-22.700007)"
     id="grasspea" /><g
     transform="translate(0.0348348,-22.700007)"
     id="cowpea" /><g
     transform="translate(0.0348348,-22.700007)"
     id="bambara" /><g
     transform="translate(0.0348348,-22.700007)"
     id="vetch" /><g
     transform="translate(0.0348348,-22.700007)"
     id="wheat" /><g
     transform="translate(0.0348348,-22.700007)"
     id="banana" /><g
     transform="translate(0.0348348,-22.700007)"
     id="rye" /><g
     transform="translate(0.0348348,-22.700007)"
     id="alfalfa" /><g
     transform="translate(0.0348348,-22.700007)"
     id="finger_millet" /><g
     transform="translate(0.0348348,-22.700007)"
     id="sweet_patato" /><g
     transform="translate(0.0348348,-22.700007)"
     id="oat" /><g
     id="g4934"
     transform="matrix(0.53203961,0,0,0.53203961,-166.85236,127.61925)"><path
       d="m -240.90263,286.9416 c 0.16397,0.27796 0.22597,0.56392 0.17197,0.73189 -0.016,0.058 -0.066,0.16798 -0.054,0.18998 -0.014,-0.024 -0.13398,-0.032 -0.19197,-0.044 -0.17198,-0.036 -0.39395,-0.22596 -0.55792,-0.50393 -0.16398,-0.27996 -0.22597,-0.56391 -0.17198,-0.73389 0.016,-0.056 0.096,-0.11998 0.068,-0.16598 0.026,0.046 0.11999,0.02 0.17798,0.022 0.17397,0.034 0.39394,0.22597 0.55792,0.50393 z"
       style="fill:none;stroke:#ffffff;stroke-width:1.99971449;stroke-linecap:round;stroke-linejoin:round;stroke-miterlimit:10;stroke-dasharray:none;stroke-opacity:1"
       id="path10480"
       inkscape:connector-curvature="0" /><path
       d="m -241.99228,284.67432 c 0.14998,0.38595 0.16598,0.76189 0.064,0.96386 -0.034,0.068 -0.11998,0.19798 -0.10798,0.22997 -0.014,-0.034 -0.16398,-0.07 -0.23397,-0.098 -0.21197,-0.08 -0.45193,-0.36995 -0.59991,-0.7579 -0.14998,-0.38594 -0.16798,-0.75989 -0.064,-0.96186 0.034,-0.07 0.14598,-0.13198 0.11998,-0.19797 0.024,0.064 0.15198,0.038 0.22197,0.064 0.21197,0.082 0.44994,0.37195 0.59991,0.75789 z"
       style="fill:none;stroke:#ffffff;stroke-width:1.99971449;stroke-linecap:round;stroke-linejoin:round;stroke-miterlimit:10;stroke-dasharray:none;stroke-opacity:1"
       id="path10484"
       inkscape:connector-curvature="0" /><path
       d="m -243.37588,282.57202 c 0.016,0.32196 -0.062,0.60392 -0.18797,0.7299 -0.042,0.04 -0.13798,0.11598 -0.13598,0.14198 -0.002,-0.028 -0.10199,-0.09 -0.14798,-0.12798 -0.13798,-0.11199 -0.24397,-0.38395 -0.26196,-0.7059 -0.016,-0.32396 0.064,-0.60392 0.18797,-0.7299 0.042,-0.042 0.13998,-0.06 0.13798,-0.11598 0.002,0.052 0.10198,0.064 0.14798,0.10198 0.13598,0.11199 0.24396,0.38395 0.25996,0.7059 z"
       style="fill:none;stroke:#ffffff;stroke-width:1.99971449;stroke-linecap:round;stroke-linejoin:round;stroke-miterlimit:10;stroke-dasharray:none;stroke-opacity:1"
       id="path10488"
       inkscape:connector-curvature="0" /><path
       d="m -244.6179,280.55571 c 0.14998,0.38594 0.16597,0.76189 0.064,0.96386 -0.034,0.068 -0.11998,0.19797 -0.10799,0.22797 -0.014,-0.032 -0.16397,-0.068 -0.23396,-0.096 -0.21197,-0.08 -0.45194,-0.36994 -0.59992,-0.75789 -0.14997,-0.38594 -0.16597,-0.75989 -0.064,-0.96386 0.034,-0.068 0.14598,-0.12998 0.11999,-0.19597 0.026,0.064 0.15197,0.038 0.22196,0.064 0.21197,0.082 0.45194,0.37195 0.59992,0.75789 z"
       style="fill:none;stroke:#ffffff;stroke-width:1.99971449;stroke-linecap:round;stroke-linejoin:round;stroke-miterlimit:10;stroke-dasharray:none;stroke-opacity:1"
       id="path10492"
       inkscape:connector-curvature="0" /><path
       d="m -246.19668,278.86255 c 0.016,0.32196 -0.062,0.60392 -0.18797,0.7299 -0.042,0.04 -0.13798,0.11598 -0.13598,0.14198 -0.002,-0.028 -0.10199,-0.09 -0.14798,-0.12798 -0.13798,-0.11199 -0.24396,-0.38395 -0.26196,-0.7059 -0.016,-0.32396 0.062,-0.60392 0.18797,-0.7299 0.042,-0.042 0.13998,-0.06 0.13598,-0.11598 0.004,0.054 0.10399,0.064 0.14998,0.10198 0.13598,0.11199 0.24397,0.38395 0.25996,0.7059 z"
       style="fill:none;stroke:#ffffff;stroke-width:1.99971449;stroke-linecap:round;stroke-linejoin:round;stroke-miterlimit:10;stroke-dasharray:none;stroke-opacity:1"
       id="path10496"
       inkscape:connector-curvature="0" /><path
       d="m -247.4387,276.84624 c 0.14998,0.38594 0.16598,0.76189 0.064,0.96386 -0.034,0.068 -0.11998,0.19797 -0.10798,0.22797 -0.014,-0.032 -0.16398,-0.068 -0.23397,-0.096 -0.21197,-0.08 -0.45193,-0.36994 -0.59991,-0.75789 -0.14998,-0.38594 -0.16798,-0.75989 -0.064,-0.96386 0.034,-0.068 0.14597,-0.12998 0.11998,-0.19597 0.024,0.064 0.15198,0.038 0.22197,0.064 0.21197,0.082 0.44993,0.37194 0.59991,0.75789 z"
       style="fill:none;stroke:#ffffff;stroke-width:1.99971449;stroke-linecap:round;stroke-linejoin:round;stroke-miterlimit:10;stroke-dasharray:none;stroke-opacity:1"
       id="path10500"
       inkscape:connector-curvature="0" /><path
       d="m -249.00687,275.99296 c 0.016,0.32196 -0.062,0.60392 -0.18798,0.7279 -0.042,0.042 -0.13598,0.11798 -0.13598,0.14398 0,-0.028 -0.10198,-0.092 -0.14798,-0.12798 -0.13798,-0.11199 -0.24396,-0.38395 -0.26196,-0.7059 -0.016,-0.32396 0.064,-0.60592 0.18797,-0.7299 0.042,-0.042 0.13998,-0.062 0.13798,-0.11598 0.002,0.052 0.10199,0.064 0.14798,0.10198 0.13598,0.11199 0.24397,0.38195 0.25997,0.7059 z"
       style="fill:none;stroke:#ffffff;stroke-width:1.99971449;stroke-linecap:round;stroke-linejoin:round;stroke-miterlimit:10;stroke-dasharray:none;stroke-opacity:1"
       id="path10504"
       inkscape:connector-curvature="0" /><path
       d="m -250.66004,274.42579 c 0.12398,0.31995 0.13798,0.62791 0.052,0.79588 -0.028,0.056 -0.1,0.16398 -0.09,0.18997 -0.01,-0.028 -0.13398,-0.058 -0.19198,-0.08 -0.17597,-0.068 -0.37394,-0.30596 -0.49593,-0.62591 -0.12398,-0.31996 -0.13798,-0.62991 -0.054,-0.79789 0.03,-0.056 0.12199,-0.10599 0.10199,-0.15998 0.018,0.05 0.12398,0.03 0.18197,0.052 0.17598,0.066 0.37195,0.30596 0.49593,0.62592 z"
       style="fill:none;stroke:#ffffff;stroke-width:1.99971449;stroke-linecap:round;stroke-linejoin:round;stroke-miterlimit:10;stroke-dasharray:none;stroke-opacity:1"
       id="path10508"
       inkscape:connector-curvature="0" /><path
       d="m -252.07084,273.98345 c 0.016,0.32195 -0.062,0.60391 -0.18797,0.72789 -0.042,0.042 -0.13598,0.11799 -0.13598,0.14398 0,-0.028 -0.10199,-0.092 -0.14798,-0.12798 -0.13798,-0.11198 -0.24397,-0.38394 -0.26196,-0.7059 -0.016,-0.32395 0.064,-0.60591 0.18797,-0.72989 0.042,-0.042 0.13998,-0.062 0.13798,-0.11599 0.002,0.052 0.10199,0.064 0.14798,0.1 0.13598,0.11398 0.24396,0.38394 0.25996,0.7079 z"
       style="fill:none;stroke:#ffffff;stroke-width:1.99971449;stroke-linecap:round;stroke-linejoin:round;stroke-miterlimit:10;stroke-dasharray:none;stroke-opacity:1"
       id="path10512"
       inkscape:connector-curvature="0" /><path
       d="m -256.58099,272.31169 c 0.016,0.32195 -0.062,0.60391 -0.18798,0.72789 -0.042,0.042 -0.13598,0.11799 -0.13598,0.14398 0,-0.028 -0.10198,-0.092 -0.14798,-0.12798 -0.13798,-0.11198 -0.24396,-0.38394 -0.25996,-0.7059 -0.018,-0.32395 0.062,-0.60591 0.18597,-0.72989 0.042,-0.042 0.13998,-0.062 0.13798,-0.11599 0.002,0.052 0.10199,0.064 0.14798,0.10199 0.13598,0.11198 0.24397,0.38194 0.25997,0.7059 z"
       style="fill:none;stroke:#ffffff;stroke-width:1.99971449;stroke-linecap:round;stroke-linejoin:round;stroke-miterlimit:10;stroke-dasharray:none;stroke-opacity:1"
       id="path10516"
       inkscape:connector-curvature="0" /><path
       d="m -259.58636,272.87521 c 0.016,0.32195 -0.062,0.60391 -0.18798,0.72789 -0.042,0.042 -0.13798,0.11799 -0.13598,0.14398 -0.002,-0.028 -0.10198,-0.092 -0.14798,-0.12798 -0.13798,-0.11198 -0.24396,-0.38394 -0.26196,-0.7059 -0.016,-0.32395 0.062,-0.60591 0.18797,-0.72989 0.042,-0.042 0.13998,-0.06 0.13598,-0.11599 0.004,0.052 0.10399,0.064 0.14998,0.10199 0.13598,0.11198 0.24397,0.38394 0.25997,0.7059 z"
       style="fill:none;stroke:#ffffff;stroke-width:1.99971449;stroke-linecap:round;stroke-linejoin:round;stroke-miterlimit:10;stroke-dasharray:none;stroke-opacity:1"
       id="path10520"
       inkscape:connector-curvature="0" /><path
       d="m -253.724,273.02259 c 0.12398,0.31995 0.13798,0.62791 0.052,0.79588 -0.028,0.056 -0.1,0.16398 -0.09,0.18997 -0.01,-0.028 -0.13398,-0.058 -0.19197,-0.08 -0.17597,-0.066 -0.37395,-0.30596 -0.49593,-0.62591 -0.12398,-0.31996 -0.13798,-0.62991 -0.054,-0.79789 0.03,-0.056 0.12198,-0.10599 0.10199,-0.15998 0.018,0.05 0.12398,0.03 0.18197,0.052 0.17597,0.066 0.37195,0.30596 0.49593,0.62592 z"
       style="fill:none;stroke:#ffffff;stroke-width:1.99971449;stroke-linecap:round;stroke-linejoin:round;stroke-miterlimit:10;stroke-dasharray:none;stroke-opacity:1"
       id="path10524"
       inkscape:connector-curvature="0" /><path
       d="m -255.1672,272.58625 c 0.12399,0.31995 0.13798,0.62991 0.052,0.79588 -0.028,0.056 -0.098,0.16398 -0.09,0.18998 -0.01,-0.028 -0.13398,-0.058 -0.19197,-0.08 -0.17598,-0.066 -0.37395,-0.30596 -0.49593,-0.62591 -0.12398,-0.31996 -0.13798,-0.62991 -0.054,-0.79589 0.03,-0.056 0.12198,-0.10798 0.10198,-0.16198 0.018,0.052 0.12398,0.03 0.18198,0.052 0.17597,0.068 0.37194,0.30595 0.49592,0.62591 z"
       style="fill:none;stroke:#ffffff;stroke-width:1.99971449;stroke-linecap:round;stroke-linejoin:round;stroke-miterlimit:10;stroke-dasharray:none;stroke-opacity:1"
       id="path10528"
       inkscape:connector-curvature="0" /><path
       d="m -258.19216,272.34108 c 0.12398,0.31996 0.13798,0.62991 0.052,0.79789 -0.028,0.056 -0.1,0.16198 -0.09,0.18797 -0.01,-0.028 -0.13398,-0.058 -0.19197,-0.08 -0.17598,-0.066 -0.37395,-0.30595 -0.49593,-0.62591 -0.12398,-0.31995 -0.13798,-0.62791 -0.054,-0.79588 0.03,-0.056 0.12198,-0.10799 0.10198,-0.16198 0.018,0.052 0.12399,0.03 0.18198,0.054 0.17597,0.066 0.37194,0.30396 0.49593,0.62391 z"
       style="fill:none;stroke:#ffffff;stroke-width:1.99971449;stroke-linecap:round;stroke-linejoin:round;stroke-miterlimit:10;stroke-dasharray:none;stroke-opacity:1"
       id="path10532"
       inkscape:connector-curvature="0" /><path
       d="m -248.08021,284.25058 c 0.016,0.32396 -0.062,0.60392 -0.18797,0.7299 -0.042,0.042 -0.13598,0.11598 -0.13598,0.14198 0,-0.028 -0.10199,-0.09 -0.14798,-0.12798 -0.13798,-0.11199 -0.24396,-0.38395 -0.25996,-0.7059 -0.018,-0.32396 0.062,-0.60392 0.18797,-0.7299 0.04,-0.042 0.13798,-0.06 0.13598,-0.11398 0.002,0.052 0.10199,0.062 0.14798,0.1 0.13798,0.11199 0.24397,0.38395 0.25996,0.7059 z"
       style="fill:none;stroke:#ffffff;stroke-width:1.99971449;stroke-linecap:round;stroke-linejoin:round;stroke-miterlimit:10;stroke-dasharray:none;stroke-opacity:1"
       id="path10536"
       inkscape:connector-curvature="0" /><path
       d="m -250.18731,280.94245 c 0.016,0.32196 -0.062,0.60392 -0.18797,0.7279 -0.042,0.042 -0.13598,0.11798 -0.13598,0.14398 -0.002,-0.028 -0.10199,-0.09 -0.14798,-0.12798 -0.13798,-0.11199 -0.24396,-0.38395 -0.26196,-0.7059 -0.016,-0.32395 0.064,-0.60591 0.18797,-0.7299 0.042,-0.042 0.13998,-0.06 0.13798,-0.11598 0.002,0.052 0.10199,0.064 0.14798,0.10199 0.13598,0.11198 0.24397,0.38394 0.25996,0.70589 z"
       style="fill:none;stroke:#ffffff;stroke-width:1.99971449;stroke-linecap:round;stroke-linejoin:round;stroke-miterlimit:10;stroke-dasharray:none;stroke-opacity:1"
       id="path10540"
       inkscape:connector-curvature="0" /><path
       d="m -249.02747,282.65201 c -0.054,0.33795 -0.19797,0.61391 -0.35595,0.7139 -0.054,0.036 -0.16798,0.092 -0.17398,0.11798 0.006,-0.028 -0.086,-0.11798 -0.12598,-0.16597 -0.11798,-0.14598 -0.16797,-0.45194 -0.11198,-0.78989 0.054,-0.33795 0.19797,-0.61391 0.35595,-0.7139 0.054,-0.036 0.15997,-0.034 0.16797,-0.09 -0.008,0.054 0.092,0.09 0.13198,0.13798 0.11799,0.14598 0.16798,0.45194 0.11199,0.78989 z"
       style="fill:none;stroke:#ffffff;stroke-width:1.99971449;stroke-linecap:round;stroke-linejoin:round;stroke-miterlimit:10;stroke-dasharray:none;stroke-opacity:1"
       id="path10544"
       inkscape:connector-curvature="0" /><path
       d="m -251.10917,279.78242 c -0.054,0.33795 -0.19798,0.61391 -0.35595,0.7139 -0.054,0.034 -0.16798,0.09 -0.17398,0.11798 0.006,-0.028 -0.086,-0.11798 -0.12598,-0.16597 -0.11798,-0.14598 -0.16798,-0.45194 -0.11199,-0.78989 0.054,-0.33795 0.19798,-0.61391 0.35595,-0.7139 0.054,-0.036 0.15998,-0.034 0.16798,-0.09 -0.008,0.054 0.092,0.088 0.13198,0.13598 0.11798,0.14798 0.16798,0.45394 0.11199,0.79189 z"
       style="fill:none;stroke:#ffffff;stroke-width:1.99971449;stroke-linecap:round;stroke-linejoin:round;stroke-miterlimit:10;stroke-dasharray:none;stroke-opacity:1"
       id="path10548"
       inkscape:connector-curvature="0" /><path
       d="m -252.46938,277.99268 c 0.016,0.32395 -0.062,0.60391 -0.18797,0.72989 -0.042,0.042 -0.13598,0.11599 -0.13598,0.14198 0,-0.028 -0.10199,-0.09 -0.14798,-0.12798 -0.13798,-0.11198 -0.24397,-0.38395 -0.26197,-0.7059 -0.016,-0.32395 0.064,-0.60391 0.18798,-0.7299 0.042,-0.042 0.13998,-0.06 0.13798,-0.11398 0.002,0.052 0.10198,0.062 0.14798,0.1 0.13598,0.11198 0.24396,0.38394 0.25996,0.7059 z"
       style="fill:none;stroke:#ffffff;stroke-width:1.99971449;stroke-linecap:round;stroke-linejoin:round;stroke-miterlimit:10;stroke-dasharray:none;stroke-opacity:1"
       id="path10552"
       inkscape:connector-curvature="0" /><path
       d="m -253.96117,276.69886 c 0.064,0.33595 0.022,0.64391 -0.092,0.79189 -0.038,0.05 -0.12799,0.14398 -0.12199,0.16997 -0.006,-0.028 -0.12198,-0.08 -0.17597,-0.11198 -0.15998,-0.098 -0.31196,-0.36795 -0.37395,-0.7059 -0.064,-0.33795 -0.022,-0.64391 0.092,-0.79389 0.038,-0.05 0.13798,-0.084 0.12798,-0.13998 0.01,0.054 0.11598,0.052 0.16998,0.084 0.15997,0.098 0.31195,0.36995 0.37394,0.7059 z"
       style="fill:none;stroke:#ffffff;stroke-width:1.99971449;stroke-linecap:round;stroke-linejoin:round;stroke-miterlimit:10;stroke-dasharray:none;stroke-opacity:1"
       id="path10556"
       inkscape:connector-curvature="0" /><path
       d="m -252.46938,285.5492 c 0.016,0.32395 -0.062,0.60391 -0.18797,0.72989 -0.042,0.04 -0.13598,0.11599 -0.13598,0.14198 0,-0.028 -0.10199,-0.09 -0.14798,-0.12798 -0.13798,-0.11198 -0.24397,-0.38394 -0.26197,-0.7059 -0.016,-0.32395 0.064,-0.60391 0.18798,-0.72989 0.042,-0.042 0.13998,-0.06 0.13798,-0.11599 0.002,0.054 0.10198,0.064 0.14798,0.10199 0.13598,0.11198 0.24396,0.38394 0.25996,0.7059 z"
       style="fill:none;stroke:#ffffff;stroke-width:1.99971449;stroke-linecap:round;stroke-linejoin:round;stroke-miterlimit:10;stroke-dasharray:none;stroke-opacity:1"
       id="path10560"
       inkscape:connector-curvature="0" /><path
       d="m -254.76965,282.27127 c -0.01,0.32395 -0.11199,0.59591 -0.24797,0.70989 -0.044,0.04 -0.14598,0.10599 -0.14598,0.13198 0,-0.028 -0.096,-0.1 -0.13798,-0.13998 -0.12798,-0.12198 -0.21197,-0.40194 -0.20197,-0.72589 0.012,-0.32196 0.11199,-0.59792 0.24797,-0.7099 0.046,-0.038 0.14598,-0.05 0.14598,-0.10399 0,0.052 0.096,0.072 0.13998,0.11199 0.12798,0.12398 0.20997,0.40194 0.19997,0.7259 z"
       style="fill:none;stroke:#ffffff;stroke-width:1.99971449;stroke-linecap:round;stroke-linejoin:round;stroke-miterlimit:10;stroke-dasharray:none;stroke-opacity:1"
       id="path10564"
       inkscape:connector-curvature="0" /><path
       d="m -253.54523,283.82764 c 0.01,0.34195 -0.08,0.63991 -0.21597,0.76789 -0.046,0.044 -0.14997,0.12199 -0.14797,0.14798 -0.002,-0.028 -0.10799,-0.098 -0.15598,-0.13798 -0.14398,-0.12198 -0.24797,-0.41394 -0.25797,-0.75589 -0.01,-0.34395 0.08,-0.63991 0.21797,-0.76989 0.044,-0.042 0.14798,-0.06 0.14798,-0.11798 0,0.054 0.10599,0.07 0.15398,0.11198 0.14398,0.11998 0.24996,0.41194 0.25796,0.75389 z"
       style="fill:none;stroke:#ffffff;stroke-width:1.99971449;stroke-linecap:round;stroke-linejoin:round;stroke-miterlimit:10;stroke-dasharray:none;stroke-opacity:1"
       id="path10568"
       inkscape:connector-curvature="0" /><path
       d="m -255.69252,281.08104 c -0.054,0.33795 -0.19797,0.61191 -0.35595,0.71389 -0.054,0.034 -0.16798,0.09 -0.17397,0.11799 0.006,-0.028 -0.086,-0.11799 -0.12599,-0.16598 -0.11798,-0.14598 -0.16797,-0.45194 -0.11198,-0.78989 0.054,-0.33795 0.19797,-0.61391 0.35595,-0.7159 0.054,-0.034 0.15998,-0.032 0.16797,-0.088 -0.008,0.054 0.092,0.088 0.13199,0.13598 0.11798,0.14798 0.16797,0.45393 0.11198,0.79189 z"
       style="fill:none;stroke:#ffffff;stroke-width:1.99971449;stroke-linecap:round;stroke-linejoin:round;stroke-miterlimit:10;stroke-dasharray:none;stroke-opacity:1"
       id="path10572"
       inkscape:connector-curvature="0" /><path
       d="m -256.95894,279.88001 c 0.016,0.32195 -0.062,0.60391 -0.18797,0.72789 -0.042,0.042 -0.13798,0.11799 -0.13598,0.14398 -0.002,-0.028 -0.10199,-0.092 -0.14798,-0.12798 -0.13798,-0.11198 -0.24397,-0.38394 -0.26196,-0.7059 -0.016,-0.32395 0.062,-0.60591 0.18797,-0.72989 0.042,-0.042 0.13998,-0.062 0.13798,-0.11599 0.002,0.052 0.10198,0.064 0.14798,0.1 0.13598,0.11398 0.24396,0.38394 0.25996,0.7079 z"
       style="fill:none;stroke:#ffffff;stroke-width:1.99971449;stroke-linecap:round;stroke-linejoin:round;stroke-miterlimit:10;stroke-dasharray:none;stroke-opacity:1"
       id="path10576"
       inkscape:connector-curvature="0" /><path
       d="m -258.54951,278.65958 c 0.064,0.33595 0.022,0.64391 -0.092,0.79389 -0.038,0.05 -0.12798,0.14198 -0.12198,0.16797 -0.006,-0.028 -0.12198,-0.08 -0.17598,-0.11198 -0.15997,-0.098 -0.31195,-0.36795 -0.37394,-0.7059 -0.064,-0.33595 -0.022,-0.64391 0.092,-0.79389 0.038,-0.05 0.13798,-0.084 0.12799,-0.13998 0.01,0.054 0.11598,0.052 0.16997,0.084 0.15998,0.098 0.31196,0.36995 0.37395,0.7059 z"
       style="fill:none;stroke:#ffffff;stroke-width:1.99971449;stroke-linecap:round;stroke-linejoin:round;stroke-miterlimit:10;stroke-dasharray:none;stroke-opacity:1"
       id="path10580"
       inkscape:connector-curvature="0" /><path
       d="m -260.62142,277.88609 c 0.26597,0.21397 0.43394,0.47593 0.44394,0.66391 0.004,0.062 -0.004,0.18997 0.016,0.20797 -0.02,-0.02 -0.14398,0.02 -0.20597,0.028 -0.18398,0.03 -0.47593,-0.078 -0.7419,-0.29396 -0.26796,-0.21396 -0.43393,-0.47593 -0.44593,-0.6639 -0.002,-0.062 0.052,-0.15198 0.006,-0.18997 0.044,0.036 0.12398,-0.036 0.18397,-0.044 0.18597,-0.032 0.47593,0.078 0.74389,0.29196 z"
       style="fill:none;stroke:#ffffff;stroke-width:1.99971449;stroke-linecap:round;stroke-linejoin:round;stroke-miterlimit:10;stroke-dasharray:none;stroke-opacity:1"
       id="path10584"
       inkscape:connector-curvature="0" /><path
       d="m -255.43656,275.79179 c 0.016,0.32395 -0.062,0.60391 -0.18797,0.7299 -0.042,0.04 -0.13598,0.11598 -0.13598,0.14198 0,-0.028 -0.10199,-0.09 -0.14798,-0.12799 -0.13798,-0.11198 -0.24396,-0.38394 -0.26196,-0.7059 -0.016,-0.32395 0.064,-0.60391 0.18797,-0.72989 0.042,-0.042 0.13998,-0.06 0.13798,-0.11598 0.002,0.054 0.10199,0.064 0.14798,0.10198 0.13598,0.11198 0.24397,0.38395 0.25996,0.7059 z"
       style="fill:none;stroke:#ffffff;stroke-width:1.99971449;stroke-linecap:round;stroke-linejoin:round;stroke-miterlimit:10;stroke-dasharray:none;stroke-opacity:1"
       id="path10588"
       inkscape:connector-curvature="0" /><path
       d="m -257.2459,274.90812 c 0.064,0.33595 0.022,0.6439 -0.092,0.79188 -0.038,0.05 -0.12798,0.14398 -0.12398,0.16998 -0.004,-0.028 -0.11998,-0.08 -0.17397,-0.11198 -0.15998,-0.098 -0.31196,-0.36995 -0.37595,-0.7059 -0.064,-0.33796 -0.022,-0.64391 0.094,-0.79389 0.038,-0.05 0.13798,-0.084 0.12798,-0.14198 0.01,0.056 0.11598,0.054 0.16997,0.086 0.15998,0.098 0.30996,0.36994 0.37395,0.7059 z"
       style="fill:none;stroke:#ffffff;stroke-width:1.99971449;stroke-linecap:round;stroke-linejoin:round;stroke-miterlimit:10;stroke-dasharray:none;stroke-opacity:1"
       id="path10592"
       inkscape:connector-curvature="0" /><path
       d="m -259.22522,275.6882 c -0.32195,0.02 -0.60391,-0.064 -0.72789,-0.18997 -0.042,-0.042 -0.11599,-0.13798 -0.14198,-0.13598 0.026,0 0.09,-0.10398 0.12798,-0.14798 0.11198,-0.13798 0.38395,-0.24396 0.7079,-0.25996 0.32195,-0.02 0.60391,0.066 0.72789,0.19197 0.042,0.042 0.06,0.13998 0.11399,0.13598 -0.052,0 -0.062,0.10399 -0.1,0.14798 -0.11398,0.13798 -0.38594,0.24397 -0.7079,0.25796 z"
       style="fill:none;stroke:#ffffff;stroke-width:1.99971449;stroke-linecap:round;stroke-linejoin:round;stroke-miterlimit:10;stroke-dasharray:none;stroke-opacity:1"
       id="path10596"
       inkscape:connector-curvature="0" /><path
       d="m -261.4289,276.27512 c -0.32196,0.11598 -0.63191,0.11998 -0.79789,0.03 -0.054,-0.03 -0.15997,-0.10399 -0.18597,-0.094 0.026,-0.02 0.062,-0.13198 0.084,-0.18997 0.072,-0.17398 0.31595,-0.36595 0.63991,-0.47993 0.32395,-0.11399 0.63391,-0.11999 0.79788,-0.03 0.056,0.03 0.10599,0.12398 0.15998,0.10399 -0.052,0.02 -0.034,0.12398 -0.058,0.18197 -0.072,0.17397 -0.31596,0.36395 -0.63991,0.47793 z"
       style="fill:none;stroke:#ffffff;stroke-width:1.99971449;stroke-linecap:round;stroke-linejoin:round;stroke-miterlimit:10;stroke-dasharray:none;stroke-opacity:1"
       id="path10600"
       inkscape:connector-curvature="0" /><path
       d="m -261.4289,273.93845 c -0.32196,0.11399 -0.63191,0.11999 -0.79789,0.03 -0.054,-0.03 -0.15997,-0.10398 -0.18597,-0.094 0.026,-0.02 0.062,-0.13398 0.084,-0.18997 0.072,-0.17397 0.31595,-0.36595 0.63991,-0.47993 0.32395,-0.11398 0.63391,-0.11998 0.79788,-0.03 0.056,0.03 0.10599,0.12399 0.15998,0.10399 -0.052,0.02 -0.034,0.12398 -0.058,0.18197 -0.072,0.17398 -0.31596,0.36395 -0.63991,0.47793 z"
       style="fill:none;stroke:#ffffff;stroke-width:1.99971449;stroke-linecap:round;stroke-linejoin:round;stroke-miterlimit:10;stroke-dasharray:none;stroke-opacity:1"
       id="path10604"
       inkscape:connector-curvature="0" /><path
       d="m -265.01539,279.77662 c -0.27596,0.20397 -0.57192,0.29796 -0.75389,0.26196 -0.062,-0.02 -0.18398,-0.054 -0.20597,-0.038 0.022,-0.02 0.02,-0.14398 0.026,-0.20597 0.018,-0.18597 0.19398,-0.43994 0.47194,-0.64391 0.27396,-0.20397 0.56992,-0.29996 0.75389,-0.26196 0.06,0.02 0.13598,0.088 0.18197,0.054 -0.044,0.032 0.004,0.12598 -0.002,0.18997 -0.018,0.18598 -0.19597,0.43994 -0.47193,0.64391 z"
       style="fill:none;stroke:#ffffff;stroke-width:1.99971449;stroke-linecap:round;stroke-linejoin:round;stroke-miterlimit:10;stroke-dasharray:none;stroke-opacity:1"
       id="path10608"
       inkscape:connector-curvature="0" /><path
       d="m -269.92489,284.27498 c -0.006,0.34195 -0.10798,0.63591 -0.24996,0.75789 -0.048,0.042 -0.15398,0.11398 -0.15398,0.14198 0,-0.028 -0.10399,-0.10398 -0.14798,-0.14598 -0.13998,-0.12798 -0.23197,-0.42194 -0.22797,-0.76589 0.006,-0.34395 0.10999,-0.63591 0.25197,-0.75789 0.046,-0.042 0.15198,-0.056 0.15398,-0.11398 -0.002,0.056 0.10198,0.076 0.14797,0.11798 0.13798,0.12798 0.22997,0.42394 0.22597,0.76589 z"
       style="fill:none;stroke:#ffffff;stroke-width:1.99971449;stroke-linecap:round;stroke-linejoin:round;stroke-miterlimit:10;stroke-dasharray:none;stroke-opacity:1"
       id="path10612"
       inkscape:connector-curvature="0" /><path
       d="m -269.92489,282.12969 c -0.006,0.34195 -0.10798,0.6339 -0.24996,0.75789 -0.048,0.04 -0.15398,0.11398 -0.15398,0.14198 0,-0.03 -0.10399,-0.10399 -0.14798,-0.14598 -0.13998,-0.12798 -0.23197,-0.42394 -0.22797,-0.76789 0.006,-0.34195 0.10999,-0.63391 0.25197,-0.75789 0.046,-0.04 0.15198,-0.056 0.15398,-0.11199 -0.002,0.054 0.10198,0.074 0.14797,0.11798 0.13798,0.12799 0.22997,0.42394 0.22597,0.7659 z"
       style="fill:none;stroke:#ffffff;stroke-width:1.99971449;stroke-linecap:round;stroke-linejoin:round;stroke-miterlimit:10;stroke-dasharray:none;stroke-opacity:1"
       id="path10616"
       inkscape:connector-curvature="0" /><path
       d="m -269.92489,280.14457 c -0.006,0.34195 -0.10798,0.63391 -0.24996,0.75789 -0.048,0.04 -0.15398,0.11398 -0.15398,0.14198 0,-0.028 -0.10399,-0.10398 -0.14798,-0.14598 -0.13998,-0.12798 -0.23197,-0.42394 -0.22797,-0.76589 0.006,-0.34395 0.10999,-0.63591 0.25197,-0.75989 0.046,-0.04 0.15198,-0.054 0.15398,-0.11199 -0.002,0.054 0.10198,0.076 0.14797,0.11799 0.13798,0.12798 0.22997,0.42394 0.22597,0.76589 z"
       style="fill:none;stroke:#ffffff;stroke-width:1.99971449;stroke-linecap:round;stroke-linejoin:round;stroke-miterlimit:10;stroke-dasharray:none;stroke-opacity:1"
       id="path10620"
       inkscape:connector-curvature="0" /><path
       d="m -269.78911,278.34603 c -0.032,0.34195 -0.15798,0.62391 -0.30995,0.73589 -0.05,0.038 -0.16198,0.10199 -0.16398,0.12998 0.002,-0.03 -0.094,-0.11198 -0.13598,-0.15798 -0.12798,-0.13798 -0.19797,-0.43993 -0.16598,-0.78188 0.034,-0.34196 0.15998,-0.62391 0.30996,-0.7359 0.05,-0.038 0.15598,-0.044 0.16198,-0.1 -0.004,0.054 0.098,0.082 0.13998,0.12798 0.12598,0.13998 0.19797,0.44193 0.16397,0.78189 z"
       style="fill:none;stroke:#ffffff;stroke-width:1.99971449;stroke-linecap:round;stroke-linejoin:round;stroke-miterlimit:10;stroke-dasharray:none;stroke-opacity:1"
       id="path10624"
       inkscape:connector-curvature="0" /><path
       d="m -269.41216,276.48789 c -0.11798,0.32195 -0.31196,0.56392 -0.48593,0.63391 -0.058,0.024 -0.18198,0.058 -0.19197,0.082 0.01,-0.026 -0.062,-0.12998 -0.092,-0.18597 -0.088,-0.16598 -0.078,-0.47594 0.04,-0.79789 0.11799,-0.32195 0.31196,-0.56392 0.48393,-0.63391 0.06,-0.022 0.16198,0 0.18398,-0.056 -0.02,0.052 0.072,0.10598 0.10198,0.16197 0.088,0.16598 0.078,0.47394 -0.04,0.79589 z"
       style="fill:none;stroke:#ffffff;stroke-width:1.99971449;stroke-linecap:round;stroke-linejoin:round;stroke-miterlimit:10;stroke-dasharray:none;stroke-opacity:1"
       id="path10628"
       inkscape:connector-curvature="0" /><path
       d="m -268.57628,274.76654 c -0.17598,0.29395 -0.41194,0.49593 -0.59592,0.53192 -0.06,0.02 -0.18997,0.022 -0.20197,0.046 0.014,-0.024 -0.038,-0.14198 -0.058,-0.19997 -0.056,-0.17997 0.012,-0.48393 0.18797,-0.77789 0.17398,-0.29395 0.40995,-0.49593 0.59392,-0.53192 0.062,-0.02 0.15998,0.028 0.18997,-0.022 -0.03,0.048 0.052,0.11799 0.07,0.17598 0.056,0.17997 -0.01,0.48393 -0.18597,0.77789 z"
       style="fill:none;stroke:#ffffff;stroke-width:1.99971449;stroke-linecap:round;stroke-linejoin:round;stroke-miterlimit:10;stroke-dasharray:none;stroke-opacity:1"
       id="path10632"
       inkscape:connector-curvature="0" /><path
       d="m -267.56583,273.6055 c -0.25396,0.22997 -0.53792,0.35595 -0.72389,0.33595 -0.064,0 -0.18797,-0.034 -0.20797,-0.02 0.02,-0.02 0.004,-0.14798 0.004,-0.20997 -0.002,-0.18798 0.14998,-0.45794 0.40394,-0.6879 0.25396,-0.22997 0.53792,-0.35595 0.7259,-0.33796 0.062,0 0.14398,0.076 0.18597,0.036 -0.042,0.038 0.016,0.12798 0.016,0.18997 0.002,0.18797 -0.14998,0.45794 -0.40395,0.6879 z"
       style="fill:none;stroke:#ffffff;stroke-width:1.99971449;stroke-linecap:round;stroke-linejoin:round;stroke-miterlimit:10;stroke-dasharray:none;stroke-opacity:1"
       id="path10636"
       inkscape:connector-curvature="0" /><path
       d="m -266.16063,272.87721 c -0.33195,0.088 -0.6399,0.07 -0.79788,-0.032 -0.052,-0.034 -0.15198,-0.11598 -0.17798,-0.10998 0.028,0 0.07,-0.12799 0.1,-0.18398 0.084,-0.16597 0.34195,-0.33795 0.6739,-0.42594 0.32996,-0.088 0.63991,-0.07 0.79789,0.032 0.052,0.034 0.096,0.13198 0.15198,0.11598 -0.054,0.02 -0.044,0.11999 -0.074,0.17798 -0.084,0.16597 -0.34195,0.33795 -0.67391,0.42594 z"
       style="fill:none;stroke:#ffffff;stroke-width:1.99971449;stroke-linecap:round;stroke-linejoin:round;stroke-miterlimit:10;stroke-dasharray:none;stroke-opacity:1"
       id="path10640"
       inkscape:connector-curvature="0" /><path
       d="m -266.78854,271.77076 c -0.10798,0.32596 -0.29195,0.57392 -0.46393,0.64991 -0.058,0.024 -0.17997,0.062 -0.18997,0.09 0.01,-0.028 -0.066,-0.12998 -0.098,-0.18398 -0.094,-0.16397 -0.096,-0.47393 0.012,-0.79988 0.10798,-0.32595 0.29196,-0.57392 0.46393,-0.64991 0.058,-0.024 0.16198,0 0.17998,-0.062 -0.016,0.054 0.078,0.10399 0.10798,0.15798 0.094,0.16198 0.096,0.47193 -0.012,0.79788 z"
       style="fill:none;stroke:#ffffff;stroke-width:1.99971449;stroke-linecap:round;stroke-linejoin:round;stroke-miterlimit:10;stroke-dasharray:none;stroke-opacity:1"
       id="path10644"
       inkscape:connector-curvature="0" /><path
       d="m -266.05724,270.07681 c -0.10799,0.32595 -0.29196,0.57391 -0.46393,0.6499 -0.058,0.024 -0.18198,0.062 -0.18998,0.09 0.01,-0.028 -0.068,-0.12998 -0.098,-0.18397 -0.094,-0.16398 -0.096,-0.47194 0.012,-0.79989 0.10798,-0.32595 0.29195,-0.57392 0.46393,-0.64791 0.058,-0.026 0.16198,0 0.17997,-0.064 -0.018,0.054 0.078,0.10399 0.10799,0.15798 0.094,0.16398 0.094,0.47193 -0.012,0.79789 z"
       style="fill:none;stroke:#ffffff;stroke-width:1.99971449;stroke-linecap:round;stroke-linejoin:round;stroke-miterlimit:10;stroke-dasharray:none;stroke-opacity:1"
       id="path10648"
       inkscape:connector-curvature="0" /><path
       d="m -265.08558,268.45204 c -0.18397,0.28996 -0.42394,0.48593 -0.60991,0.51592 -0.06,0 -0.18998,0.02 -0.20397,0.04 0.016,-0.024 -0.034,-0.14198 -0.052,-0.20197 -0.05,-0.18198 0.026,-0.48193 0.20797,-0.77189 0.18398,-0.28996 0.42594,-0.48393 0.60992,-0.51593 0.062,0 0.15997,0.034 0.18997,-0.02 -0.03,0.048 0.05,0.11799 0.066,0.17998 0.05,0.17997 -0.024,0.47993 -0.20797,0.76989 z"
       style="fill:none;stroke:#ffffff;stroke-width:1.99971449;stroke-linecap:round;stroke-linejoin:round;stroke-miterlimit:10;stroke-dasharray:none;stroke-opacity:1"
       id="path10652"
       inkscape:connector-curvature="0" /><path
       d="m -267.65661,275.51843 c -0.18398,0.28996 -0.42394,0.48593 -0.60992,0.51593 -0.062,0.02 -0.18997,0.02 -0.20397,0.04 0.014,-0.024 -0.034,-0.14198 -0.052,-0.20197 -0.05,-0.18198 0.024,-0.48193 0.20797,-0.77189 0.18398,-0.28996 0.42594,-0.48393 0.60991,-0.51593 0.062,-0.02 0.15998,0.034 0.18998,-0.02 -0.03,0.048 0.05,0.11798 0.066,0.17997 0.05,0.17997 -0.024,0.47993 -0.20797,0.76989 z"
       style="fill:none;stroke:#ffffff;stroke-width:1.99971449;stroke-linecap:round;stroke-linejoin:round;stroke-miterlimit:10;stroke-dasharray:none;stroke-opacity:1"
       id="path10656"
       inkscape:connector-curvature="0" /><path
       d="m -267.80699,277.17339 c -0.13598,0.31396 -0.34395,0.54393 -0.52193,0.60392 -0.06,0.02 -0.18597,0.048 -0.19597,0.072 0.01,-0.026 -0.056,-0.13398 -0.082,-0.18998 -0.078,-0.17197 -0.05,-0.48193 0.086,-0.79588 0.13598,-0.31396 0.34195,-0.54393 0.52193,-0.60392 0.06,-0.02 0.16197,0 0.18397,-0.046 -0.022,0.05 0.068,0.10998 0.092,0.16598 0.08,0.16997 0.052,0.47993 -0.084,0.79388 z"
       style="fill:none;stroke:#ffffff;stroke-width:1.99971449;stroke-linecap:round;stroke-linejoin:round;stroke-miterlimit:10;stroke-dasharray:none;stroke-opacity:1"
       id="path10660"
       inkscape:connector-curvature="0" /><path
       d="m -268.14094,279.2141 c -0.13598,0.31396 -0.34395,0.54392 -0.52193,0.60392 -0.06,0.02 -0.18597,0.048 -0.19597,0.072 0.01,-0.026 -0.056,-0.13399 -0.082,-0.19198 -0.078,-0.16997 -0.052,-0.47993 0.086,-0.79388 0.13598,-0.31396 0.34195,-0.54593 0.51992,-0.60592 0.06,-0.02 0.16198,0 0.18598,-0.044 -0.022,0.05 0.066,0.10998 0.092,0.16597 0.08,0.16998 0.052,0.47994 -0.084,0.79389 z"
       style="fill:none;stroke:#ffffff;stroke-width:1.99971449;stroke-linecap:round;stroke-linejoin:round;stroke-miterlimit:10;stroke-dasharray:none;stroke-opacity:1"
       id="path10664"
       inkscape:connector-curvature="0" /><path
       d="m -268.29312,280.88286 c -0.13598,0.31396 -0.34195,0.54393 -0.52193,0.60392 -0.06,0.02 -0.18597,0.048 -0.19597,0.072 0.012,-0.026 -0.056,-0.13398 -0.08,-0.18998 -0.08,-0.17197 -0.052,-0.48193 0.084,-0.79588 0.13598,-0.31396 0.34395,-0.54392 0.52193,-0.60392 0.06,-0.02 0.16197,0 0.18397,-0.046 -0.022,0.05 0.068,0.10998 0.094,0.16598 0.078,0.16997 0.05,0.47993 -0.086,0.79388 z"
       style="fill:none;stroke:#ffffff;stroke-width:1.99971449;stroke-linecap:round;stroke-linejoin:round;stroke-miterlimit:10;stroke-dasharray:none;stroke-opacity:1"
       id="path10668"
       inkscape:connector-curvature="0" /><path
       d="m -268.27372,282.67941 c -0.078,0.33395 -0.23997,0.59791 -0.40595,0.6879 -0.054,0.03 -0.17397,0.078 -0.17997,0.10398 0.006,-0.026 -0.078,-0.12198 -0.11398,-0.17197 -0.10799,-0.15598 -0.13598,-0.46394 -0.058,-0.79789 0.078,-0.33395 0.23997,-0.59791 0.40595,-0.6879 0.054,-0.03 0.15997,-0.022 0.17397,-0.078 -0.014,0.054 0.086,0.096 0.11998,0.14798 0.10799,0.15398 0.13598,0.46193 0.058,0.79589 z"
       style="fill:none;stroke:#ffffff;stroke-width:1.99971449;stroke-linecap:round;stroke-linejoin:round;stroke-miterlimit:10;stroke-dasharray:none;stroke-opacity:1"
       id="path10672"
       inkscape:connector-curvature="0" /><path
       d="m -268.4397,284.18019 c -0.078,0.33395 -0.24197,0.59792 -0.40594,0.6879 -0.054,0.03 -0.17398,0.078 -0.17998,0.10399 0.006,-0.026 -0.078,-0.12198 -0.11398,-0.17198 -0.10799,-0.15597 -0.13598,-0.46393 -0.058,-0.79788 0.078,-0.33395 0.23996,-0.59792 0.40594,-0.6879 0.054,-0.03 0.15998,-0.022 0.17398,-0.078 -0.014,0.054 0.084,0.096 0.11998,0.14798 0.10798,0.15397 0.13598,0.46193 0.058,0.79588 z"
       style="fill:none;stroke:#ffffff;stroke-width:1.99971449;stroke-linecap:round;stroke-linejoin:round;stroke-miterlimit:10;stroke-dasharray:none;stroke-opacity:1"
       id="path10676"
       inkscape:connector-curvature="0" /><path
       d="m -263.00108,275.26067 c -0.08,0.33395 -0.24196,0.59791 -0.40594,0.6879 -0.054,0.03 -0.17397,0.078 -0.17997,0.10398 0.006,-0.026 -0.08,-0.12198 -0.11599,-0.17197 -0.10598,-0.15598 -0.13398,-0.46394 -0.056,-0.79789 0.078,-0.33395 0.23997,-0.59791 0.40394,-0.6879 0.056,-0.03 0.16198,-0.022 0.17398,-0.078 -0.012,0.054 0.086,0.096 0.12198,0.14798 0.10799,0.15398 0.13598,0.46193 0.058,0.79589 z"
       style="fill:none;stroke:#ffffff;stroke-width:1.99971449;stroke-linecap:round;stroke-linejoin:round;stroke-miterlimit:10;stroke-dasharray:none;stroke-opacity:1"
       id="path10680"
       inkscape:connector-curvature="0" /><path
       d="m -263.67958,276.63347 c -0.078,0.33395 -0.23997,0.59791 -0.40594,0.6879 -0.054,0.03 -0.17398,0.078 -0.17998,0.10399 0.006,-0.026 -0.078,-0.12199 -0.11398,-0.17198 -0.10798,-0.15598 -0.13598,-0.46393 -0.058,-0.79788 0.078,-0.33396 0.24196,-0.59792 0.40594,-0.68791 0.056,-0.03 0.15998,-0.022 0.17398,-0.078 -0.014,0.054 0.086,0.096 0.11998,0.14798 0.10798,0.15398 0.13798,0.46194 0.058,0.79589 z"
       style="fill:none;stroke:#ffffff;stroke-width:1.99971449;stroke-linecap:round;stroke-linejoin:round;stroke-miterlimit:10;stroke-dasharray:none;stroke-opacity:1"
       id="path10684"
       inkscape:connector-curvature="0" /><path
       d="m -264.61105,278.07846 c -0.08,0.33396 -0.24196,0.59792 -0.40594,0.68791 -0.054,0.03 -0.17397,0.078 -0.17997,0.10598 0.006,-0.028 -0.08,-0.12398 -0.11399,-0.17397 -0.10798,-0.15398 -0.13598,-0.46394 -0.058,-0.79789 0.078,-0.33395 0.23997,-0.59792 0.40394,-0.6879 0.056,-0.03 0.16198,-0.02 0.17398,-0.078 -0.012,0.054 0.086,0.096 0.12198,0.14798 0.10799,0.15398 0.13598,0.46193 0.058,0.79588 z"
       style="fill:none;stroke:#ffffff;stroke-width:1.99971449;stroke-linecap:round;stroke-linejoin:round;stroke-miterlimit:10;stroke-dasharray:none;stroke-opacity:1"
       id="path10688"
       inkscape:connector-curvature="0" /><path
       d="m -261.73266,283.56208 c 0.24797,0.23797 0.38995,0.51193 0.38395,0.6999 -0.002,0.062 -0.02,0.18997 -0.002,0.20997 -0.02,-0.02 -0.14398,0 -0.20797,0 -0.18598,0.02 -0.46594,-0.11798 -0.7139,-0.35595 -0.24797,-0.23796 -0.38995,-0.51392 -0.38395,-0.6999 0.002,-0.064 0.062,-0.14998 0.022,-0.18997 0.04,0.038 0.12598,-0.024 0.18797,-0.03 0.18598,-0.02 0.46594,0.11999 0.7139,0.35795 z"
       style="fill:none;stroke:#ffffff;stroke-width:1.99971449;stroke-linecap:round;stroke-linejoin:round;stroke-miterlimit:10;stroke-dasharray:none;stroke-opacity:1"
       id="path10692"
       inkscape:connector-curvature="0" /><path
       d="m -264.11012,283.23413 c 0.29396,0.17597 0.49793,0.40994 0.53393,0.59391 0.012,0.062 0.022,0.18998 0.046,0.20397 -0.026,-0.02 -0.14198,0.038 -0.20197,0.056 -0.17798,0.058 -0.48193,-0.02 -0.77589,-0.18598 -0.29596,-0.17397 -0.49793,-0.40994 -0.53393,-0.59391 -0.012,-0.062 0.028,-0.15798 -0.022,-0.18798 0.048,0.028 0.11798,-0.052 0.17797,-0.072 0.17998,-0.056 0.48193,0.02 0.77589,0.18598 z"
       style="fill:none;stroke:#ffffff;stroke-width:1.99971449;stroke-linecap:round;stroke-linejoin:round;stroke-miterlimit:10;stroke-dasharray:none;stroke-opacity:1"
       id="path10696"
       inkscape:connector-curvature="0" /><path
       d="m -266.10203,284.8363 c -0.31196,0.14198 -0.62192,0.17197 -0.79189,0.098 -0.058,-0.026 -0.16798,-0.092 -0.19397,-0.08 0.026,-0.02 0.05,-0.13798 0.068,-0.19598 0.056,-0.17997 0.28396,-0.38994 0.59791,-0.53192 0.31196,-0.13998 0.61991,-0.17198 0.79189,-0.096 0.058,0.024 0.11398,0.11399 0.16797,0.09 -0.052,0.022 -0.024,0.12598 -0.044,0.18597 -0.056,0.17798 -0.28396,0.38995 -0.59591,0.52993 z"
       style="fill:none;stroke:#ffffff;stroke-width:1.99971449;stroke-linecap:round;stroke-linejoin:round;stroke-miterlimit:10;stroke-dasharray:none;stroke-opacity:1"
       id="path10700"
       inkscape:connector-curvature="0" /><path
       d="m -267.65661,286.42787 c -0.31196,0.14198 -0.61991,0.17198 -0.79189,0.098 -0.058,-0.026 -0.16798,-0.092 -0.19397,-0.08 0.026,-0.02 0.05,-0.13798 0.068,-0.19597 0.056,-0.17998 0.28596,-0.38995 0.59791,-0.53193 0.31196,-0.13998 0.61991,-0.17197 0.79189,-0.096 0.058,0.024 0.11398,0.11398 0.16798,0.09 -0.052,0.022 -0.024,0.12599 -0.044,0.18598 -0.056,0.17797 -0.28396,0.38994 -0.59591,0.52992 z"
       style="fill:none;stroke:#ffffff;stroke-width:1.99971449;stroke-linecap:round;stroke-linejoin:round;stroke-miterlimit:10;stroke-dasharray:none;stroke-opacity:1"
       id="path10704"
       inkscape:connector-curvature="0" /><path
       d="m -263.33683,278.89975 c -0.27596,0.20397 -0.56992,0.29995 -0.75389,0.26196 -0.062,-0.02 -0.18398,-0.054 -0.20597,-0.036 0.022,-0.02 0.02,-0.14398 0.026,-0.20797 0.018,-0.18597 0.19598,-0.43993 0.47194,-0.6439 0.27596,-0.20398 0.56992,-0.29996 0.75389,-0.26197 0.062,0.02 0.13598,0.088 0.18197,0.054 -0.044,0.032 0.004,0.12798 -0.002,0.18997 -0.018,0.18597 -0.19597,0.43994 -0.47193,0.64391 z"
       style="fill:none;stroke:#ffffff;stroke-width:1.99971449;stroke-linecap:round;stroke-linejoin:round;stroke-miterlimit:10;stroke-dasharray:none;stroke-opacity:1"
       id="path10708"
       inkscape:connector-curvature="0" /><path
       d="m -262.17,278.63698 c -0.27596,0.20397 -0.56991,0.29796 -0.75389,0.26197 -0.062,-0.02 -0.18397,-0.054 -0.20597,-0.038 0.024,-0.02 0.02,-0.14398 0.026,-0.20597 0.018,-0.18597 0.19597,-0.43994 0.47193,-0.64391 0.27596,-0.20397 0.56992,-0.29995 0.75389,-0.26196 0.062,0.02 0.13598,0.088 0.18198,0.054 -0.044,0.032 0.004,0.12599 -0.002,0.18998 -0.018,0.18597 -0.19597,0.43993 -0.47194,0.6439 z"
       style="fill:none;stroke:#ffffff;stroke-width:1.99971449;stroke-linecap:round;stroke-linejoin:round;stroke-miterlimit:10;stroke-dasharray:none;stroke-opacity:1"
       id="path10712"
       inkscape:connector-curvature="0" /><path
       d="m -266.70655,319.1626 c -5.31924,-11.26639 -13.34409,-19.95915 -13.34409,-19.95915 0,0 -9.22269,1.78174 -12.72219,12.52821 0,0 9.94658,-11.1884 15.04186,-9.8046"
       style="fill:none;stroke:#ffffff;stroke-width:1.99971449;stroke-linecap:round;stroke-linejoin:round;stroke-miterlimit:10;stroke-dasharray:none;stroke-opacity:1"
       id="path10716"
       inkscape:connector-curvature="0" /><path
       d="m -263.80356,325.61868 c 0,0 -13.71004,-26.85417 -16.8116,-63.7729 0,0 -4.02743,25.63234 7.94486,44.51765"
       style="fill:none;stroke:#ffffff;stroke-width:1.99971449;stroke-linecap:round;stroke-linejoin:round;stroke-miterlimit:10;stroke-dasharray:none;stroke-opacity:1"
       id="path10720"
       inkscape:connector-curvature="0" /><path
       d="m -267.89578,316.53017 c 0,0 -5.17926,-44.70161 3.83745,-49.36095"
       style="fill:none;stroke:#ffffff;stroke-width:1.99971449;stroke-linecap:round;stroke-linejoin:round;stroke-miterlimit:10;stroke-dasharray:none;stroke-opacity:1"
       id="path10724"
       inkscape:connector-curvature="0" /><path
       d="m -269.24219,289.57002 c 0,0 3.5635,-18.82131 12.58221,-17.79146 9.01671,1.02786 15.78174,15.96372 15.78174,15.96372"
       style="fill:none;stroke:#ffffff;stroke-width:1.99971449;stroke-linecap:round;stroke-linejoin:round;stroke-miterlimit:10;stroke-dasharray:none;stroke-opacity:1"
       id="path10728"
       inkscape:connector-curvature="0" /><path
       d="m -267.0511,282.0369 c 0,0 8.4168,-18.9113 18.84531,2.55563"
       style="fill:none;stroke:#ffffff;stroke-width:1.99971449;stroke-linecap:round;stroke-linejoin:round;stroke-miterlimit:10;stroke-dasharray:none;stroke-opacity:1"
       id="path10732"
       inkscape:connector-curvature="0" /><path
       d="m -269.37697,289.99576 c 0,0 -4.09341,-18.08342 4.82531,-17.4875"
       style="fill:none;stroke:#ffffff;stroke-width:1.99971449;stroke-linecap:round;stroke-linejoin:round;stroke-miterlimit:10;stroke-dasharray:none;stroke-opacity:1"
       id="path10736"
       inkscape:connector-curvature="0" /><path
       d="m -268.13994,285.23484 c 0,0 4.78731,-17.5015 15.63576,0"
       style="fill:none;stroke:#ffffff;stroke-width:1.99971449;stroke-linecap:round;stroke-linejoin:round;stroke-miterlimit:10;stroke-dasharray:none;stroke-opacity:1"
       id="path10740"
       inkscape:connector-curvature="0" /><path
       d="m -269.07621,288.78414 c 0,0 2.15369,-9.04871 7.52093,-4.84731"
       style="fill:none;stroke:#ffffff;stroke-width:1.99971449;stroke-linecap:round;stroke-linejoin:round;stroke-miterlimit:10;stroke-dasharray:none;stroke-opacity:1"
       id="path10744"
       inkscape:connector-curvature="0" /><path
       d="m -263.80356,325.61868 c 0,0 -7.33096,-14.052 -0.37195,-21.66691 1.33781,-1.46579 3.20754,-2.69562 5.75918,-3.5375 0,0 11.38837,3.99743 17.96743,11.04243 0,0 -18.41137,-11.62634 -23.72661,-7.50493"
       style="fill:none;stroke:#ffffff;stroke-width:1.99971449;stroke-linecap:round;stroke-linejoin:round;stroke-miterlimit:10;stroke-dasharray:none;stroke-opacity:1"
       id="path10748"
       inkscape:connector-curvature="0" /></g></svg>