<?xml version="1.0" encoding="UTF-8" standalone="no"?>
<svg
   xmlns:dc="http://purl.org/dc/elements/1.1/"
   xmlns:cc="http://creativecommons.org/ns#"
   xmlns:rdf="http://www.w3.org/1999/02/22-rdf-syntax-ns#"
   xmlns:svg="http://www.w3.org/2000/svg"
   xmlns="http://www.w3.org/2000/svg"
   xmlns:sodipodi="http://sodipodi.sourceforge.net/DTD/sodipodi-0.dtd"
   xmlns:inkscape="http://www.inkscape.org/namespaces/inkscape"
   xml:space="preserve"
   enable-background="new -331 270.6 54.2 55.6"
   viewBox="-331 270.6 42.999999 43.000001"
   height="43"
   width="43"
   y="0px"
   x="0px"
   id="Layer_1"
   version="1.1"
   sodipodi:docname="sorghum.svg"
   inkscape:version="0.92.1 r15371"><sodipodi:namedview
     pagecolor="#ffffff"
     bordercolor="#666666"
     borderopacity="1"
     objecttolerance="10"
     gridtolerance="10"
     guidetolerance="10"
     inkscape:pageopacity="0"
     inkscape:pageshadow="2"
     inkscape:window-width="1920"
     inkscape:window-height="1017"
     id="namedview31"
     showgrid="false"
     inkscape:zoom="3.8808652"
     inkscape:cx="-111.29067"
     inkscape:cy="38.781741"
     inkscape:window-x="-8"
     inkscape:window-y="-8"
     inkscape:window-maximized="1"
     inkscape:current-layer="Layer_1" /><metadata
     id="metadata35"><rdf:RDF><cc:Work
         rdf:about=""><dc:format>image/svg+xml</dc:format><dc:type
           rdf:resource="http://purl.org/dc/dcmitype/StillImage" /><dc:title /></cc:Work></rdf:RDF></metadata><defs
     id="defs33" /><g
     id="g4854"
     transform="matrix(0.51615229,0,0,0.51615229,-95.827805,149.91854)"><path
       d="m -418.98339,243.39902 c 0.15287,0.50287 -0.13276,1.03792 -0.63563,1.18879 -0.50488,0.15287 -1.03792,-0.13276 -1.1908,-0.63764 -0.11465,-0.37816 0.0181,-0.7704 0.30374,-1.00977 0.0945,-0.0785 0.3339,-0.17902 0.26954,-0.38821 0.0764,0.24741 0.31781,0.16091 0.44051,0.175 0.37011,0.0382 0.69798,0.29367 0.81264,0.67183 z"
       style="fill:none;stroke:#ffffff;stroke-width:2.01148105;stroke-linecap:round;stroke-linejoin:round;stroke-miterlimit:10;stroke-dasharray:none;stroke-opacity:1"
       id="path10752"
       inkscape:connector-curvature="0" /><path
       d="m -418.18001,246.46713 c 0.15891,0.50287 -0.11867,1.03793 -0.62154,1.19683 -0.50287,0.15891 -1.03793,-0.11867 -1.19684,-0.61953 -0.12068,-0.37816 0.006,-0.77442 0.28966,-1.0158 0.0945,-0.0805 0.32988,-0.18305 0.26551,-0.39224 0.0764,0.24741 0.31782,0.1569 0.44253,0.16896 0.37011,0.0342 0.69999,0.28563 0.82068,0.66178 z"
       style="fill:none;stroke:#ffffff;stroke-width:2.01148105;stroke-linecap:round;stroke-linejoin:round;stroke-miterlimit:10;stroke-dasharray:none;stroke-opacity:1"
       id="path10756"
       inkscape:connector-curvature="0" /><path
       d="m -421.64116,249.07482 c 0.1589,0.50287 -0.11868,1.03792 -0.62155,1.19683 -0.50287,0.1589 -1.03792,-0.11868 -1.19683,-0.61954 -0.11868,-0.37816 0.008,-0.77442 0.28965,-1.0158 0.0945,-0.0805 0.3319,-0.18304 0.26552,-0.39224 0.0784,0.24742 0.31982,0.1569 0.44252,0.16897 0.37012,0.0342 0.70201,0.28563 0.82069,0.66178 z"
       style="fill:none;stroke:#ffffff;stroke-width:2.01148105;stroke-linecap:round;stroke-linejoin:round;stroke-miterlimit:10;stroke-dasharray:none;stroke-opacity:1"
       id="path10760"
       inkscape:connector-curvature="0" /><path
       d="m -419.3527,251.5431 c 0.15891,0.50287 -0.11868,1.03793 -0.62155,1.19684 -0.50287,0.1589 -1.03792,-0.11868 -1.19683,-0.61954 -0.11868,-0.37816 0.008,-0.77442 0.28965,-1.0158 0.0945,-0.0805 0.3319,-0.18304 0.26552,-0.39224 0.0784,0.24741 0.31983,0.1569 0.44253,0.16897 0.37011,0.0342 0.702,0.28563 0.82068,0.66177 z"
       style="fill:none;stroke:#ffffff;stroke-width:2.01148105;stroke-linecap:round;stroke-linejoin:round;stroke-miterlimit:10;stroke-dasharray:none;stroke-opacity:1"
       id="path10764"
       inkscape:connector-curvature="0" /><path
       d="m -418.03277,253.89151 c 0.15891,0.50287 -0.11867,1.03993 -0.62154,1.19884 -0.50287,0.15891 -1.03793,-0.11868 -1.19684,-0.62155 -0.11867,-0.37614 0.006,-0.77241 0.28966,-1.01378 0.0945,-0.0805 0.33189,-0.18506 0.26551,-0.39224 0.0784,0.2454 0.31782,0.15689 0.44253,0.16695 0.37011,0.0342 0.69999,0.28563 0.82068,0.66178 z"
       style="fill:none;stroke:#ffffff;stroke-width:2.01148105;stroke-linecap:round;stroke-linejoin:round;stroke-miterlimit:10;stroke-dasharray:none;stroke-opacity:1"
       id="path10768"
       inkscape:connector-curvature="0" /><path
       d="m -414.99583,266.26976 c 0.16092,0.50287 -0.11868,1.03792 -0.62155,1.19683 -0.50086,0.15891 -1.03792,-0.11868 -1.19683,-0.61954 -0.11868,-0.37815 0.008,-0.77442 0.28965,-1.01579 0.0945,-0.0805 0.3319,-0.18305 0.26552,-0.39224 0.0785,0.24741 0.31982,0.15689 0.44252,0.16896 0.37012,0.0342 0.70201,0.28563 0.82069,0.66178 z"
       style="fill:none;stroke:#ffffff;stroke-width:2.01148105;stroke-linecap:round;stroke-linejoin:round;stroke-miterlimit:10;stroke-dasharray:none;stroke-opacity:1"
       id="path10772"
       inkscape:connector-curvature="0" /><path
       d="m -414.33084,254.42676 c 0.15891,0.50287 -0.11867,1.03994 -0.62154,1.19885 -0.50287,0.1589 -1.03793,-0.11868 -1.19684,-0.62155 -0.12068,-0.37615 0.006,-0.77241 0.28966,-1.01379 0.0945,-0.0805 0.32988,-0.18505 0.26551,-0.39224 0.0784,0.2454 0.31782,0.1569 0.44253,0.16696 0.37011,0.0342 0.69999,0.28563 0.82068,0.66177 z"
       style="fill:none;stroke:#ffffff;stroke-width:2.01148105;stroke-linecap:round;stroke-linejoin:round;stroke-miterlimit:10;stroke-dasharray:none;stroke-opacity:1"
       id="path10776"
       inkscape:connector-curvature="0" /><path
       d="m -416.83252,260.3031 c 0.15891,0.50287 -0.11867,1.03793 -0.62154,1.19684 -0.50287,0.1589 -1.03793,-0.11868 -1.19683,-0.61954 -0.12069,-0.37816 0.006,-0.77442 0.28965,-1.0158 0.0945,-0.0805 0.32988,-0.18304 0.26551,-0.39224 0.0784,0.24741 0.31782,0.1569 0.44253,0.16897 0.37011,0.0342 0.7,0.28563 0.82068,0.66177 z"
       style="fill:none;stroke:#ffffff;stroke-width:2.01148105;stroke-linecap:round;stroke-linejoin:round;stroke-miterlimit:10;stroke-dasharray:none;stroke-opacity:1"
       id="path10780"
       inkscape:connector-curvature="0" /><path
       d="m -418.06415,259.2334 c 0.15891,0.50287 -0.11867,1.03792 -0.62154,1.19683 -0.50287,0.15891 -1.03793,-0.11868 -1.19683,-0.61954 -0.12069,-0.37816 0.006,-0.77442 0.28965,-1.01579 0.0945,-0.0784 0.32988,-0.18305 0.26551,-0.39224 0.0784,0.24741 0.31782,0.15689 0.44253,0.16896 0.37011,0.0342 0.7,0.28563 0.82068,0.66178 z"
       style="fill:none;stroke:#ffffff;stroke-width:2.01148105;stroke-linecap:round;stroke-linejoin:round;stroke-miterlimit:10;stroke-dasharray:none;stroke-opacity:1"
       id="path10784"
       inkscape:connector-curvature="0" /><path
       d="m -418.39805,249.66016 c 0.15891,0.50287 -0.11868,1.03993 -0.62155,1.19884 -0.50287,0.15891 -1.03792,-0.11868 -1.19683,-0.62155 -0.12069,-0.37615 0.006,-0.77241 0.28965,-1.01378 0.0945,-0.0805 0.32989,-0.18506 0.26552,-0.39224 0.0785,0.2454 0.31781,0.15689 0.44252,0.16695 0.37012,0.0342 0.7,0.28563 0.82069,0.66178 z"
       style="fill:none;stroke:#ffffff;stroke-width:2.01148105;stroke-linecap:round;stroke-linejoin:round;stroke-miterlimit:10;stroke-dasharray:none;stroke-opacity:1"
       id="path10788"
       inkscape:connector-curvature="0" /><path
       d="m -413.37719,261.25675 c 0.1589,0.50287 -0.11868,1.03792 -0.62155,1.19683 -0.50086,0.16092 -1.03793,-0.11868 -1.19683,-0.61954 -0.11868,-0.37816 0.008,-0.77442 0.28965,-1.01378 0.0945,-0.0805 0.3319,-0.18506 0.26552,-0.39425 0.0784,0.24741 0.31982,0.15689 0.44252,0.16896 0.37011,0.0342 0.70201,0.28563 0.82069,0.66178 z"
       style="fill:none;stroke:#ffffff;stroke-width:2.01148105;stroke-linecap:round;stroke-linejoin:round;stroke-miterlimit:10;stroke-dasharray:none;stroke-opacity:1"
       id="path10792"
       inkscape:connector-curvature="0" /><path
       d="m -412.08864,259.57716 c 0.15891,0.50287 -0.11868,1.03994 -0.62155,1.19884 -0.50086,0.15891 -1.03792,-0.11867 -1.19683,-0.62154 -0.11868,-0.37615 0.008,-0.77241 0.28966,-1.01379 0.0945,-0.0805 0.33189,-0.18506 0.26551,-0.39224 0.0785,0.2454 0.31983,0.1569 0.44253,0.16695 0.37011,0.0342 0.702,0.28563 0.82068,0.66178 z"
       style="fill:none;stroke:#ffffff;stroke-width:2.01148105;stroke-linecap:round;stroke-linejoin:round;stroke-miterlimit:10;stroke-dasharray:none;stroke-opacity:1"
       id="path10796"
       inkscape:connector-curvature="0" /><path
       d="m -416.17637,248.69384 c -0.20517,0.48477 -0.76436,0.71207 -1.24913,0.50891 -0.48477,-0.20518 -0.71408,-0.76437 -0.5089,-1.25115 0.15287,-0.36206 0.50689,-0.58131 0.87901,-0.58332 0.12471,0 0.37213,0.0764 0.45661,-0.12673 -0.10058,0.23937 0.1408,0.32586 0.2273,0.41638 0.25948,0.26551 0.34999,0.67183 0.19511,1.03591 z"
       style="fill:none;stroke:#ffffff;stroke-width:2.01148105;stroke-linecap:round;stroke-linejoin:round;stroke-miterlimit:10;stroke-dasharray:none;stroke-opacity:1"
       id="path10800"
       inkscape:connector-curvature="0" /><path
       d="m -411.59562,270.70125 c -0.20518,0.48477 -0.76437,0.71207 -1.24913,0.50891 -0.48477,-0.20517 -0.71408,-0.76436 -0.50891,-1.25114 0.15287,-0.36207 0.50689,-0.58132 0.87902,-0.58333 0.12471,0 0.37212,0.0764 0.4566,-0.12471 -0.10057,0.23735 0.14081,0.32384 0.2273,0.41436 0.25948,0.26552 0.35,0.67184 0.19512,1.03591 z"
       style="fill:none;stroke:#ffffff;stroke-width:2.01148105;stroke-linecap:round;stroke-linejoin:round;stroke-miterlimit:10;stroke-dasharray:none;stroke-opacity:1"
       id="path10804"
       inkscape:connector-curvature="0" /><path
       d="m -415.22172,246.65883 c -0.20517,0.48476 -0.76436,0.71206 -1.24913,0.5089 -0.48678,-0.20517 -0.71408,-0.76436 -0.50891,-1.24913 0.15288,-0.36408 0.5069,-0.58333 0.87902,-0.58534 0.1227,0 0.37011,0.0764 0.45661,-0.12471 -0.10259,0.23735 0.1408,0.32586 0.22729,0.41436 0.25949,0.26552 0.34799,0.67184 0.19512,1.03592 z"
       style="fill:none;stroke:#ffffff;stroke-width:2.01148105;stroke-linecap:round;stroke-linejoin:round;stroke-miterlimit:10;stroke-dasharray:none;stroke-opacity:1"
       id="path10808"
       inkscape:connector-curvature="0" /><path
       d="m -417.44039,257.25531 c 0.42845,0.30574 0.52902,0.90114 0.22328,1.3316 -0.30776,0.42844 -0.90114,0.52701 -1.3316,0.22126 -0.32184,-0.22931 -0.45862,-0.62155 -0.37615,-0.98361 0.0262,-0.12069 0.15287,-0.34598 -0.0241,-0.47471 0.2092,0.15086 0.34799,-0.0664 0.4546,-0.13075 0.3158,-0.19511 0.73218,-0.1931 1.05401,0.0362 z"
       style="fill:none;stroke:#ffffff;stroke-width:2.01148105;stroke-linecap:round;stroke-linejoin:round;stroke-miterlimit:10;stroke-dasharray:none;stroke-opacity:1"
       id="path10812"
       inkscape:connector-curvature="0" /><path
       d="m -419.37342,255.7644 c 0.42845,0.30574 0.52902,0.90315 0.22126,1.3316 -0.30574,0.42844 -0.90114,0.52902 -1.32958,0.22126 -0.32184,-0.2273 -0.45862,-0.62155 -0.37816,-0.98361 0.0282,-0.12069 0.15488,-0.34598 -0.0221,-0.4727 0.20919,0.15086 0.34799,-0.0664 0.4546,-0.13276 0.3158,-0.1931 0.73217,-0.1931 1.05401,0.0362 z"
       style="fill:none;stroke:#ffffff;stroke-width:2.01148105;stroke-linecap:round;stroke-linejoin:round;stroke-miterlimit:10;stroke-dasharray:none;stroke-opacity:1"
       id="path10816"
       inkscape:connector-curvature="0" /><path
       d="m -417.43355,255.7644 c 0.42845,0.30574 0.52902,0.90315 0.22328,1.3316 -0.30776,0.42844 -0.90115,0.52902 -1.3316,0.22126 -0.32184,-0.2273 -0.45862,-0.62155 -0.37615,-0.98361 0.0262,-0.12069 0.15287,-0.34598 -0.0241,-0.4727 0.2092,0.15086 0.34799,-0.0664 0.4546,-0.13276 0.3158,-0.1931 0.73218,-0.1931 1.05401,0.0362 z"
       style="fill:none;stroke:#ffffff;stroke-width:2.01148105;stroke-linecap:round;stroke-linejoin:round;stroke-miterlimit:10;stroke-dasharray:none;stroke-opacity:1"
       id="path10820"
       inkscape:connector-curvature="0" /><path
       d="m -420.25626,253.32186 c 0.42845,0.30574 0.52902,0.90114 0.22328,1.3316 -0.30575,0.42844 -0.90115,0.52701 -1.3316,0.22126 -0.31983,-0.22931 -0.45661,-0.62155 -0.37615,-0.98361 0.0261,-0.12069 0.15488,-0.34598 -0.0241,-0.47471 0.21121,0.15086 0.35,-0.0664 0.4546,-0.13075 0.31781,-0.19511 0.73218,-0.1931 1.05401,0.0362 z"
       style="fill:none;stroke:#ffffff;stroke-width:2.01148105;stroke-linecap:round;stroke-linejoin:round;stroke-miterlimit:10;stroke-dasharray:none;stroke-opacity:1"
       id="path10824"
       inkscape:connector-curvature="0" /><path
       d="m -421.04214,256.30066 c 0.42844,0.30574 0.52902,0.90114 0.22327,1.3316 -0.30574,0.42844 -0.90114,0.52701 -1.3316,0.22126 -0.31982,-0.22931 -0.45661,-0.62155 -0.37615,-0.98361 0.0261,-0.12069 0.15288,-0.34598 -0.0241,-0.4727 0.20919,0.15086 0.34999,-0.0664 0.45459,-0.13276 0.31781,-0.19511 0.73218,-0.1931 1.05402,0.0362 z"
       style="fill:none;stroke:#ffffff;stroke-width:2.01148105;stroke-linecap:round;stroke-linejoin:round;stroke-miterlimit:10;stroke-dasharray:none;stroke-opacity:1"
       id="path10828"
       inkscape:connector-curvature="0" /><path
       d="m -421.99679,254.81075 c 0.42844,0.30575 0.52902,0.90115 0.22327,1.33161 -0.30574,0.42844 -0.90114,0.527 -1.3316,0.22126 -0.31982,-0.22931 -0.4566,-0.62155 -0.37614,-0.98362 0.0261,-0.12068 0.15488,-0.34597 -0.0241,-0.47269 0.2112,0.14885 0.34999,-0.0684 0.45459,-0.13276 0.31782,-0.19512 0.73218,-0.1931 1.05402,0.0362 z"
       style="fill:none;stroke:#ffffff;stroke-width:2.01148105;stroke-linecap:round;stroke-linejoin:round;stroke-miterlimit:10;stroke-dasharray:none;stroke-opacity:1"
       id="path10832"
       inkscape:connector-curvature="0" /><path
       d="m -416.82367,250.12682 c 0.42845,0.30575 0.52902,0.90114 0.22328,1.3316 -0.30575,0.42845 -0.90114,0.52701 -1.3316,0.22126 -0.31983,-0.22931 -0.45661,-0.62154 -0.37615,-0.98361 0.0261,-0.12069 0.15287,-0.34598 -0.0241,-0.47471 0.2092,0.15086 0.35,-0.0664 0.4546,-0.13075 0.31781,-0.19511 0.73218,-0.1931 1.05401,0.0362 z"
       style="fill:none;stroke:#ffffff;stroke-width:2.01148105;stroke-linecap:round;stroke-linejoin:round;stroke-miterlimit:10;stroke-dasharray:none;stroke-opacity:1"
       id="path10836"
       inkscape:connector-curvature="0" /><path
       d="m -413.91345,259.21771 c -0.21523,0.48074 -0.77845,0.69798 -1.25919,0.48275 -0.48276,-0.21321 -0.69799,-0.77643 -0.48477,-1.25918 0.16092,-0.36006 0.51896,-0.57328 0.89109,-0.56523 0.1227,0.002 0.37011,0.0825 0.45862,-0.11868 -0.10661,0.23736 0.13476,0.32989 0.21925,0.4204 0.25344,0.27155 0.33591,0.67988 0.175,1.03994 z"
       style="fill:none;stroke:#ffffff;stroke-width:2.01148105;stroke-linecap:round;stroke-linejoin:round;stroke-miterlimit:10;stroke-dasharray:none;stroke-opacity:1"
       id="path10840"
       inkscape:connector-curvature="0" /><path
       d="m -413.91345,256.98818 c -0.21523,0.48075 -0.77845,0.69799 -1.25919,0.48276 -0.48276,-0.21322 -0.69799,-0.77844 -0.48477,-1.25919 0.16092,-0.36005 0.51896,-0.57327 0.89109,-0.56522 0.1227,0 0.37011,0.0825 0.45862,-0.11868 -0.10661,0.23735 0.13476,0.32988 0.21925,0.4204 0.25344,0.27155 0.33591,0.67988 0.175,1.03993 z"
       style="fill:none;stroke:#ffffff;stroke-width:2.01148105;stroke-linecap:round;stroke-linejoin:round;stroke-miterlimit:10;stroke-dasharray:none;stroke-opacity:1"
       id="path10844"
       inkscape:connector-curvature="0" /><path
       d="m -411.89513,255.55722 c -0.21322,0.48074 -0.77845,0.69798 -1.25919,0.48275 -0.48276,-0.21322 -0.69799,-0.77643 -0.48276,-1.25919 0.15891,-0.36005 0.51695,-0.57327 0.88908,-0.56522 0.12471,0 0.37011,0.0825 0.45862,-0.11667 -0.1046,0.23535 0.13476,0.32787 0.21925,0.41839 0.25545,0.27155 0.33591,0.67988 0.175,1.03994 z"
       style="fill:none;stroke:#ffffff;stroke-width:2.01148105;stroke-linecap:round;stroke-linejoin:round;stroke-miterlimit:10;stroke-dasharray:none;stroke-opacity:1"
       id="path10848"
       inkscape:connector-curvature="0" /><path
       d="m -419.92839,243.5708 c 0,0 7.14478,25.01277 8.68759,44.86608 0.99166,12.75883 -2.88647,19.91367 -2.88647,19.91367"
       style="fill:none;stroke:#ffffff;stroke-width:2.01148105;stroke-linecap:round;stroke-linejoin:round;stroke-miterlimit:10;stroke-dasharray:none;stroke-opacity:1"
       id="path10852"
       inkscape:connector-curvature="0" /><path
       d="m -417.38145,253.36893 c 0,0 -5.32439,-3.84394 -5.76088,-4.70084"
       style="fill:none;stroke:#ffffff;stroke-width:2.01148105;stroke-linecap:round;stroke-linejoin:round;stroke-miterlimit:10;stroke-dasharray:none;stroke-opacity:1"
       id="path10856"
       inkscape:connector-curvature="0" /><path
       d="m -417.99435,249.73197 c 0,0 1.73993,-3.10573 2.02959,-4.14365"
       style="fill:none;stroke:#ffffff;stroke-width:2.01148105;stroke-linecap:round;stroke-linejoin:round;stroke-miterlimit:10;stroke-dasharray:none;stroke-opacity:1"
       id="path10860"
       inkscape:connector-curvature="0" /><path
       d="m -415.10083,252.97307 c -0.20517,0.48476 -0.76436,0.71206 -1.25114,0.5089 -0.48477,-0.20517 -0.71207,-0.76436 -0.5069,-1.24913 0.15288,-0.36408 0.50489,-0.58333 0.87902,-0.58534 0.1227,0 0.37011,0.0764 0.4546,-0.12471 -0.10058,0.23735 0.14281,0.32385 0.2293,0.41436 0.25949,0.26552 0.34799,0.67184 0.19512,1.03592 z"
       style="fill:none;stroke:#ffffff;stroke-width:2.01148105;stroke-linecap:round;stroke-linejoin:round;stroke-miterlimit:10;stroke-dasharray:none;stroke-opacity:1"
       id="path10864"
       inkscape:connector-curvature="0" /><path
       d="m -414.14719,250.93805 c -0.20517,0.48678 -0.76436,0.71206 -1.24913,0.50891 -0.48477,-0.20518 -0.71407,-0.76437 -0.5089,-1.24913 0.15287,-0.36408 0.50689,-0.58333 0.87901,-0.58535 0.12472,0 0.37213,0.0764 0.45661,-0.12471 -0.10057,0.23736 0.1408,0.32586 0.2273,0.41437 0.25948,0.26551 0.35,0.67183 0.19511,1.03591 z"
       style="fill:none;stroke:#ffffff;stroke-width:2.01148105;stroke-linecap:round;stroke-linejoin:round;stroke-miterlimit:10;stroke-dasharray:none;stroke-opacity:1"
       id="path10868"
       inkscape:connector-curvature="0" /><path
       d="m -416.91981,254.01119 c 0,0 1.73993,-3.10573 2.02958,-4.14365"
       style="fill:none;stroke:#ffffff;stroke-width:2.01148105;stroke-linecap:round;stroke-linejoin:round;stroke-miterlimit:10;stroke-dasharray:none;stroke-opacity:1"
       id="path10872"
       inkscape:connector-curvature="0" /><path
       d="m -415.96416,259.43978 c 0,0 -3.11779,-2.78792 -7.17696,-3.54624"
       style="fill:none;stroke:#ffffff;stroke-width:2.01148105;stroke-linecap:round;stroke-linejoin:round;stroke-miterlimit:10;stroke-dasharray:none;stroke-opacity:1"
       id="path10876"
       inkscape:connector-curvature="0" /><path
       d="m -415.50353,261.22537 c 0,0 0.7,-5.34652 3.3813,-7.45857"
       style="fill:none;stroke:#ffffff;stroke-width:2.01148105;stroke-linecap:round;stroke-linejoin:round;stroke-miterlimit:10;stroke-dasharray:none;stroke-opacity:1"
       id="path10880"
       inkscape:connector-curvature="0" /><path
       d="m -416.8118,262.2291 c 0.42443,0.31178 0.51494,0.90919 0.20316,1.33361 -0.31379,0.42442 -0.9112,0.51494 -1.33361,0.20316 -0.31983,-0.23534 -0.45057,-0.6296 -0.36408,-0.99166 0.0282,-0.12069 0.16092,-0.34397 -0.0141,-0.4727 0.20718,0.15287 0.34799,-0.0624 0.45661,-0.12471 0.31781,-0.19109 0.73419,-0.18305 1.052,0.0523 z"
       style="fill:none;stroke:#ffffff;stroke-width:2.01148105;stroke-linecap:round;stroke-linejoin:round;stroke-miterlimit:10;stroke-dasharray:none;stroke-opacity:1"
       id="path10884"
       inkscape:connector-curvature="0" /><path
       d="m -419.06586,261.11132 c 0.42442,0.31178 0.51494,0.90919 0.20115,1.33361 -0.31178,0.42442 -0.90919,0.51494 -1.33362,0.20115 -0.31781,-0.23333 -0.44856,-0.62759 -0.36206,-0.98965 0.0282,-0.12069 0.1589,-0.34397 -0.0161,-0.4727 0.2092,0.15287 0.35,-0.0624 0.45661,-0.12471 0.31983,-0.19109 0.7362,-0.18305 1.05402,0.0523 z"
       style="fill:none;stroke:#ffffff;stroke-width:2.01148105;stroke-linecap:round;stroke-linejoin:round;stroke-miterlimit:10;stroke-dasharray:none;stroke-opacity:1"
       id="path10888"
       inkscape:connector-curvature="0" /><path
       d="m -420.26712,260.69494 c 0.42442,0.31379 0.51494,0.9112 0.20115,1.33562 -0.31178,0.42241 -0.90919,0.51293 -1.33361,0.20115 -0.31782,-0.23534 -0.44856,-0.62959 -0.36207,-0.99166 0.0282,-0.12069 0.16092,-0.34195 -0.0161,-0.4727 0.20919,0.15288 0.35,-0.0624 0.4566,-0.12471 0.31983,-0.18908 0.73621,-0.18103 1.05402,0.0523 z"
       style="fill:none;stroke:#ffffff;stroke-width:2.01148105;stroke-linecap:round;stroke-linejoin:round;stroke-miterlimit:10;stroke-dasharray:none;stroke-opacity:1"
       id="path10892"
       inkscape:connector-curvature="0" /><path
       d="m -421.19823,259.19015 c 0.42442,0.31178 0.51494,0.90919 0.20316,1.33361 -0.3138,0.42443 -0.91121,0.51494 -1.33563,0.20316 -0.31781,-0.23534 -0.44856,-0.62959 -0.36206,-0.99166 0.0282,-0.12069 0.16091,-0.34195 -0.0141,-0.4727 0.20718,0.15288 0.34798,-0.0623 0.4566,-0.12471 0.31782,-0.19109 0.73419,-0.18304 1.05201,0.0523 z"
       style="fill:none;stroke:#ffffff;stroke-width:2.01148105;stroke-linecap:round;stroke-linejoin:round;stroke-miterlimit:10;stroke-dasharray:none;stroke-opacity:1"
       id="path10896"
       inkscape:connector-curvature="0" /><path
       d="m -415.45948,264.76497 c 0,0 -4.03302,-3.86204 -7.90311,-4.52784"
       style="fill:none;stroke:#ffffff;stroke-width:2.01148105;stroke-linecap:round;stroke-linejoin:round;stroke-miterlimit:10;stroke-dasharray:none;stroke-opacity:1"
       id="path10900"
       inkscape:connector-curvature="0" /><path
       d="m -410.94049,262.74565 c -0.21522,0.48074 -0.77844,0.69798 -1.25918,0.48275 -0.48276,-0.21523 -0.69799,-0.77844 -0.48477,-1.25919 0.16092,-0.36206 0.51896,-0.57327 0.89109,-0.56522 0.1227,0 0.37011,0.0825 0.45861,-0.11868 -0.1066,0.23735 0.13477,0.32988 0.21926,0.4204 0.25344,0.27155 0.33591,0.67787 0.17499,1.03994 z"
       style="fill:none;stroke:#ffffff;stroke-width:2.01148105;stroke-linecap:round;stroke-linejoin:round;stroke-miterlimit:10;stroke-dasharray:none;stroke-opacity:1"
       id="path10904"
       inkscape:connector-curvature="0" /><path
       d="m -412.55711,265.30626 c -0.21322,0.48074 -0.77845,0.69798 -1.25919,0.48276 -0.48276,-0.21523 -0.69798,-0.77845 -0.48477,-1.25919 0.16092,-0.36006 0.51897,-0.57327 0.89109,-0.56523 0.12471,0 0.37011,0.0825 0.45862,-0.11867 -0.1046,0.23735 0.13477,0.32988 0.21925,0.42039 0.25546,0.27155 0.33592,0.67787 0.175,1.03994 z"
       style="fill:none;stroke:#ffffff;stroke-width:2.01148105;stroke-linecap:round;stroke-linejoin:round;stroke-miterlimit:10;stroke-dasharray:none;stroke-opacity:1"
       id="path10908"
       inkscape:connector-curvature="0" /><path
       d="m -413.98808,268.97842 c 0,0 -0.0905,-5.65226 4.11348,-7.75225"
       style="fill:none;stroke:#ffffff;stroke-width:2.01148105;stroke-linecap:round;stroke-linejoin:round;stroke-miterlimit:10;stroke-dasharray:none;stroke-opacity:1"
       id="path10912"
       inkscape:connector-curvature="0" /><path
       d="m -414.6746,268.7467 c 0.42442,0.31178 0.51494,0.90919 0.20316,1.33361 -0.31379,0.42442 -0.9112,0.51494 -1.33361,0.20316 -0.31983,-0.23534 -0.45057,-0.62959 -0.36408,-0.99166 0.0282,-0.12069 0.16092,-0.34396 -0.0141,-0.4727 0.20718,0.15287 0.34799,-0.0624 0.45661,-0.12471 0.31781,-0.19109 0.73419,-0.18305 1.052,0.0523 z"
       style="fill:none;stroke:#ffffff;stroke-width:2.01148105;stroke-linecap:round;stroke-linejoin:round;stroke-miterlimit:10;stroke-dasharray:none;stroke-opacity:1"
       id="path10916"
       inkscape:connector-curvature="0" /><path
       d="m -416.92866,267.62912 c 0.42241,0.31178 0.51493,0.90919 0.20114,1.33361 -0.31178,0.42442 -0.90919,0.51494 -1.33361,0.20115 -0.31781,-0.23333 -0.44856,-0.62758 -0.36206,-0.98965 0.0282,-0.12069 0.1589,-0.34396 -0.0161,-0.4727 0.2092,0.15287 0.35,-0.0623 0.45661,-0.12471 0.31983,-0.19109 0.7362,-0.18304 1.05402,0.0523 z"
       style="fill:none;stroke:#ffffff;stroke-width:2.01148105;stroke-linecap:round;stroke-linejoin:round;stroke-miterlimit:10;stroke-dasharray:none;stroke-opacity:1"
       id="path10920"
       inkscape:connector-curvature="0" /><path
       d="m -418.12992,267.21254 c 0.42442,0.31379 0.51494,0.9112 0.20115,1.33562 -0.31178,0.42242 -0.90919,0.51293 -1.33361,0.20115 -0.31782,-0.23534 -0.44856,-0.62959 -0.36207,-0.99166 0.0282,-0.12069 0.16092,-0.34195 -0.0161,-0.4727 0.20919,0.15288 0.34999,-0.0623 0.4566,-0.12471 0.31983,-0.18908 0.73621,-0.18103 1.05402,0.0523 z"
       style="fill:none;stroke:#ffffff;stroke-width:2.01148105;stroke-linecap:round;stroke-linejoin:round;stroke-miterlimit:10;stroke-dasharray:none;stroke-opacity:1"
       id="path10924"
       inkscape:connector-curvature="0" /><path
       d="m -419.06104,265.70795 c 0.42443,0.31178 0.51494,0.90919 0.20316,1.33362 -0.31379,0.42442 -0.9112,0.51493 -1.33562,0.20315 -0.31781,-0.23534 -0.44856,-0.62959 -0.36207,-0.99166 0.0282,-0.12068 0.16092,-0.34195 -0.0141,-0.47269 0.20719,0.15287 0.34799,-0.0624 0.45661,-0.12472 0.31781,-0.19109 0.73419,-0.18304 1.052,0.0523 z"
       style="fill:none;stroke:#ffffff;stroke-width:2.01148105;stroke-linecap:round;stroke-linejoin:round;stroke-miterlimit:10;stroke-dasharray:none;stroke-opacity:1"
       id="path10928"
       inkscape:connector-curvature="0" /><path
       d="m -412.99803,271.36021 c 0,0 -5.98214,-4.31663 -7.69391,-5.83731"
       style="fill:none;stroke:#ffffff;stroke-width:2.01148105;stroke-linecap:round;stroke-linejoin:round;stroke-miterlimit:10;stroke-dasharray:none;stroke-opacity:1"
       id="path10932"
       inkscape:connector-curvature="0" /><path
       d="m -409.41518,267.61524 c -0.21322,0.48074 -0.77844,0.69798 -1.25919,0.48275 -0.48074,-0.21321 -0.69798,-0.77844 -0.48275,-1.25918 0.15891,-0.36006 0.51695,-0.57327 0.88907,-0.56523 0.12471,0 0.37012,0.0825 0.45862,-0.11868 -0.1046,0.23736 0.13477,0.32989 0.22126,0.4204 0.25345,0.27155 0.33391,0.67787 0.17299,1.03994 z"
       style="fill:none;stroke:#ffffff;stroke-width:2.01148105;stroke-linecap:round;stroke-linejoin:round;stroke-miterlimit:10;stroke-dasharray:none;stroke-opacity:1"
       id="path10936"
       inkscape:connector-curvature="0" /><path
       d="m -409.00363,269.70135 c -0.21322,0.48074 -0.77844,0.69798 -1.25919,0.48275 -0.48074,-0.21322 -0.69798,-0.77643 -0.48275,-1.25919 0.16092,-0.36005 0.51896,-0.57327 0.88907,-0.56522 0.12471,0 0.37011,0.0825 0.45862,-0.11868 -0.1046,0.23736 0.13678,0.32988 0.22126,0.4204 0.25345,0.27155 0.33391,0.67988 0.17299,1.03994 z"
       style="fill:none;stroke:#ffffff;stroke-width:2.01148105;stroke-linecap:round;stroke-linejoin:round;stroke-miterlimit:10;stroke-dasharray:none;stroke-opacity:1"
       id="path10940"
       inkscape:connector-curvature="0" /><path
       d="m -410.36882,272.62242 c -0.21523,0.48074 -0.77845,0.69798 -1.25919,0.48275 -0.48276,-0.21321 -0.69798,-0.77844 -0.48477,-1.25918 0.16092,-0.36006 0.51897,-0.57327 0.89109,-0.56523 0.1227,0 0.37011,0.0825 0.45862,-0.11868 -0.10661,0.23736 0.13477,0.32989 0.21925,0.4204 0.25345,0.27155 0.33592,0.67988 0.175,1.03994 z"
       style="fill:none;stroke:#ffffff;stroke-width:2.01148105;stroke-linecap:round;stroke-linejoin:round;stroke-miterlimit:10;stroke-dasharray:none;stroke-opacity:1"
       id="path10944"
       inkscape:connector-curvature="0" /><path
       d="m -412.76631,275.96067 c 0,0 3.47182,-5.81921 3.9063,-9.37149"
       style="fill:none;stroke:#ffffff;stroke-width:2.01148105;stroke-linecap:round;stroke-linejoin:round;stroke-miterlimit:10;stroke-dasharray:none;stroke-opacity:1"
       id="path10948"
       inkscape:connector-curvature="0" /><path
       d="m -411.241,296.46551 c 0,0 -4.14365,-11.8959 -26.76477,-21.75618 0,0 23.20042,16.18639 25.81133,27.95758 z"
       style="fill:none;stroke:#ffffff;stroke-width:2.01148105;stroke-linecap:round;stroke-linejoin:round;stroke-miterlimit:10;stroke-dasharray:none;stroke-opacity:1"
       id="path10952"
       inkscape:connector-curvature="0" /><path
       d="m -411.07787,295.37227 c 12.63612,-13.48497 21.14067,-35.9331 21.14067,-35.9331 -11.96228,16.52231 -17.69098,24.11565 -17.69098,24.11565 0,0 -3.06751,6.308 -3.44969,11.81745 z"
       style="fill:none;stroke:#ffffff;stroke-width:2.01148105;stroke-linecap:round;stroke-linejoin:round;stroke-miterlimit:10;stroke-dasharray:none;stroke-opacity:1"
       id="path10956"
       inkscape:connector-curvature="0" /></g></svg>