<?xml version="1.0" encoding="UTF-8" standalone="no"?>
<svg
   xmlns:dc="http://purl.org/dc/elements/1.1/"
   xmlns:cc="http://creativecommons.org/ns#"
   xmlns:rdf="http://www.w3.org/1999/02/22-rdf-syntax-ns#"
   xmlns:svg="http://www.w3.org/2000/svg"
   xmlns="http://www.w3.org/2000/svg"
   xmlns:sodipodi="http://sodipodi.sourceforge.net/DTD/sodipodi-0.dtd"
   xmlns:inkscape="http://www.inkscape.org/namespaces/inkscape"
   xml:space="preserve"
   enable-background="new -331 270.6 54.2 55.6"
   viewBox="-331 270.6 42.999999 43.000001"
   height="43"
   width="43"
   y="0px"
   x="0px"
   id="Layer_1"
   version="1.1"
   sodipodi:docname="sunflower.svg"
   inkscape:version="0.92.1 r15371"><sodipodi:namedview
     pagecolor="#ffffff"
     bordercolor="#666666"
     borderopacity="1"
     objecttolerance="10"
     gridtolerance="10"
     guidetolerance="10"
     inkscape:pageopacity="0"
     inkscape:pageshadow="2"
     inkscape:window-width="1920"
     inkscape:window-height="1017"
     id="namedview31"
     showgrid="false"
     inkscape:zoom="5.4883721"
     inkscape:cx="21.5"
     inkscape:cy="21.5"
     inkscape:window-x="-8"
     inkscape:window-y="-8"
     inkscape:window-maximized="1"
     inkscape:current-layer="Layer_1" /><metadata
     id="metadata35"><rdf:RDF><cc:Work
         rdf:about=""><dc:format>image/svg+xml</dc:format><dc:type
           rdf:resource="http://purl.org/dc/dcmitype/StillImage" /><dc:title /></cc:Work></rdf:RDF></metadata><defs
     id="defs33" /><g
     style="fill:#ffffff"
     transform="translate(0,-12.599998)"
     id="apple" /><g
     style="fill:#ffffff"
     transform="translate(0,-12.599998)"
     id="barley" /><g
     style="fill:#ffffff"
     transform="translate(0,-12.599998)"
     id="carrot" /><g
     style="fill:#ffffff"
     transform="translate(0,-12.599998)"
     id="eggplant" /><g
     style="fill:#ffffff"
     transform="translate(0,-12.599998)"
     id="pea" /><g
     style="fill:#ffffff"
     transform="translate(0,-12.599998)"
     id="patato" /><g
     style="fill:#ffffff"
     transform="translate(0,-12.599998)"
     id="chickpea" /><g
     style="fill:#ffffff"
     transform="translate(0,-12.599998)"
     id="faba_bean" /><g
     style="fill:#ffffff"
     transform="translate(0,-12.599998)"
     id="lentil" /><g
     style="fill:#ffffff"
     transform="translate(0,-12.599998)"
     id="bean" /><g
     style="fill:#ffffff"
     transform="translate(0,-12.599998)"
     id="rice" /><g
     style="fill:#ffffff"
     transform="translate(0,-12.599998)"
     id="sorghum" /><g
     style="fill:#ffffff"
     transform="translate(0,-12.599998)"
     id="pearl_millet" /><g
     style="fill:#ffffff"
     transform="translate(0,-12.599998)"
     id="pigeon_pea" /><g
     style="fill:#ffffff"
     transform="translate(0,-12.599998)"
     id="grasspea" /><g
     style="fill:#ffffff"
     transform="translate(0,-12.599998)"
     id="cowpea" /><g
     style="fill:#ffffff"
     transform="translate(0,-12.599998)"
     id="bambara" /><g
     style="fill:#ffffff"
     transform="translate(0,-12.599998)"
     id="vetch" /><g
     style="fill:#ffffff"
     transform="translate(0,-12.599998)"
     id="wheat" /><g
     style="fill:#ffffff"
     transform="translate(0,-12.599998)"
     id="banana" /><g
     style="fill:#ffffff"
     transform="translate(0,-12.599998)"
     id="rye" /><g
     style="fill:#ffffff"
     transform="translate(0,-12.599998)"
     id="alfalfa" /><g
     style="fill:#ffffff"
     transform="translate(0,-12.599998)"
     id="finger_millet" /><g
     style="fill:#ffffff"
     transform="translate(0,-12.599998)"
     id="sweet_patato" /><g
     style="fill:#ffffff"
     transform="translate(0,-12.599998)"
     id="oat" /><g
     id="g4742"
     transform="matrix(0.63632192,0,0,0.63632192,-147.68818,123.27356)"><path
       d="m -252.60446,252.634 c 0,-1.76583 1.23848,-4.91396 1.23848,-6.67978 0,-2.78258 -1.11863,-5.30148 -2.9264,-7.14121 -1.80777,1.83973 -2.9264,4.35863 -2.9264,7.14121 0,1.76582 1.23848,5.01383 1.23848,6.67978"
       style="fill:none;stroke:#ffffff;stroke-width:1.99754107;stroke-linecap:round;stroke-linejoin:round;stroke-miterlimit:10;stroke-dasharray:none;stroke-opacity:1"
       id="path9954"
       inkscape:connector-curvature="0" /><path
       d="m -255.9803,278.00017 c 0,1.76383 -1.23848,4.91395 -1.23848,6.67978 0,2.78257 1.11863,5.30147 2.9264,7.13921 1.80777,-1.83774 2.9264,-4.35664 2.9264,-7.13921 0,-1.76583 -1.23848,-5.01383 -1.23848,-6.67978"
       style="fill:none;stroke:#ffffff;stroke-width:1.99754107;stroke-linecap:round;stroke-linejoin:round;stroke-miterlimit:10;stroke-dasharray:none;stroke-opacity:1"
       id="path9958"
       inkscape:connector-curvature="0" /><path
       d="m -257.04439,252.82136 c -0.60326,-1.65795 -0.51737,-5.04179 -1.12062,-6.69975 -0.95283,-2.61478 -2.86448,-4.60034 -5.19161,-5.70897 -1.07068,2.34511 -1.26045,5.09573 -0.30762,7.71051 0.60325,1.65796 2.87646,4.28672 3.44775,5.85279"
       style="fill:none;stroke:#ffffff;stroke-width:1.99754107;stroke-linecap:round;stroke-linejoin:round;stroke-miterlimit:10;stroke-dasharray:none;stroke-opacity:1"
       id="path9962"
       inkscape:connector-curvature="0" /><path
       d="m -251.54137,277.812 c 0.60326,1.65996 0.51737,5.0418 1.12262,6.69975 0.95083,2.61678 2.86248,4.60034 5.19161,5.71097 1.06869,-2.34711 1.25845,-5.09772 0.30562,-7.7105 -0.60325,-1.65996 -2.87645,-4.28872 -3.44775,-5.8548"
       style="fill:none;stroke:#ffffff;stroke-width:1.99754107;stroke-linecap:round;stroke-linejoin:round;stroke-miterlimit:10;stroke-dasharray:none;stroke-opacity:1"
       id="path9966"
       inkscape:connector-curvature="0" /><path
       d="m -261.15154,254.51648 c -1.1346,-1.35234 -2.21127,-4.56039 -3.34588,-5.91272 -1.7878,-2.13138 -4.26475,-3.34389 -6.83159,-3.58958 -0.20175,2.57083 0.56131,5.21957 2.34911,7.35095 1.1346,1.35233 4.17087,3.04425 5.24155,4.32068"
       style="fill:none;stroke:#ffffff;stroke-width:1.99754107;stroke-linecap:round;stroke-linejoin:round;stroke-miterlimit:10;stroke-dasharray:none;stroke-opacity:1"
       id="path9970"
       inkscape:connector-curvature="0" /><path
       d="m -247.43322,276.11769 c 1.1346,1.35233 2.21127,4.56038 3.34388,5.91272 1.7898,2.13138 4.26675,3.34189 6.83359,3.58958 0.20175,-2.57083 -0.56131,-5.21957 -2.34911,-7.35095 -1.1346,-1.35234 -4.17087,-3.04625 -5.24155,-4.32068"
       style="fill:none;stroke:#ffffff;stroke-width:1.99754107;stroke-linecap:round;stroke-linejoin:round;stroke-miterlimit:10;stroke-dasharray:none;stroke-opacity:1"
       id="path9974"
       inkscape:connector-curvature="0" /><path
       d="m -264.4317,257.51379 c -1.53012,-0.88291 -3.63752,-3.52966 -5.16564,-4.41057 -2.40903,-1.39229 -5.15166,-1.68393 -7.64859,-1.03872 0.68916,2.48693 2.31316,4.71419 4.72219,6.10648 1.52812,0.88092 4.9599,1.43423 6.40412,2.26721"
       style="fill:none;stroke:#ffffff;stroke-width:1.99754107;stroke-linecap:round;stroke-linejoin:round;stroke-miterlimit:10;stroke-dasharray:none;stroke-opacity:1"
       id="path9978"
       inkscape:connector-curvature="0" /><path
       d="m -244.15306,273.12058 c 1.53012,0.88291 3.63752,3.52965 5.16564,4.41057 2.40903,1.39228 5.15166,1.68392 7.64858,1.03872 -0.68915,-2.48694 -2.31315,-4.7142 -4.72218,-6.10648 -1.52812,-0.88092 -4.96189,-1.43424 -6.40412,-2.26721"
       style="fill:none;stroke:#ffffff;stroke-width:1.99754107;stroke-linecap:round;stroke-linejoin:round;stroke-miterlimit:10;stroke-dasharray:none;stroke-opacity:1"
       id="path9982"
       inkscape:connector-curvature="0" /><path
       d="m -266.48977,261.45234 c -1.73786,-0.30562 -4.6243,-2.07345 -6.36216,-2.37907 -2.74063,-0.48341 -5.41534,0.17978 -7.54072,1.64198 1.49616,2.09941 3.78334,3.63752 6.52397,4.12092 1.73786,0.30763 5.15166,-0.34757 6.79363,-0.0579"
       style="fill:none;stroke:#ffffff;stroke-width:1.99754107;stroke-linecap:round;stroke-linejoin:round;stroke-miterlimit:10;stroke-dasharray:none;stroke-opacity:1"
       id="path9986"
       inkscape:connector-curvature="0" /><path
       d="m -242.09499,269.18203 c 1.73786,0.30562 4.6243,2.07344 6.36216,2.37907 2.74063,0.4834 5.41534,-0.17978 7.54072,-1.64198 -1.49616,-2.09942 -3.78334,-3.63952 -6.52397,-4.12093 -1.73786,-0.30762 -5.15166,0.34757 -6.79364,0.0579"
       style="fill:none;stroke:#ffffff;stroke-width:1.99754107;stroke-linecap:round;stroke-linejoin:round;stroke-miterlimit:10;stroke-dasharray:none;stroke-opacity:1"
       id="path9990"
       inkscape:connector-curvature="0" /><path
       d="m -267.07604,265.85692 c -1.73786,0.30562 -5.05578,-0.36555 -6.79164,-0.0599 -2.74063,0.48341 -5.02781,2.02151 -6.52597,4.12293 2.12538,1.4602 4.80009,2.12338 7.54072,1.63998 1.73786,-0.30563 4.72218,-2.08743 6.36217,-2.37708"
       style="fill:none;stroke:#ffffff;stroke-width:1.99754107;stroke-linecap:round;stroke-linejoin:round;stroke-miterlimit:10;stroke-dasharray:none;stroke-opacity:1"
       id="path9994"
       inkscape:connector-curvature="0" /><path
       d="m -241.50872,264.77725 c 1.73786,-0.30563 5.05578,0.36555 6.79164,0.0599 2.74063,-0.4834 5.02781,-2.02151 6.52597,-4.12292 -2.12538,-1.4602 -4.80009,-2.12538 -7.54072,-1.63998 -1.73786,0.30562 -4.72218,2.08743 -6.36217,2.37707"
       style="fill:none;stroke:#ffffff;stroke-width:1.99754107;stroke-linecap:round;stroke-linejoin:round;stroke-miterlimit:10;stroke-dasharray:none;stroke-opacity:1"
       id="path9998"
       inkscape:connector-curvature="0" /><path
       d="m -266.12002,270.19638 c -1.53012,0.88291 -4.876,1.38629 -6.40412,2.26721 -2.40903,1.39228 -4.03303,3.61954 -4.72019,6.10448 2.49693,0.6472 5.23756,0.35556 7.64659,-1.03672 1.52812,-0.88092 3.72342,-3.5776 5.16564,-4.41057"
       style="fill:none;stroke:#ffffff;stroke-width:1.99754107;stroke-linecap:round;stroke-linejoin:round;stroke-miterlimit:10;stroke-dasharray:none;stroke-opacity:1"
       id="path10002"
       inkscape:connector-curvature="0" /><path
       d="m -242.46474,260.43779 c 1.52812,-0.88291 4.876,-1.38629 6.40412,-2.26721 2.40903,-1.39229 4.03303,-3.61954 4.72019,-6.10449 -2.49693,-0.6472 -5.23756,-0.35556 -7.64659,1.03673 -1.52812,0.88091 -3.72342,3.57759 -5.16564,4.41057"
       style="fill:none;stroke:#ffffff;stroke-width:1.99754107;stroke-linecap:round;stroke-linejoin:round;stroke-miterlimit:10;stroke-dasharray:none;stroke-opacity:1"
       id="path10006"
       inkscape:connector-curvature="0" /><path
       d="m -263.73835,273.94756 c -1.13461,1.35233 -4.10695,2.96835 -5.24155,4.32068 -1.7898,2.13138 -2.55086,4.78012 -2.34911,7.35095 2.56684,-0.2457 5.04379,-1.4582 6.83159,-3.58958 1.13461,-1.35034 2.2752,-4.63429 3.34588,-5.91272"
       style="fill:none;stroke:#ffffff;stroke-width:1.99754107;stroke-linecap:round;stroke-linejoin:round;stroke-miterlimit:10;stroke-dasharray:none;stroke-opacity:1"
       id="path10010"
       inkscape:connector-curvature="0" /><path
       d="m -244.84641,256.68661 c 1.13461,-1.35234 4.10695,-2.97035 5.24155,-4.32068 1.7898,-2.13138 2.55086,-4.78212 2.34911,-7.35096 -2.56684,0.2457 -5.04379,1.45621 -6.83359,3.58959 -1.13261,1.35033 -2.2732,4.63429 -3.34388,5.91272"
       style="fill:none;stroke:#ffffff;stroke-width:1.99754107;stroke-linecap:round;stroke-linejoin:round;stroke-miterlimit:10;stroke-dasharray:none;stroke-opacity:1"
       id="path10014"
       inkscape:connector-curvature="0" /><path
       d="m -260.21629,276.65722 c -0.60326,1.65996 -2.8445,4.19684 -3.44775,5.8548 -0.95283,2.61278 -0.76306,5.36339 0.30762,7.71051 2.32713,-1.11064 4.23878,-3.0942 5.19161,-5.70898 0.60325,-1.65796 0.55132,-5.13568 1.12062,-6.70175"
       style="fill:none;stroke:#ffffff;stroke-width:1.99754107;stroke-linecap:round;stroke-linejoin:round;stroke-miterlimit:10;stroke-dasharray:none;stroke-opacity:1"
       id="path10018"
       inkscape:connector-curvature="0" /><path
       d="m -248.36847,253.97614 c 0.60326,-1.65796 2.8445,-4.19483 3.44775,-5.85279 0.95283,-2.61478 0.76306,-5.3654 -0.30762,-7.71251 -2.32713,1.11063 -4.23878,3.09619 -5.19161,5.71097 -0.60325,1.65796 -0.55132,5.13368 -1.12062,6.69975"
       style="fill:none;stroke:#ffffff;stroke-width:1.99754107;stroke-linecap:round;stroke-linejoin:round;stroke-miterlimit:10;stroke-dasharray:none;stroke-opacity:1"
       id="path10022"
       inkscape:connector-curvature="0" /><path
       d="m -241.97894,265.52932 c 0,6.78964 -5.50522,12.29487 -12.29486,12.29487 -6.78965,0 -12.29487,-5.50523 -12.29487,-12.29487 0,-6.78964 5.50522,-12.29486 12.29487,-12.29486 6.78964,0 12.29486,5.50522 12.29486,12.29486 z"
       style="fill:none;stroke:#ffffff;stroke-width:1.99754107;stroke-linecap:round;stroke-linejoin:round;stroke-miterlimit:10;stroke-dasharray:none;stroke-opacity:1"
       id="path10026"
       inkscape:connector-curvature="0" /><path
       d="m -243.64968,265.52932 c 0,5.86878 -4.75615,10.62492 -10.62292,10.62492 -5.86878,0 -10.62493,-4.75614 -10.62493,-10.62492 0,-5.86678 4.75615,-10.62292 10.62493,-10.62292 5.86677,0 10.62292,4.75614 10.62292,10.62292 z"
       style="fill:none;stroke:#ffffff;stroke-width:1.99754107;stroke-linecap:round;stroke-linejoin:round;stroke-miterlimit:10;stroke-dasharray:none;stroke-opacity:1"
       id="path10030"
       inkscape:connector-curvature="0" /><path
       d="m -265.88411,264.29444 12.78226,12.78227"
       style="fill:none;stroke:#ffffff;stroke-width:1.99754107;stroke-linecap:round;stroke-linejoin:round;stroke-miterlimit:10;stroke-dasharray:none;stroke-opacity:1"
       id="path10034"
       inkscape:connector-curvature="0" /><path
       d="m -264.09431,260.752 14.48616,14.48617"
       style="fill:none;stroke:#ffffff;stroke-width:1.99754107;stroke-linecap:round;stroke-linejoin:round;stroke-miterlimit:10;stroke-dasharray:none;stroke-opacity:1"
       id="path10038"
       inkscape:connector-curvature="0" /><path
       d="m -262.63032,256.88456 16.89121,16.88921"
       style="fill:none;stroke:#ffffff;stroke-width:1.99754107;stroke-linecap:round;stroke-linejoin:round;stroke-miterlimit:10;stroke-dasharray:none;stroke-opacity:1"
       id="path10042"
       inkscape:connector-curvature="0" /><path
       d="m -258.76188,255.41957 14.48617,14.48616"
       style="fill:none;stroke:#ffffff;stroke-width:1.99754107;stroke-linecap:round;stroke-linejoin:round;stroke-miterlimit:10;stroke-dasharray:none;stroke-opacity:1"
       id="path10046"
       inkscape:connector-curvature="0" /><path
       d="m -255.04186,253.80835 12.37876,12.37676"
       style="fill:none;stroke:#ffffff;stroke-width:1.99754107;stroke-linecap:round;stroke-linejoin:round;stroke-miterlimit:10;stroke-dasharray:none;stroke-opacity:1"
       id="path10050"
       inkscape:connector-curvature="0" /><path
       d="m -255.29654,277.10487 12.29486,-12.29486"
       style="fill:none;stroke:#ffffff;stroke-width:1.99754107;stroke-linecap:round;stroke-linejoin:round;stroke-miterlimit:10;stroke-dasharray:none;stroke-opacity:1"
       id="path10054"
       inkscape:connector-curvature="0" /><path
       d="m -258.76188,275.23897 14.48617,-14.48617"
       style="fill:none;stroke:#ffffff;stroke-width:1.99754107;stroke-linecap:round;stroke-linejoin:round;stroke-miterlimit:10;stroke-dasharray:none;stroke-opacity:1"
       id="path10058"
       inkscape:connector-curvature="0" /><path
       d="m -262.63032,273.77397 16.89121,-16.88921"
       style="fill:none;stroke:#ffffff;stroke-width:1.99754107;stroke-linecap:round;stroke-linejoin:round;stroke-miterlimit:10;stroke-dasharray:none;stroke-opacity:1"
       id="path10062"
       inkscape:connector-curvature="0" /><path
       d="M -264.09431,269.90673 -249.25458,255.067"
       style="fill:none;stroke:#ffffff;stroke-width:1.99754107;stroke-linecap:round;stroke-linejoin:round;stroke-miterlimit:10;stroke-dasharray:none;stroke-opacity:1"
       id="path10066"
       inkscape:connector-curvature="0" /><path
       d="m -265.73589,266.21588 12.60848,-12.60848"
       style="fill:none;stroke:#ffffff;stroke-width:1.99754107;stroke-linecap:round;stroke-linejoin:round;stroke-miterlimit:10;stroke-dasharray:none;stroke-opacity:1"
       id="path10070"
       inkscape:connector-curvature="0" /></g></svg>