<?xml version="1.0" encoding="UTF-8" standalone="no"?>
<!-- Created with Inkscape (http://www.inkscape.org/) -->

<svg
   xmlns:dc="http://purl.org/dc/elements/1.1/"
   xmlns:cc="http://creativecommons.org/ns#"
   xmlns:rdf="http://www.w3.org/1999/02/22-rdf-syntax-ns#"
   xmlns:svg="http://www.w3.org/2000/svg"
   xmlns="http://www.w3.org/2000/svg"
   xmlns:sodipodi="http://sodipodi.sourceforge.net/DTD/sodipodi-0.dtd"
   xmlns:inkscape="http://www.inkscape.org/namespaces/inkscape"
   viewBox="0 0 43 43"
   id="svg4098"
   version="1.1"
   inkscape:version="0.91 r13725"
   sodipodi:docname="crop.svg"
   inkscape:export-xdpi="13.711249"
   inkscape:export-ydpi="13.711249">
  <defs
     id="defs4100" />
  <sodipodi:namedview
     id="base"
     pagecolor="#ffffff"
     bordercolor="#666666"
     borderopacity="1.0"
     inkscape:pageopacity="0.0"
     inkscape:pageshadow="2"
     inkscape:zoom="8.9600283"
     inkscape:cx="18.518435"
     inkscape:cy="46.864167"
     inkscape:document-units="px"
     inkscape:current-layer="layer1"
     showgrid="false"
     fit-margin-top="0"
     fit-margin-left="0"
     fit-margin-right="0"
     fit-margin-bottom="0"
     inkscape:window-width="1920"
     inkscape:window-height="1018"
     inkscape:window-x="-8"
     inkscape:window-y="-8"
     inkscape:window-maximized="1" />
  <metadata
     id="metadata4103">
    <rdf:RDF>
      <cc:Work
         rdf:about="">
        <dc:format>image/svg+xml</dc:format>
        <dc:type
           rdf:resource="http://purl.org/dc/dcmitype/StillImage" />
        <dc:title></dc:title>
      </cc:Work>
    </rdf:RDF>
  </metadata>
  <g
     inkscape:label="Layer 1"
     inkscape:groupmode="layer"
     id="layer1"
     transform="translate(-439.40625,-561.90625)">
    <path
       style="fill:#ffffff;fill-opacity:1;fill-rule:nonzero;stroke:none"
       d="m 468.76307,565.91415 c 0,0 -2.89004,2.79867 -3.27763,3.25655 -0.38758,0.45787 -0.48798,0.67368 -0.56384,1.1909 -0.0758,0.51723 -0.0369,7.99909 -0.0369,7.99909 0,0 2.76626,-2.67087 3.37248,-3.39355 0.48226,-0.5371 0.57598,-0.92942 0.61126,-1.52288 -0.0133,-0.75614 -0.10535,-7.53011 -0.10535,-7.53011 z m -5.96507,5.9598 c 0,0 -2.89004,2.79867 -3.27763,3.25655 -0.38758,0.45787 -0.48271,0.67895 -0.55857,1.19617 -0.0758,0.51723 -0.0369,7.9991 -0.0369,7.9991 0,0 2.76626,-2.67615 3.37248,-3.39883 0.48226,-0.5371 0.57072,-0.92942 0.60599,-1.52288 -0.0133,-0.75614 -0.10535,-7.53011 -0.10535,-7.53011 z m 8.07814,3.57799 c -0.59346,0.0352 -0.98579,0.129 -1.52289,0.61126 -0.72268,0.60621 -3.39355,3.37247 -3.39355,3.37247 0,0 7.48187,0.039 7.9991,-0.0369 0.51722,-0.0758 0.73303,-0.17626 1.1909,-0.56384 0.45788,-0.38758 3.25656,-3.27764 3.25656,-3.27764 0,0 -6.77398,-0.0922 -7.53012,-0.10534 z m -14.03794,2.38708 c 0,0 -2.89004,2.79867 -3.27763,3.25655 -0.38758,0.45787 -0.48799,0.67368 -0.56383,1.1909 -0.0758,0.51723 -0.0316,7.9991 -0.0316,7.9991 0,0 2.761,-2.67615 3.3672,-3.39883 0.48227,-0.5371 0.576,-0.92415 0.61126,-1.51761 -0.0133,-0.75614 -0.10535,-7.53011 -0.10535,-7.53011 z m 8.07814,3.57799 c -0.59346,0.0352 -0.98579,0.12373 -1.52289,0.60599 -0.72268,0.60621 -3.39882,3.37247 -3.39882,3.37247 0,0 7.48187,0.039 7.9991,-0.0369 0.51721,-0.0758 0.7383,-0.17099 1.19617,-0.55857 0.45788,-0.38759 3.25655,-3.27763 3.25655,-3.27763 0,0 -6.77397,-0.0922 -7.53011,-0.10535 z m -14.03794,2.38182 c 0,0 -2.89531,2.79867 -3.2829,3.25655 -0.38756,0.45787 -0.48271,0.67895 -0.55856,1.19618 -0.0755,0.51507 -0.0372,7.90056 -0.0369,7.9622 l -3.5938,3.5938 1.09079,1.09079 3.57799,-3.57799 c 0,0 7.47661,0.039 7.99382,-0.0369 0.51722,-0.0758 0.73831,-0.17098 1.19618,-0.55857 0.45788,-0.38758 3.25655,-3.2829 3.25655,-3.2829 0,0 -0.87891,-0.0121 -1.14875,-0.0157 l 0.0157,-0.0158 c 0,0 -6.77397,-0.0922 -7.53011,-0.10535 -0.43833,0.026 -0.76434,0.0835 -1.1224,0.30563 0.17901,-0.3244 0.23433,-0.6312 0.2582,-1.03281 -0.002,-0.11747 -0.0105,-0.80986 -0.0159,-1.16983 0.002,-0.0264 0.004,-0.0519 0.006,-0.079 -0.0133,-0.75614 -0.10535,-7.53013 -0.10535,-7.53013 z m 8.07287,3.57799 c -0.59345,0.0352 -0.98052,0.129 -1.51762,0.61127 -0.72268,0.6062 -3.39882,3.3672 -3.39882,3.3672 0,0 7.48187,0.0442 7.99911,-0.0316 0.51722,-0.0758 0.73303,-0.17625 1.1909,-0.56383 0.45788,-0.38759 3.25655,-3.27763 3.25655,-3.27763 0,0 -6.77397,-0.0922 -7.53011,-0.10535 z"
       id="rect2985"
       inkscape:connector-curvature="0" />
  </g>
</svg>
